<svg width="1520" height="268" viewBox="0 0 1520 268" fill="none" xmlns="http://www.w3.org/2000/svg">
<rect x="1090.66" y="71.563" width="22" height="22" transform="rotate(153 1090.66 71.563)" fill="#FBBC04" stroke="#202124" stroke-width="2"/>
<circle cx="408" cy="256" r="11" fill="#4285F4" stroke="#202124" stroke-width="2"/>
<path d="M298.952 171L298.952 203" stroke="#202124" stroke-width="1.5"/>
<path d="M286 177.857L311.905 196.143" stroke="#202124" stroke-width="1.5"/>
<path d="M311.905 177.857L286 196.143" stroke="#202124" stroke-width="1.5"/>
<rect x="659" y="1" width="47" height="47" stroke="#E8F0FE" stroke-width="2"/>
<rect x="471" y="1" width="47" height="47" stroke="#E8F0FE" stroke-width="2"/>
<rect x="142" y="1" width="47" height="47" stroke="#E8F0FE" stroke-width="2"/>
<rect x="612" y="1" width="47" height="47" stroke="#E8F0FE" stroke-width="2"/>
<rect x="283" y="1" width="47" height="47" stroke="#E8F0FE" stroke-width="2"/>
<rect x="424" y="1" width="47" height="47" stroke="#E8F0FE" stroke-width="2"/>
<rect x="95" y="1" width="47" height="47" stroke="#E8F0FE" stroke-width="2"/>
<rect x="565" y="1" width="47" height="47" stroke="#E8F0FE" stroke-width="2"/>
<rect x="236" y="1" width="47" height="47" stroke="#E8F0FE" stroke-width="2"/>
<rect x="377" y="1" width="47" height="47" stroke="#E8F0FE" stroke-width="2"/>
<rect x="48" y="1" width="47" height="47" stroke="#E8F0FE" stroke-width="2"/>
<rect x="518" y="1" width="47" height="47" stroke="#E8F0FE" stroke-width="2"/>
<rect x="189" y="1" width="47" height="47" stroke="#E8F0FE" stroke-width="2"/>
<rect x="330" y="1" width="47" height="47" stroke="#E8F0FE" stroke-width="2"/>
<rect x="1" y="1" width="47" height="47" stroke="#E8F0FE" stroke-width="2"/>
<rect x="142" y="48" width="47" height="47" stroke="#E8F0FE" stroke-width="2"/>
<rect x="95" y="48" width="47" height="47" stroke="#E8F0FE" stroke-width="2"/>
<rect x="48" y="48" width="47" height="47" stroke="#E8F0FE" stroke-width="2"/>
<rect x="1" y="48" width="47" height="47" stroke="#E8F0FE" stroke-width="2"/>
<rect x="95" y="95" width="47" height="47" stroke="#E8F0FE" stroke-width="2"/>
<rect x="48" y="95" width="47" height="47" stroke="#E8F0FE" stroke-width="2"/>
<rect x="1" y="95" width="47" height="47" stroke="#E8F0FE" stroke-width="2"/>
</svg>
