<?xml version="1.0" encoding="UTF-8"?><svg id="a" xmlns="http://www.w3.org/2000/svg" xmlns:xlink="http://www.w3.org/1999/xlink" viewBox="0 0 475 228"><defs><style>.l{fill:#3c4043;}.l,.m,.n,.o,.p,.q,.r,.s,.t,.u,.v,.w{stroke-width:0px;}.m{fill:#e8f0fe;}.n,.x,.y,.z,.aa,.ab,.ac{fill:none;}.o{fill:#217bfe;}.ad{filter:url(#h);}.x,.ab,.ac{stroke-miterlimit:10;}.x,.ac{stroke:#dadce0;}.y{stroke:url(#f);}.y,.z,.aa{stroke-linejoin:round;stroke-width:10px;}.y,.z,.aa,.ab,.ac{stroke-linecap:round;}.z{stroke:url(#e);}.aa{stroke:url(#d);}.ab{stroke:#3c4043;stroke-width:7px;}.p{fill:#202124;}.ae{clip-path:url(#b);}.q{fill:#f8f9fa;}.ac{stroke-width:8.28px;}.r{fill:#fff;}.s{fill:url(#c);}.t{fill:url(#j);}.u{fill:url(#g);}.v{fill:url(#k);}.w{fill:#dadce0;}</style><clipPath id="b"><rect class="n" width="475" height="228"/></clipPath><linearGradient id="c" x1="157.73" y1="20.68" x2="457.36" y2="425.35" gradientUnits="userSpaceOnUse"><stop offset="0" stop-color="#dce2ff" stop-opacity=".1"/><stop offset=".48" stop-color="#dce2ff"/><stop offset=".52" stop-color="#d6d7fc"/><stop offset=".66" stop-color="#c4b4f5"/><stop offset=".79" stop-color="#b69bef"/><stop offset=".9" stop-color="#ae8cec"/><stop offset="1" stop-color="#ac87eb"/></linearGradient><linearGradient id="d" x1="151.62" y1="205.15" x2="293.99" y2="205.15" gradientUnits="userSpaceOnUse"><stop offset="0" stop-color="#d7e6ff" stop-opacity=".35"/><stop offset=".13" stop-color="#d7e6ff" stop-opacity=".25"/><stop offset=".72" stop-color="#217bfe"/><stop offset="1" stop-color="#ac87eb" stop-opacity=".8"/></linearGradient><linearGradient id="e" y1="183.15" x2="339.27" y2="183.15" xlink:href="#d"/><linearGradient id="f" y1="161.16" x2="369.7" y2="161.16" xlink:href="#d"/><linearGradient id="g" x1="148.99" y1="136.27" x2="169.14" y2="136.27" gradientUnits="userSpaceOnUse"><stop offset=".21" stop-color="#217bfe"/><stop offset=".66" stop-color="#ac87eb"/></linearGradient><filter id="h" filterUnits="userSpaceOnUse"><feOffset dx="0" dy="1"/><feGaussianBlur result="i" stdDeviation="2"/><feFlood flood-color="#217bfe" flood-opacity=".2"/><feComposite in2="i" operator="in"/><feComposite in="SourceGraphic"/></filter><linearGradient id="j" x1="1065.68" y1="-1193.25" x2="1128.47" y2="-1142.7" gradientTransform="translate(1060.19 -1173.52) rotate(80.36) scale(1 -1)" gradientUnits="userSpaceOnUse"><stop offset=".39" stop-color="#dce2ff"/><stop offset="1" stop-color="#adc8f6"/></linearGradient><radialGradient id="k" cx="57.98" cy="108.33" fx="78.91" fy="212.01" r="109.16" gradientTransform="translate(171.84 130.48) rotate(152.83) scale(.98 .72)" gradientUnits="userSpaceOnUse"><stop offset=".74" stop-color="#217bfe" stop-opacity="0"/><stop offset=".79" stop-color="rgba(33,123,254,.01)" stop-opacity=".01"/><stop offset=".82" stop-color="rgba(33,123,254,.05)" stop-opacity=".05"/><stop offset=".84" stop-color="rgba(33,123,254,.11)" stop-opacity=".11"/><stop offset=".87" stop-color="rgba(33,123,254,.2)" stop-opacity=".2"/><stop offset=".89" stop-color="rgba(33,123,254,.31)" stop-opacity=".31"/><stop offset=".91" stop-color="rgba(33,123,254,.45)" stop-opacity=".45"/><stop offset=".93" stop-color="rgba(33,123,254,.61)" stop-opacity=".61"/><stop offset=".95" stop-color="rgba(33,123,254,.8)" stop-opacity=".8"/><stop offset=".97" stop-color="#217bfe"/></radialGradient></defs><rect class="r" width="475" height="228"/><g class="ae"><rect class="q" x="-29.02" y="-.51" width="91.41" height="236.86"/><rect class="q" x="413.52" y="-2.24" width="63.94" height="232.8"/><line class="x" x1="62.39" y1="-.51" x2="62.39" y2="236.34"/><circle class="w" cx="84.69" cy="27.6" r="9"/><circle class="m" cx="84.69" cy="63.1" r="11"/><circle class="o" cx="84.69" cy="63.1" r="7"/><rect class="x" x="108.49" y="-.51" width="304.61" height="38.37"/><rect class="x" x="108.49" y="37.86" width="304.61" height="223.06"/><path class="w" d="M394.38-39.32c10.06,0,18.21,8.15,18.21,18.21V-.94H-18.62v-38.37h413M394.38-40.32H-19.62V.06h433.21v-21.16c0-10.59-8.62-19.21-19.21-19.21h0Z"/><path class="s" d="M404.55,260.92V63.49c0-6.86-5.71-12.42-12.76-12.42H130.27c-7.05,0-12.76,5.56-12.76,12.42v197.43h287.05Z"/><path class="r" d="M136.16,260.94V82.44c0-6.89,5.61-12.5,12.5-12.5h224c6.89,0,12.5,5.61,12.5,12.5v178.5h-249Z"/><path class="w" d="M372.66,70.44c6.63,0,12,5.37,12,12v178h-248V82.44c0-6.63,5.37-12,12-12h224M372.66,69.44h-224c-7.17,0-13,5.83-13,13v179h250V82.44c0-7.17-5.83-13-13-13h0Z"/><line class="aa" x1="156.62" y1="205.15" x2="288.99" y2="205.15"/><line class="z" x1="156.62" y1="183.15" x2="334.27" y2="183.15"/><line class="y" x1="156.62" y1="161.16" x2="364.7" y2="161.16"/><line class="ab" x1="181.72" y1="93.64" x2="225.37" y2="93.64"/><path class="l" d="M161.71,101.64c0-1.11-.21-2.15-.63-3.12-.42-.97-.99-1.82-1.71-2.54s-1.57-1.29-2.54-1.71c-.97-.42-2.01-.63-3.12-.63,1.11,0,2.15-.21,3.12-.63.97-.42,1.82-.99,2.54-1.71s1.29-1.57,1.71-2.54.63-2.01.63-3.12c0,1.11.21,2.15.63,3.12s.99,1.82,1.71,2.54,1.57,1.29,2.54,1.71,2.01.63,3.12.63c-1.11,0-2.15.21-3.12.63s-1.82.99-2.54,1.71-1.29,1.57-1.71,2.54c-.42.97-.63,2.01-.63,3.12Z"/><circle class="w" cx="361.94" cy="93.64" r="5.68"/><path class="u" d="M161.71,146.34c0-1.39-.26-2.7-.79-3.93-.53-1.23-1.25-2.29-2.15-3.2s-1.97-1.62-3.2-2.15c-1.23-.53-2.54-.79-3.93-.79,1.39,0,2.7-.26,3.93-.79,1.23-.53,2.29-1.25,3.2-2.15s1.62-1.97,2.15-3.2.79-2.54.79-3.93c0,1.39.26,2.7.79,3.93s1.25,2.29,2.15,3.2,1.97,1.62,3.2,2.15,2.54.79,3.93.79c-1.39,0-2.7.26-3.93.79s-2.29,1.25-3.2,2.15-1.62,1.97-2.15,3.2c-.53,1.23-.79,2.54-.79,3.93Z"/><line class="ac" x1="136.66" y1="18.67" x2="199.01" y2="18.67"/><g class="ad"><circle class="t" cx="107.76" cy="117.24" r="36.99"/><circle class="v" cx="107.76" cy="117.24" r="36.99"/><path class="p" d="M99.03,130.33l-13.09-13.09,13.09-13.09,3.11,3.11-10.03,10.03,9.98,9.98-3.05,3.05ZM116.48,130.33l-3.11-3.11,10.03-10.03-9.98-9.98,3.05-3.05,13.09,13.09-13.09,13.09Z"/></g></g></svg>