<?xml version="1.0" encoding="UTF-8"?><svg id="a" xmlns="http://www.w3.org/2000/svg" xmlns:xlink="http://www.w3.org/1999/xlink" viewBox="0 0 355 247"><defs><style>.c{fill:#0f9d58;}.c,.d,.e,.f,.g{stroke-width:0px;}.d,.h,.i{fill:none;}.h{stroke:#e8eaed;stroke-width:2px;}.h,.i{stroke-linecap:round;stroke-linejoin:round;}.i{stroke:#dadce0;stroke-width:10px;}.e{fill:#1a73e8;}.j{clip-path:url(#b);}.f{fill:#f8f9fa;}.g{fill:#fff;}</style><clipPath id="b"><rect class="d" y="0" width="355" height="247"/></clipPath></defs><g class="j"><rect class="f" x="14.44" y="162.89" width="362.86" height="84.11" rx="16" ry="16"/><line class="h" x1="51.94" y1="-2.73" x2="51.94" y2="255.38"/><line class="h" x1="1.94" y1="-2.73" x2="1.94" y2="255.38"/><circle class="c" cx="51.94" cy="44.45" r="17.1"/><path class="g" d="M49.37,50.76l-5.98-5.98,1.49-1.49,4.48,4.48,9.63-9.63,1.49,1.49-11.12,11.12Z"/><circle class="c" cx="51.94" cy="123.24" r="17.1"/><path class="g" d="M49.37,129.54l-5.98-5.98,1.49-1.49,4.48,4.48,9.63-9.63,1.49,1.49-11.12,11.12Z"/><circle class="e" cx="51.94" cy="202.55" r="17.1"/><path class="g" d="M50.07,209.53c-.62-.25-1.17-.63-1.67-1.16-.5-.53-.86-1.19-1.08-1.98l1.58-.66c.22.79.59,1.41,1.12,1.85.53.44,1.15.66,1.86.66.52,0,1.01-.11,1.46-.34.45-.23.81-.54,1.08-.94.27-.4.4-.85.4-1.34s-.13-.92-.4-1.31c-.27-.4-.63-.71-1.09-.93-.46-.23-.96-.34-1.51-.34h-1.21v-1.62h1.09c.75,0,1.38-.22,1.89-.65s.76-1,.76-1.71c0-.66-.25-1.18-.74-1.58-.49-.4-1.1-.6-1.83-.6s-1.27.19-1.67.55c-.4.37-.69.82-.87,1.35l-1.6-.68c.25-.74.72-1.41,1.43-2s1.61-.89,2.72-.89c.82,0,1.56.16,2.22.49.66.33,1.17.79,1.55,1.37.38.59.56,1.24.56,1.97s-.18,1.34-.55,1.85c-.37.51-.83.9-1.37,1.19v.08c.7.29,1.27.73,1.72,1.32.45.6.68,1.3.68,2.1s-.21,1.56-.63,2.22c-.42.66-.99,1.17-1.7,1.54-.72.37-1.51.55-2.37.55-.59,0-1.19-.12-1.81-.37Z"/><line class="i" x1="92.48" y1="55.65" x2="265.36" y2="55.65"/><line class="i" x1="92.48" y1="33.26" x2="320.56" y2="33.26"/><line class="i" x1="92.48" y1="213.74" x2="169.98" y2="213.74"/><line class="i" x1="92.48" y1="191.35" x2="309.79" y2="191.35"/><line class="i" x1="92.48" y1="134.43" x2="219.94" y2="134.43"/><line class="i" x1="92.48" y1="112.04" x2="293.71" y2="112.04"/><line class="i" x1="92.48" y1="134.43" x2="219.94" y2="134.43"/><line class="i" x1="92.48" y1="191.35" x2="309.79" y2="191.35"/></g></svg>