<?xml version="1.0" encoding="UTF-8"?><svg id="a" xmlns="http://www.w3.org/2000/svg" xmlns:xlink="http://www.w3.org/1999/xlink" viewBox="0 0 475 228"><defs><style>.g,.h,.i,.j,.k,.l,.m{fill:none;}.g,.n,.i,.o,.p,.l,.m{stroke-miterlimit:10;}.g,.i,.j,.k{stroke-linecap:round;}.g,.i,.k{stroke-width:10px;}.g,.l{stroke:#e8f0fe;}.h,.q,.r,.s,.t,.u,.v,.w,.x,.y,.z,.aa,.ab,.ac,.ad,.ae{stroke-width:0px;}.n{fill:#f9ab00;stroke:#f9ab00;}.n,.o{stroke-width:.5px;}.q{fill:#fde293;}.r{fill:#9aa0a6;}.i{stroke:#4285f4;}.o{stroke:#fbbc04;}.o,.v{fill:#fbbc04;}.j{stroke-width:20px;}.j,.k{stroke:#e8eaed;stroke-linejoin:round;}.s{fill:#fdd663;}.p{stroke:#dadce0;}.p,.aa{fill:#fff;}.t{fill:#4285f4;}.m{stroke:#fcc934;stroke-width:2px;}.u{fill:#fcc934;}.af{opacity:.65;}.ag,.z{opacity:.5;}.w{fill:#e8eaed;}.x{fill:#fef7e0;}.ah{clip-path:url(#d);}.ai{clip-path:url(#b);}.y,.z{fill:#f8f9fa;}.ab{fill:url(#c);}.ac{fill:url(#e);}.ad{fill:url(#f);}.ae{fill:#dadce0;}</style><clipPath id="b"><rect class="h" x="0" width="475" height="228"/></clipPath><linearGradient id="c" x1="155.99" y1="68.51" x2="125.67" y2="86.02" gradientUnits="userSpaceOnUse"><stop offset="0" stop-color="#e8f0fe"/><stop offset=".31" stop-color="#b7d0fb"/><stop offset="1" stop-color="#4285f4"/></linearGradient><clipPath id="d"><circle class="h" cx="302.33" cy="94.87" r="49.13"/></clipPath><linearGradient id="e" x1="297.74" y1="157.31" x2="304.52" y2="195.77" xlink:href="#c"/><linearGradient id="f" x1="393.47" y1="35.37" x2="502.4" y2="35.37" gradientUnits="userSpaceOnUse"><stop offset="0" stop-color="#ceead6"/><stop offset="1" stop-color="#0f9d58"/></linearGradient></defs><g class="ai"><rect class="z" x="-7.24" y="-5.01" width="494.03" height="239.27"/><rect class="l" x="317.32" y="-31.99" width="44.88" height="44.88"/><rect class="l" x="362.2" y="-31.99" width="44.88" height="44.88"/><rect class="l" x="407.08" y="-31.99" width="44.88" height="44.88"/><rect class="l" x="451.96" y="-31.99" width="44.88" height="44.88"/><rect class="l" x="272.44" y="12.89" width="44.88" height="44.88"/><rect class="l" x="317.32" y="12.89" width="44.88" height="44.88"/><rect class="l" x="362.2" y="12.89" width="44.88" height="44.88"/><rect class="l" x="407.08" y="12.89" width="44.88" height="44.88"/><rect class="l" x="451.96" y="12.89" width="44.88" height="44.88"/><rect class="l" x="227.56" y="57.78" width="44.88" height="44.88"/><rect class="l" x="272.44" y="57.78" width="44.88" height="44.88"/><rect class="l" x="317.32" y="57.78" width="44.88" height="44.88"/><rect class="l" x="362.2" y="57.78" width="44.88" height="44.88"/><rect class="l" x="407.08" y="57.78" width="44.88" height="44.88"/><rect class="l" x="451.96" y="57.78" width="44.88" height="44.88"/><rect class="l" x="227.56" y="102.66" width="44.88" height="44.88"/><rect class="l" x="272.44" y="102.66" width="44.88" height="44.88"/><rect class="l" x="317.32" y="102.66" width="44.88" height="44.88"/><rect class="l" x="362.2" y="102.66" width="44.88" height="44.88"/><rect class="l" x="407.08" y="102.66" width="44.88" height="44.88"/><rect class="l" x="451.96" y="102.66" width="44.88" height="44.88"/><rect class="l" x="-.93" y="184.09" width="44.88" height="44.88"/><rect class="l" x="43.95" y="184.09" width="44.88" height="44.88"/><rect class="l" x="88.83" y="184.09" width="44.88" height="44.88"/><line class="j" x1="-39" y1="62.14" x2="87.39" y2="62.14"/><line class="k" x1="-44" y1="149.13" x2="73.82" y2="149.13"/><line class="k" x1="-44" y1="96.17" x2="73.82" y2="96.17"/><line class="k" x1="-44" y1="122.65" x2="73.82" y2="122.65"/><g class="af"><rect class="w" x="116.94" y="52.26" width="72.41" height="48.75" rx="6" ry="6"/></g><g class="ag"><path class="ab" d="M148.33,63.61c1.35,0,2.44,1.16,2.44,2.59v23.46l-9.77-4.44-9.77,4.44v-23.46c0-1.43,1.09-2.59,2.44-2.59h14.65M148.33,60.61h-14.65c-3,0-5.44,2.51-5.44,5.59v23.46c0,1.02.52,1.97,1.38,2.52.49.32,1.06.48,1.62.48.42,0,.85-.09,1.24-.27l8.53-3.88,8.53,3.88c.4.18.82.27,1.24.27.57,0,1.13-.16,1.62-.48.86-.55,1.38-1.5,1.38-2.52v-23.46c0-3.08-2.44-5.59-5.44-5.59h0Z"/></g><path class="t" d="M150.78,89.66l-9.77-4.44-9.77,4.44v-23.46c0-1.43,1.09-2.59,2.44-2.59h14.65c1.35,0,2.44,1.16,2.44,2.59v23.46Z"/><polygon class="r" points="175.56 73.77 169.82 79.5 164.09 73.77 175.56 73.77"/><path class="aa" d="M216.97,244.74c-5.47,0-9.92-4.45-9.92-9.92V60.06c0-5.47,4.45-9.92,9.92-9.92h22.52c14.48-20.31,37.94-32.42,62.84-32.42s48.36,12.11,62.84,32.42h20.11c5.47,0,9.92,4.45,9.92,9.92v174.76c0,5.47-4.45,9.92-9.92,9.92h-168.32Z"/><path class="y" d="M302.33,18.72c25.78,0,48.55,12.82,62.33,32.42h20.63c4.93,0,8.92,3.99,8.92,8.92v174.76c0,4.93-3.99,8.92-8.92,8.92h-168.32c-4.93,0-8.92-3.99-8.92-8.92V60.06c0-4.93,3.99-8.92,8.92-8.92h23.04c13.78-19.6,36.55-32.42,62.33-32.42M302.33,16.72c-25.06,0-48.66,12.1-63.36,32.42h-22.01c-6.02,0-10.92,4.9-10.92,10.92v174.76c0,6.02,4.9,10.92,10.92,10.92h168.32c6.02,0,10.92-4.9,10.92-10.92V60.06c0-6.02-4.9-10.92-10.92-10.92h-19.6c-14.69-20.32-38.3-32.42-63.36-32.42h0Z"/><path class="aa" d="M216.97,243.24c-4.64,0-8.42-3.78-8.42-8.42V60.06c0-4.64,3.78-8.42,8.42-8.42h23.3l.15-.21c14.18-20.17,37.33-32.2,61.92-32.2s47.74,12.04,61.92,32.2l.15.21h20.89c4.64,0,8.42,3.78,8.42,8.42v174.76c0,4.64-3.78,8.42-8.42,8.42h-168.32Z"/><path class="ae" d="M302.33,19.72c24.43,0,47.42,11.96,61.51,31.99l.3.42h21.15c4.37,0,7.92,3.55,7.92,7.92v174.76c0,4.37-3.55,7.92-7.92,7.92h-168.32c-4.37,0-7.92-3.55-7.92-7.92V60.06c0-4.37,3.55-7.92,7.92-7.92h23.56l.3-.42c14.09-20.03,37.08-31.99,61.51-31.99M302.33,18.72c-25.78,0-48.55,12.82-62.33,32.42h-23.04c-4.93,0-8.92,3.99-8.92,8.92v174.76c0,4.93,3.99,8.92,8.92,8.92h168.32c4.93,0,8.92-3.99,8.92-8.92V60.06c0-4.93-3.99-8.92-8.92-8.92h-20.63c-13.78-19.6-36.55-32.42-62.33-32.42h0Z"/><circle class="y" cx="302.33" cy="94.87" r="58.48"/><circle class="p" cx="302.33" cy="94.87" r="55.79"/><circle class="x" cx="302.33" cy="94.87" r="49.13"/><line class="g" x1="274.08" y1="204.03" x2="328.17" y2="204.03"/><g class="ah"><path class="o" d="M300.4,125.86c-.35-.14-.68-.3-1-.44v8.79c.96.21,1.95.31,2.93.31v-8.29c-.65,0-1.31-.12-1.92-.37Z"/><path class="o" d="M299.29,136.53c-.31,2.72-1.86,8.91-9.47,10.18-.99.19-1.71,1.06-1.7,2.07v2.48h14.2v-14.44c-1.01,0-2.03-.1-3.03-.29Z"/><path class="o" d="M279.72,76.73c-.13,7.6.78,15.19,2.69,22.55h0c3.46,12.63,9.8,20.85,18.83,24.45.34.14.71.21,1.07.21v-47.2h-22.6Z"/><path class="n" d="M316.52,148.78c.01-1.01-.7-1.88-1.7-2.07-7.59-1.23-9.15-7.44-9.48-10.18-1,.19-2.01.29-3.02.29v14.44h14.2v-2.48Z"/><path class="n" d="M305.27,134.21l-.03-8.79c-.34.15-.66.31-1.01.44-.61.25-1.26.37-1.91.37v8.29c.99,0,1.98-.1,2.95-.31Z"/><path class="n" d="M303.41,123.72c9.04-3.6,15.4-11.82,18.85-24.45,1.91-7.36,2.82-14.94,2.68-22.55h-22.63v47.2c.37,0,.74-.07,1.09-.21Z"/><path class="u" d="M320.27,110.73c14.77-6.14,17.86-21.1,18.49-27.34.18-1.77-1.11-3.35-2.88-3.53-.11-.01-.23-.02-.34-.02h-8.29v-3.38c-.03-1.14-.96-2.06-2.11-2.05h-45.6c-1.13,0-2.07.88-2.11,2.02h0v3.38h-8.31c-1.78,0-3.23,1.43-3.24,3.21,0,.11,0,.23.02.34.64,6.24,3.72,21.24,18.49,27.34,2.89,5.47,6.97,10.34,12.7,13.53v9.21c-.87-.34-1.71-.76-2.49-1.27-.53-.35-1.25-.19-1.59.34-.35.53-.19,1.25.34,1.59,1.16.75,2.41,1.34,3.72,1.78-.14,1.93-1.09,7.41-7.6,8.49-2.14.36-3.7,2.24-3.64,4.41v2.48h-4.84c-.64,0-1.15.52-1.15,1.15s.52,1.15,1.15,1.15h42.67c.64,0,1.15-.52,1.15-1.15s-.52-1.15-1.15-1.15h-4.84v-2.48c.03-2.14-1.51-3.98-3.62-4.34-6.49-1.07-7.46-6.53-7.6-8.49,1.31-.44,2.55-1.04,3.71-1.78.53-.35.69-1.06.34-1.59-.35-.53-1.06-.69-1.59-.34-.78.51-1.61.94-2.49,1.27v-9.21c5.74-3.23,9.81-8.1,12.7-13.57ZM327.17,82.15h8.38c.52.02.92.45.9.97,0,.01,0,.03,0,.04-.56,5.45-3.07,18.08-14.64,24.28,3.9-8.99,5.05-18.89,5.34-25.29h.02ZM268.18,83.16c-.03-.26.06-.51.23-.71.18-.2.44-.31.71-.31h8.38c.29,6.4,1.43,16.3,5.32,25.31-11.52-6.22-14.07-18.86-14.64-24.3ZM282.41,99.27c-1.91-7.36-2.82-14.94-2.69-22.55h45.23c.13,7.6-.77,15.19-2.68,22.55-3.45,12.63-9.81,20.85-18.85,24.45-.69.28-1.47.28-2.16,0-9.04-3.6-15.37-11.82-18.83-24.45h0ZM314.82,146.71c.99.19,1.71,1.06,1.7,2.07v2.48h-28.39v-2.48c0-1.01.71-1.88,1.7-2.07,7.61-1.27,9.16-7.46,9.47-10.18,2,.39,4.05.39,6.04,0,.33,2.74,1.89,8.95,9.48,10.18ZM305.27,134.21c-1.94.42-3.94.42-5.88,0v-8.79c.33.15.66.31,1,.44,1.23.49,2.6.49,3.84,0,.35-.14.67-.3,1-.44l.03,8.79Z"/></g><circle class="m" cx="302.33" cy="94.87" r="49.13"/><line class="g" x1="234.74" y1="176.54" x2="367.51" y2="176.54"/><line class="i" x1="234.74" y1="176.54" x2="308.66" y2="176.54"/><g class="ag"><path class="ac" d="M367.51,171.54c2.76,0,5,2.24,5,5s-2.24,5-5,5h-132.77c-2.76,0-5-2.24-5-5s2.24-5,5-5h132.77M367.51,168.54h-132.77c-4.41,0-8,3.59-8,8s3.59,8,8,8h132.77c4.41,0,8-3.59,8-8s-3.59-8-8-8h0Z"/></g><path class="ad" d="M393.47,15.06c0-.77.7-1.4,1.56-1.4.12-.16,1.46,0,1.7,0,.56.09,1.09.27,1.58.52,1.09.59,2.02,1.39,2.71,2.35,1.86,2.68,3.22,5.61,4.03,8.68.23.72.45,1.45.66,2.17.71,2.43,1.38,5.03,2.08,7.66,2.2,8.6,4.95,19.31,8.93,19.31s6.73-10.71,8.93-19.31c2.83-11.04,5.51-21.45,11.98-21.45s9.15,10.44,11.97,21.45c2.21,8.6,4.95,19.31,8.93,19.31s6.73-10.71,8.94-19.31c2.82-11.04,5.5-21.45,11.97-21.45s9.15,10.44,11.98,21.45c2.21,8.6,4.95,19.31,8.93,19.31h.5c.86,0,1.56.63,1.56,1.4s-.7,1.4-1.56,1.4h-.5c-6.47,0-9.15-10.43-11.97-21.45-2.21-8.6-4.95-19.31-8.94-19.31s-6.72,10.71-8.93,19.31c-2.83,11.05-5.5,21.45-11.98,21.45s-9.14-10.43-11.97-21.45c-2.21-8.6-4.95-19.31-8.93-19.31s-6.73,10.71-8.93,19.31c-2.83,11.05-5.51,21.45-11.98,21.45s-9.15-10.43-11.98-21.45c0,0-1.36-4.38-1.99-6.58-1.89-6.65-4.17-12.69-7.17-12.69h-.5c-.42.01-.82-.12-1.12-.38-.3-.26-.48-.61-.49-.98Z"/><path class="v" d="M113.87,219.53h-5.2v-26s5.2,0,5.2,0v26Z"/><rect class="q" x="98.27" y="208.39" width="5.2" height="11.15"/><rect class="s" x="118.7" y="201.33" width="5.57" height="18.2"/></g></svg>