<?xml version="1.0" encoding="UTF-8"?><svg id="a" xmlns="http://www.w3.org/2000/svg" xmlns:xlink="http://www.w3.org/1999/xlink" viewBox="0 0 355 247"><defs><style>.c{fill:#e7e9ec;}.c,.d,.e,.f,.g,.h,.i,.j,.k,.l,.m,.n,.o,.p,.q{stroke-width:0px;}.d{fill:#639af8;}.e{fill:none;}.f{fill:#3e81f6;}.g{fill:#fcc914;}.h{fill:#bcc0c5;}.i{fill:#acc9fb;}.j{fill:#fde28d;}.k{fill:#e9eaee;}.l{fill:#fcbc00;}.m{fill:#a6dab3;}.r{clip-path:url(#b);}.n{fill:#57b971;}.o{fill:#f8f9fa;}.p{fill:#999fa5;}.q{fill:#2da84f;}</style><clipPath id="b"><rect class="e" x="0" width="355" height="247"/></clipPath></defs><g class="r"><rect class="o" width="355" height="247"/><path class="k" d="M349.13,48.58l-5.47-5.47-32.99,32.99,11.51,11.51,27.01-27.01c3.25-3.3,3.25-8.72-.06-12.02Z"/><path class="k" d="M305.54,82.54c-5.6,0-10.14,4.54-10.14,10.14s4.54,10.14,10.14,10.14,10.14-4.54,10.14-10.14-4.54-10.14-10.14-10.14Z"/><path class="k" d="M349.13,60.54l-5.47,5.47-32.99-32.99,11.51-11.51,27.01,27.01c3.25,3.36,3.25,8.72-.06,12.02Z"/><path class="k" d="M305.54,6.36c-5.6,0-10.14,4.54-10.14,10.14s4.54,10.14,10.14,10.14,10.14-4.54,10.14-10.14-4.54-10.14-10.14-10.14Z"/><path class="k" d="M267.48,66.07l-5.47-5.47c-3.3-3.3-3.3-8.66,0-11.96l27.01-27.01,11.51,11.51-33.04,32.93Z"/><path class="k" d="M267.48,43.11l-5.47,5.47c-3.3,3.3-3.3,8.66,0,11.96l27.01,27.06,11.51-11.51-33.04-32.99Z"/><path class="k" d="M272.29,104.06l11.48-11.48-32.99-32.99-11.48,11.48,32.99,32.99Z"/><path class="k" d="M234.21,44.36c-5.6,0-10.14,4.54-10.14,10.14s4.54,10.14,10.14,10.14,10.14-4.54,10.14-10.14-4.54-10.14-10.14-10.14Z"/><path class="k" d="M283.78,16.45l-5.47-5.47c-3.3-3.3-8.66-3.3-11.96,0l-27.01,27.01,11.45,11.45,32.99-32.99Z"/><path class="k" d="M338.86,4.88l-11.48,11.48,32.99,32.99,11.48-11.48-32.99-32.99Z"/><path class="k" d="M327.36,92.51l5.47,5.47c3.3,3.3,8.66,3.3,11.96,0l27.01-27.01-11.51-11.51-32.93,33.04Z"/><path class="k" d="M334.14,271.79l-5.47-5.47c-3.3-3.3-3.3-8.66,0-11.96l27.01-27.01,11.51,11.51-33.04,32.93Z"/><path class="k" d="M350.44,222.16l-5.47-5.47c-3.3-3.3-8.66-3.3-11.96,0l-27.01,27.01,11.45,11.45,32.99-32.99Z"/><path class="k" d="M382.29,151.47l-5.47-5.47-32.99,32.99,11.51,11.51,27.01-27.01c3.25-3.3,3.25-8.72-.06-12.02Z"/><path class="k" d="M338.7,185.42c-5.6,0-10.14,4.54-10.14,10.14s4.54,10.14,10.14,10.14,10.14-4.54,10.14-10.14-4.54-10.14-10.14-10.14Z"/><path class="k" d="M382.29,163.43l-5.47,5.47-32.99-32.99,11.51-11.51,27.01,27.01c3.25,3.36,3.25,8.72-.06,12.02Z"/><path class="k" d="M338.7,109.25c-5.6,0-10.14,4.54-10.14,10.14s4.54,10.14,10.14,10.14,10.14-4.54,10.14-10.14-4.54-10.14-10.14-10.14Z"/><path class="k" d="M300.64,168.96l-5.47-5.47c-3.3-3.3-3.3-8.66,0-11.96l27.01-27.01,11.51,11.51-33.04,32.93Z"/><path class="k" d="M300.64,146l-5.47,5.47c-3.3,3.3-3.3,8.66,0,11.96l27.01,27.06,11.51-11.51-33.04-32.99Z"/><path class="k" d="M305.45,206.95l11.48-11.48-32.99-32.99-11.48,11.48,32.99,32.99Z"/><path class="k" d="M267.37,147.25c-5.6,0-10.14,4.54-10.14,10.14s4.54,10.14,10.14,10.14,10.14-4.54,10.14-10.14-4.54-10.14-10.14-10.14Z"/><path class="k" d="M316.94,119.33l-5.47-5.47c-3.3-3.3-8.66-3.3-11.96,0l-27.01,27.01,11.45,11.45,32.99-32.99Z"/><path class="k" d="M26.19-20.24l-5.47-5.47L-12.26,7.28-.75,18.78,26.25-8.22c3.25-3.3,3.25-8.72-.06-12.02Z"/><path class="k" d="M4.43,23.68l5.47,5.47c3.3,3.3,8.66,3.3,11.96,0L48.87,2.15l-11.51-11.51L4.43,23.68Z"/><path class="k" d="M92.85,185.47l-5.47-5.47-32.99,32.99,11.51,11.51,27.01-27.01c3.25-3.3,3.25-8.72-.06-12.02Z"/><path class="k" d="M49.27,219.43c-5.6,0-10.14,4.54-10.14,10.14s4.54,10.14,10.14,10.14,10.14-4.54,10.14-10.14-4.54-10.14-10.14-10.14Z"/><path class="k" d="M92.85,197.44l-5.47,5.47-32.99-32.99,11.51-11.51,27.01,27.01c3.25,3.36,3.25,8.72-.06,12.02Z"/><path class="k" d="M49.27,143.26c-5.6,0-10.14,4.54-10.14,10.14s4.54,10.14,10.14,10.14,10.14-4.54,10.14-10.14-4.54-10.14-10.14-10.14Z"/><path class="k" d="M11.21,202.97l-5.47-5.47c-3.3-3.3-3.3-8.66,0-11.96l27.01-27.01,11.51,11.51-33.04,32.93Z"/><path class="k" d="M11.21,180l-5.47,5.47c-3.3,3.3-3.3,8.66,0,11.96l27.01,27.06,11.51-11.51-33.04-32.99Z"/><path class="k" d="M16.02,240.96l11.48-11.48L-5.5,196.48l-11.48,11.48,32.99,32.99Z"/><path class="k" d="M27.5,153.34l-5.47-5.47c-3.3-3.3-8.66-3.3-11.96,0l-27.01,27.01,11.45,11.45,32.99-32.99Z"/><path class="k" d="M82.59,141.77l-11.48,11.48,32.99,32.99,11.48-11.48-32.99-32.99Z"/><path class="k" d="M120.65,181.2c-5.6,0-10.14,4.54-10.14,10.14s4.54,10.14,10.14,10.14,10.14-4.54,10.14-10.14-4.54-10.14-10.14-10.14Z"/><path class="k" d="M71.09,229.4l5.47,5.47c3.3,3.3,8.66,3.3,11.96,0l27.01-27.01-11.51-11.51-32.93,33.04Z"/><path class="k" d="M59.35,82.65l-5.47-5.47-32.99,32.99,11.51,11.51,27.01-27.01c3.25-3.3,3.25-8.72-.06-12.02Z"/><path class="k" d="M15.77,116.6c-5.6,0-10.14,4.54-10.14,10.14s4.54,10.14,10.14,10.14,10.14-4.54,10.14-10.14-4.54-10.14-10.14-10.14Z"/><path class="k" d="M59.35,94.61l-5.47,5.47-32.99-32.99,11.51-11.51,27.01,27.01c3.25,3.36,3.25,8.72-.06,12.02Z"/><path class="k" d="M15.77,40.43c-5.6,0-10.14,4.54-10.14,10.14s4.54,10.14,10.14,10.14,10.14-4.54,10.14-10.14-4.54-10.14-10.14-10.14Z"/><path class="k" d="M-22.29,100.14l-5.47-5.47c-3.3-3.3-3.3-8.66,0-11.96L-.75,55.7l11.51,11.51-33.04,32.93Z"/><path class="k" d="M-22.29,77.18l-5.47,5.47c-3.3,3.3-3.3,8.66,0,11.96L-.75,121.67l11.51-11.51-33.04-32.99Z"/><path class="k" d="M49.09,38.94l-11.48,11.48,32.99,32.99,11.48-11.48-32.99-32.99Z"/><path class="k" d="M87.15,78.37c-5.6,0-10.14,4.54-10.14,10.14s4.54,10.14,10.14,10.14,10.14-4.54,10.14-10.14-4.54-10.14-10.14-10.14Z"/><path class="k" d="M37.59,126.57l5.47,5.47c3.3,3.3,8.66,3.3,11.96,0l27.01-27.01-11.51-11.51-32.93,33.04Z"/><path class="k" d="M187.66,14.61l-5.47-5.47-32.99,32.99,11.51,11.51,27.01-27.01c3.25-3.3,3.25-8.72-.06-12.02Z"/><path class="k" d="M144.08,48.57c-5.6,0-10.14,4.54-10.14,10.14s4.54,10.14,10.14,10.14,10.14-4.54,10.14-10.14-4.54-10.14-10.14-10.14Z"/><path class="k" d="M187.66,26.57l-5.47,5.47L149.2-.94l11.51-11.51,27.01,27.01c3.25,3.36,3.25,8.72-.06,12.02Z"/><path class="k" d="M106.02,32.1l-5.47-5.47c-3.3-3.3-3.3-8.66,0-11.96l27.01-27.01,11.51,11.51-33.04,32.93Z"/><path class="k" d="M106.02,9.14l-5.47,5.47c-3.3,3.3-3.3,8.66,0,11.96l27.01,27.06,11.51-11.51L106.02,9.14Z"/><path class="k" d="M110.82,70.09l11.48-11.48-32.99-32.99-11.48,11.48,32.99,32.99Z"/><path class="k" d="M72.75,10.39c-5.6,0-10.14,4.54-10.14,10.14s4.54,10.14,10.14,10.14,10.14-4.54,10.14-10.14-4.54-10.14-10.14-10.14Z"/><path class="k" d="M122.31-17.52l-5.47-5.47c-3.3-3.3-8.66-3.3-11.96,0l-27.01,27.01,11.45,11.45,32.99-32.99Z"/><path class="k" d="M177.4-29.09l-11.48,11.48,32.99,32.99,11.48-11.48-32.99-32.99Z"/><path class="k" d="M215.46,10.34c-5.6,0-10.14,4.54-10.14,10.14s4.54,10.14,10.14,10.14,10.14-4.54,10.14-10.14-4.54-10.14-10.14-10.14Z"/><path class="k" d="M165.9,58.54l5.47,5.47c3.3,3.3,8.66,3.3,11.96,0l27.01-27.01-11.51-11.51-32.93,33.04Z"/><path class="k" d="M254.32,220.33l-5.47-5.47-32.99,32.99,11.51,11.51,27.01-27.01c3.25-3.3,3.25-8.72-.06-12.02Z"/><path class="k" d="M254.32,232.29l-5.47,5.47-32.99-32.99,11.51-11.51,27.01,27.01c3.25,3.36,3.25,8.72-.06,12.02Z"/><path class="k" d="M210.73,178.11c-5.6,0-10.14,4.54-10.14,10.14s4.54,10.14,10.14,10.14,10.14-4.54,10.14-10.14-4.54-10.14-10.14-10.14Z"/><path class="k" d="M172.67,237.82l-5.47-5.47c-3.3-3.3-3.3-8.66,0-11.96l27.01-27.01,11.51,11.51-33.04,32.93Z"/><path class="k" d="M172.67,214.86l-5.47,5.47c-3.3,3.3-3.3,8.66,0,11.96l27.01,27.06,11.51-11.51-33.04-32.99Z"/><path class="k" d="M177.48,275.81l11.48-11.48-32.99-32.99-11.48,11.48,32.99,32.99Z"/><path class="k" d="M139.4,216.11c-5.6,0-10.14,4.54-10.14,10.14s4.54,10.14,10.14,10.14,10.14-4.54,10.14-10.14-4.54-10.14-10.14-10.14Z"/><path class="k" d="M188.97,188.19l-5.47-5.47c-3.3-3.3-8.66-3.3-11.96,0l-27.01,27.01,11.45,11.45,32.99-32.99Z"/><path class="k" d="M244.05,176.62l-11.48,11.48,32.99,32.99,11.48-11.48-32.99-32.99Z"/><path class="k" d="M282.12,216.05c-5.6,0-10.14,4.54-10.14,10.14s4.54,10.14,10.14,10.14,10.14-4.54,10.14-10.14-4.54-10.14-10.14-10.14Z"/><path class="k" d="M232.55,264.25l5.47,5.47c3.3,3.3,8.66,3.3,11.96,0l27.01-27.01-11.51-11.51-32.93,33.04Z"/><path class="h" d="M220.82,129.23l-5.47,5.47-32.99-32.99,11.45-11.45,27.01,27.01c3.3,3.3,3.3,8.66,0,11.96Z"/><path class="p" d="M177.23,95.33c5.6,0,10.14-4.54,10.14-10.14s-4.54-10.14-10.14-10.14-10.14,4.54-10.14,10.14,4.54,10.14,10.14,10.14Z"/><path class="d" d="M220.82,117.26l-5.47-5.47-33.04,32.99,11.51,11.51,27.01-27.01c3.3-3.36,3.3-8.72,0-12.02Z"/><path class="f" d="M177.23,171.44c5.6,0,10.14-4.54,10.14-10.14s-4.54-10.14-10.14-10.14-10.14,4.54-10.14,10.14,4.54,10.14,10.14,10.14Z"/><path class="i" d="M139.18,111.79l-5.47,5.47c-3.3,3.3-3.3,8.66,0,11.96l27.01,27.01,11.51-11.45-33.04-32.99Z"/><path class="c" d="M139.18,134.7l-5.47-5.47c-3.3-3.3-3.3-8.66,0-11.96l27.01-27.01,11.51,11.51-33.04,32.93Z"/><path class="m" d="M110.96,106.79l11.48,11.48,32.99-32.99-11.48-11.48-32.99,32.99Z"/><path class="q" d="M105.9,133.44c5.6,0,10.14-4.54,10.14-10.14s-4.54-10.14-10.14-10.14-10.14,4.54-10.14,10.14,4.54,10.14,10.14,10.14Z"/><path class="n" d="M155.47,161.36l-5.47,5.47c-3.3,3.3-8.66,3.3-11.96,0l-27.01-27.01,11.51-11.51,32.93,33.04Z"/><path class="j" d="M243.56,139.93l-11.48-11.48-32.99,32.99,11.48,11.48,32.99-32.99Z"/><path class="l" d="M248.62,133.56c5.6,0,10.14-4.54,10.14-10.14s-4.54-10.14-10.14-10.14-10.14,4.54-10.14,10.14,4.54,10.14,10.14,10.14Z"/><path class="g" d="M199.05,85.36l5.47-5.47c3.3-3.3,8.66-3.3,11.96,0l27.01,27.01-11.51,11.51-32.93-33.04Z"/></g></svg>