<svg width="1439px" height="160px" viewBox="0 0 1439 160" version="1.1" xmlns="http://www.w3.org/2000/svg" xmlns:xlink="http://www.w3.org/1999/xlink">
    <g id="Symbols" stroke="none" stroke-width="1" fill="none" fill-rule="evenodd">
        <g id="topics-template_header-v2" transform="translate(-1.000000, 0.000000)" fill-rule="nonzero">
            <g>
                <polygon id="Path" fill="#F5F5F7" points="0.999306037 39.3292098 40.7816794 39.3292098 40.7816794 79.8157479 280.675087 79.8157479 280.675087 120.282332 840.416378 120.282332 840.416378 159.631496 1200.6662 159.631496 1200.6662 120.22247 1320.58293 120.22247 1320.58293 80.3145963 1400.52741 80.3145963 1400.56738 39.4788643 1440 39.4788643 1440 0 0.999306037 0"></polygon>
                <polygon id="Path" fill="#E8F0FE" points="280.675087 79.8157479 280.675087 120.282332 320.177654 120.282332 320.177654 39.3092559 360.209854 39.3092559 360.209854 0 0.999306037 0 0.999306037 39.3292098 40.7816794 39.3292098 40.7716863 79.8157479"></polygon>
                <path d="M1400.56738,39.4788643 L1360.66509,39.4788643 L1360.66509,39.4090255 L1360.55517,39.4090255 L1360.55517,0 L1359.55586,0 L1359.55586,39.4090255 L1320.58293,39.4090255 L1320.58293,0 L1319.58362,0 L1319.58362,39.4090255 L1280.61069,39.4090255 L1280.61069,0 L1279.61138,0 L1279.61138,39.4090255 L1240.63845,39.4090255 L1240.63845,0 L1239.63914,0 L1239.63914,39.4090255 L1200.6662,39.4090255 L1200.6662,0 L1199.6669,0 L1199.6669,39.4090255 L1160.69396,39.4090255 L1160.69396,0 L1159.69466,0 L1159.69466,39.4090255 L1120.72172,39.4090255 L1120.72172,0 L1119.72241,0 L1119.72241,39.4090255 L1080.74948,39.4090255 L1080.74948,0 L1079.75017,0 L1079.75017,39.4090255 L1040.77724,39.4090255 L1040.77724,0 L1039.77793,0 L1039.77793,39.4090255 L1000.805,39.4090255 L1000.805,0 L999.80569,0 L999.80569,39.4090255 L960.832755,39.4090255 L960.832755,0 L959.833449,0 L959.833449,39.4090255 L920.860514,39.4090255 L920.860514,0 L919.861207,0 L919.861207,39.4090255 L919.861207,39.4090255 L919.861207,40.4067224 L919.861207,40.4067224 L919.861207,79.3168995 L880.888272,79.3168995 L880.888272,79.3168995 L879.888966,79.3168995 L879.888966,79.3168995 L879.799028,79.3168995 L879.799028,80.3145963 L879.888966,80.3145963 L879.888966,119.224773 L879.799028,119.224773 L879.799028,120.22247 L879.888966,120.22247 L879.888966,159.631496 L880.888272,159.631496 L880.888272,120.22247 L919.861207,120.22247 L919.861207,159.631496 L920.860514,159.631496 L920.860514,120.22247 L959.833449,120.22247 L959.833449,159.631496 L960.832755,159.631496 L960.832755,120.22247 L999.80569,120.22247 L999.80569,159.631496 L1000.805,159.631496 L1000.805,120.22247 L1039.77793,120.22247 L1039.77793,159.631496 L1040.77724,159.631496 L1040.77724,120.22247 L1079.75017,120.22247 L1079.75017,159.631496 L1080.74948,159.631496 L1080.74948,120.22247 L1119.72241,120.22247 L1119.72241,159.631496 L1120.72172,159.631496 L1120.72172,120.22247 L1159.69466,120.22247 L1159.69466,159.631496 L1160.69396,159.631496 L1160.69396,120.22247 L1199.6669,120.22247 L1199.6669,159.631496 L1200.6662,159.631496 L1200.6662,120.22247 L1320.58293,120.22247 L1320.58293,80.3145963 L1400.52741,80.3145963 L1400.56738,39.4788643 Z M919.90118,119.224773 L880.928244,119.224773 L880.928244,80.3145963 L919.90118,80.3145963 L919.90118,119.224773 Z M959.873421,119.224773 L920.900486,119.224773 L920.900486,80.3145963 L959.873421,80.3145963 L959.873421,119.224773 Z M959.873421,79.3168995 L920.900486,79.3168995 L920.900486,40.4067224 L959.873421,40.4067224 L959.873421,79.3168995 Z M999.845663,119.224773 L960.872727,119.224773 L960.872727,80.3145963 L999.845663,80.3145963 L999.845663,119.224773 Z M999.845663,79.3168995 L960.872727,79.3168995 L960.872727,40.4067224 L999.845663,40.4067224 L999.845663,79.3168995 Z M1039.8179,119.224773 L1000.84497,119.224773 L1000.84497,80.3145963 L1039.8179,80.3145963 L1039.8179,119.224773 Z M1039.8179,79.3168995 L1000.84497,79.3168995 L1000.84497,40.4067224 L1039.8179,40.4067224 L1039.8179,79.3168995 Z M1079.79015,119.224773 L1040.81721,119.224773 L1040.81721,80.3145963 L1079.79015,80.3145963 L1079.79015,119.224773 Z M1079.79015,79.3168995 L1040.81721,79.3168995 L1040.81721,40.4067224 L1079.79015,40.4067224 L1079.79015,79.3168995 Z M1119.76239,119.224773 L1080.78945,119.224773 L1080.78945,80.3145963 L1119.76239,80.3145963 L1119.76239,119.224773 Z M1119.76239,79.3168995 L1080.78945,79.3168995 L1080.78945,40.4067224 L1119.76239,40.4067224 L1119.76239,79.3168995 Z M1159.73463,119.224773 L1120.76169,119.224773 L1120.76169,80.3145963 L1159.73463,80.3145963 L1159.73463,119.224773 Z M1159.73463,79.3168995 L1120.76169,79.3168995 L1120.76169,40.4067224 L1159.73463,40.4067224 L1159.73463,79.3168995 Z M1199.70687,119.224773 L1160.73393,119.224773 L1160.73393,80.3145963 L1199.70687,80.3145963 L1199.70687,119.224773 Z M1199.70687,79.3168995 L1160.73393,79.3168995 L1160.73393,40.4067224 L1199.70687,40.4067224 L1199.70687,79.3168995 Z M1239.67911,119.224773 L1200.70618,119.224773 L1200.70618,80.3145963 L1239.67911,80.3145963 L1239.67911,119.224773 Z M1239.67911,79.3168995 L1200.70618,79.3168995 L1200.70618,40.4067224 L1239.67911,40.4067224 L1239.67911,79.3168995 Z M1279.65135,119.224773 L1240.67842,119.224773 L1240.67842,80.3145963 L1279.65135,80.3145963 L1279.65135,119.224773 Z M1279.65135,79.3168995 L1240.67842,79.3168995 L1240.67842,40.4067224 L1279.65135,40.4067224 L1279.65135,79.3168995 Z M1319.62359,119.224773 L1280.65066,119.224773 L1280.65066,80.3145963 L1319.62359,80.3145963 L1319.62359,119.224773 Z M1319.62359,79.3168995 L1280.65066,79.3168995 L1280.65066,40.4067224 L1319.62359,40.4067224 L1319.62359,79.3168995 Z M1359.59584,79.3168995 L1320.6229,79.3168995 L1320.6229,40.4067224 L1359.59584,40.4067224 L1359.59584,79.3168995 Z M1399.56808,79.3168995 L1360.59514,79.3168995 L1360.59514,40.4067224 L1399.56808,40.4067224 L1399.56808,79.3168995 Z" id="Shape" fill="#FFFFFF"></path>
                <polygon id="Path" fill="#FFFFFF" points="0.999306037 0 0.999306037 39.3292098 0.999306037 79.8157479"></polygon>
                <path d="M320.277585,120.22247 L320.277585,120.282332 L360.249827,120.22247 L360.249827,120.282332 L361.249133,120.282332 L361.249133,120.22247 L400.222068,120.22247 L400.222068,120.282332 L401.221374,120.282332 L401.221374,120.22247 L440.19431,120.22247 L440.19431,120.282332 L441.193616,120.282332 L441.193616,120.22247 L480.166551,120.22247 L480.166551,120.282332 L481.165857,120.282332 L481.165857,120.22247 L520.138793,120.22247 L520.138793,120.282332 L521.138099,120.282332 L521.138099,120.22247 L560.111034,120.22247 L560.111034,120.282332 L561.11034,120.282332 L561.11034,120.22247 L600.083276,120.22247 L600.083276,120.282332 L601.082582,120.282332 L601.082582,120.22247 L640.055517,120.22247 L640.055517,120.282332 L641.054823,120.282332 L641.054823,120.22247 L680.027759,120.22247 L680.027759,120.282332 L681.027065,120.282332 L681.027065,120.22247 L720.999306,120.282332 L720.999306,80.3145963 L720.999306,80.3145963 L720.999306,79.3168995 L720.999306,79.3168995 L720.999306,79.3168995 L720,79.3168995 L720,79.3168995 L681.027065,79.3168995 L681.027065,79.3168995 L680.027759,79.3168995 L680.027759,79.3168995 L641.054823,79.3168995 L641.054823,40.4067224 L641.134768,40.4067224 L641.134768,39.4090255 L641.054823,39.4090255 L641.054823,0 L640.055517,0 L640.055517,39.4090255 L601.082582,39.4090255 L601.082582,0 L600.083276,0 L600.083276,39.4090255 L561.11034,39.4090255 L561.11034,0 L560.111034,0 L560.111034,39.4090255 L521.138099,39.4090255 L521.138099,0 L520.138793,0 L520.138793,39.4090255 L481.165857,39.4090255 L481.165857,0 L480.166551,0 L480.166551,39.4090255 L441.193616,39.4090255 L441.193616,0 L440.19431,0 L440.19431,39.4090255 L401.221374,39.4090255 L401.221374,0 L400.222068,0 L400.222068,39.4090255 L361.249133,39.4090255 L361.249133,0 L360.249827,0 L360.249827,39.4090255 L321.276891,39.4090255 L321.276891,39.3092559 L320.277585,39.3092559 L320.277585,39.4090255 L320.177654,39.4090255 L320.177654,40.4067224 L320.277585,40.4067224 L320.277585,79.3168995 L320.177654,79.3168995 L320.177654,80.3145963 L320.277585,80.3145963 L320.277585,120.22247 Z M681.027065,80.3145963 L720,80.3145963 L720,119.224773 L681.027065,119.224773 L681.027065,80.3145963 Z M641.054823,80.3145963 L680.027759,80.3145963 L680.027759,119.224773 L641.054823,119.224773 L641.054823,80.3145963 Z M601.082582,40.4067224 L640.055517,40.4067224 L640.055517,79.3168995 L601.082582,79.3168995 L601.082582,40.4067224 Z M601.082582,80.3145963 L640.055517,80.3145963 L640.055517,119.224773 L601.082582,119.224773 L601.082582,80.3145963 Z M561.11034,40.4067224 L600.083276,40.4067224 L600.083276,79.3168995 L561.11034,79.3168995 L561.11034,40.4067224 Z M561.11034,80.3145963 L600.083276,80.3145963 L600.083276,119.224773 L561.11034,119.224773 L561.11034,80.3145963 Z M521.138099,40.4067224 L560.111034,40.4067224 L560.111034,79.3168995 L521.138099,79.3168995 L521.138099,40.4067224 Z M521.138099,80.3145963 L560.111034,80.3145963 L560.111034,119.224773 L521.138099,119.224773 L521.138099,80.3145963 Z M481.165857,40.4067224 L520.138793,40.4067224 L520.138793,79.3168995 L481.165857,79.3168995 L481.165857,40.4067224 Z M481.165857,80.3145963 L520.138793,80.3145963 L520.138793,119.224773 L481.165857,119.224773 L481.165857,80.3145963 Z M441.193616,40.4067224 L480.166551,40.4067224 L480.166551,79.3168995 L441.193616,79.3168995 L441.193616,40.4067224 Z M441.193616,80.3145963 L480.166551,80.3145963 L480.166551,119.224773 L441.193616,119.224773 L441.193616,80.3145963 Z M401.221374,40.4067224 L440.19431,40.4067224 L440.19431,79.3168995 L401.221374,79.3168995 L401.221374,40.4067224 Z M401.221374,80.3145963 L440.19431,80.3145963 L440.19431,119.224773 L401.221374,119.224773 L401.221374,80.3145963 Z M361.249133,40.4067224 L400.222068,40.4067224 L400.222068,79.3168995 L361.249133,79.3168995 L361.249133,40.4067224 Z M361.249133,80.3145963 L400.222068,80.3145963 L400.222068,119.224773 L361.249133,119.224773 L361.249133,80.3145963 Z M321.276891,40.4067224 L360.249827,40.4067224 L360.249827,79.3168995 L321.276891,79.3168995 L321.276891,40.4067224 Z M321.276891,80.3145963 L360.249827,80.3145963 L360.249827,119.224773 L321.276891,119.224773 L321.276891,80.3145963 Z" id="Shape" fill="#FFFFFF"></path>
                <rect id="Rectangle" fill="#FCC934" x="1320.58293" y="0" width="119.417071" height="39.4788643"></rect>
                <rect id="Rectangle" fill="#FCC934" opacity="0.3" x="420.607911" y="0" width="151.914504" height="10.146577"></rect>
                <rect id="Rectangle" fill="#FCC934" opacity="0.3" x="420.607911" y="22.168824" width="124.543511" height="18.0682899"></rect>
                <rect id="Rectangle" fill="#FCC934" opacity="0.3" x="420.607911" y="52.2693379" width="138.813602" height="18.0682899"></rect>
                <path d="M391.658015,41.2348108 L411.714087,41.2348108 L411.714087,21.1711271 L391.658015,21.1711271 L391.658015,41.2348108 Z M393.656627,23.1665208 L409.715475,23.1665208 L409.715475,39.2394171 L393.656627,39.2394171 L393.656627,23.1665208 Z" id="Shape" fill="#FCC934"></path>
                <path d="M391.658015,71.3353247 L411.714087,71.3353247 L411.714087,51.2716411 L391.658015,51.2716411 L391.658015,71.3353247 Z M402.430534,61.3583562 L409.715475,53.9853765 L409.715475,68.6914281 L402.430534,61.3583562 Z M408.995975,69.339931 L394.506037,69.339931 L401.721027,62.066721 L408.995975,69.339931 Z M401.721027,60.6599684 L394.336155,53.2670348 L409.055933,53.2670348 L401.721027,60.6599684 Z M401.01152,61.3683332 L393.646634,68.7812208 L393.646634,53.9953535 L401.01152,61.3683332 Z" id="Shape" fill="#FCC934"></path>
                <path d="M409.715475,0 L409.715475,8.50037715 L402.390562,1.16730531 L403.589729,0 L402.180708,0 L401.721027,0.458940551 L401.271339,0 L399.852325,0 L401.021513,1.16730531 L393.656627,8.59016987 L393.656627,0 L391.658015,0 L391.658015,11.1442738 L411.714087,11.1442738 L411.714087,0 L409.715475,0 Z M394.506037,9.14888011 L401.721027,1.87567008 L408.985982,9.14888011 L394.506037,9.14888011 Z" id="Shape" fill="#FCC934"></path>
                <path d="M840.416378,120.22247 L840.416378,139.17871 L1085.86593,139.17871 C1081.42901,117.22938 1059.03456,100.557865 1032.0433,100.557865 C1025.69467,100.54868 1019.38108,101.49722 1013.31631,103.371371 C1007.21055,75.8648684 980.059403,55.1227509 947.482026,55.1227509 C936.204179,55.0875794 925.071207,57.658894 914.954615,62.6354082 C899.315475,30.5594545 864.089938,8.18111416 823.098404,8.18111416 C785.04483,8.18111416 751.937821,27.4665943 734.879667,55.9009544 C731.064212,55.3835289 727.218154,55.1235381 723.367661,55.1227509 C682.805829,55.1227509 649.678834,84.235545 647.620264,120.22247 L840.416378,120.22247 Z" id="Path" fill="#D2E3FC"></path>
                <path d="M981.318529,69.2002534 C980.129355,69.1304147 978.94018,69.0905068 977.73102,69.0905068 C955.16669,69.0905068 935.520333,80.5340897 925.407356,97.3951664 C923.145069,97.0903718 920.864889,96.9370492 918.582096,96.9362258 C893.729355,96.9362258 873.613324,115.034447 873.613324,137.362902 C873.618076,140.545803 874.034568,143.714763 874.852464,146.791137 L981.318529,146.791137 L981.318529,69.2002534 Z" id="Path" fill="#4285F4"></path>
                <path d="M1250.27176,120.22247 L1250.27176,42.1526919 C1250.27176,38.8466153 1247.58733,36.1665108 1244.27592,36.1665108 L1244.27592,36.1665108 L1067.87842,36.096672 C1062.50518,36.0911727 1058.15069,31.7436894 1058.14518,26.3791047 C1058.13967,22.1165448 1054.67998,18.6624276 1050.41055,18.6569311 L989.312977,18.6569311 C986.001568,18.6569311 983.317141,21.3370356 983.317141,24.6431122 L983.317141,159.631496 L1200.6662,159.631496 L1200.6662,120.22247 L1250.27176,120.22247 Z" id="Path" fill="#A7C6FA"></path>
                <path d="M1264.58182,120.22247 L1273.34573,64.1718613 C1273.30199,60.8969967 1270.63033,58.265496 1267.3499,58.265496 L1252.25038,58.265496 L1252.25038,120.22247 L1264.58182,120.22247 Z" id="Path" fill="#D2E3FC"></path>
                <path d="M1244.28591,36.1764877 C1247.59732,36.1764877 1250.28175,38.8565923 1250.28175,42.1626688 L1250.28175,120.22247 L1252.28036,120.22247 L1252.28036,58.265496 L1267.37988,58.265496 C1270.66031,58.2652048 1273.33197,60.8969967 1273.37571,64.1718613 L1264.6118,120.22247 L1266.61041,120.22247 L1275.32436,64.3514468 L1275.32436,64.2017922 C1275.32436,59.7936902 1271.74512,56.2202174 1267.32991,56.2202174 L1252.2304,56.2202174 L1252.2304,42.1526919 C1252.2304,37.7445898 1248.65116,34.1711171 1244.23595,34.1711171 L1067.83845,34.1012783 C1063.56901,34.0957818 1060.10932,30.6416646 1060.10382,26.3791047 C1060.09831,21.01452 1055.74381,16.6670367 1050.37058,16.6615374 L989.312977,16.6615374 C984.897765,16.6615374 981.318529,20.2350101 981.318529,24.6431122 L981.318529,159.631496 L983.317141,159.631496 L983.317141,24.6431122 C983.317141,21.3370356 986.001568,18.6569311 989.312977,18.6569311 L1050.40056,18.6569311 C1054.66999,18.6624276 1058.12968,22.1165448 1058.13518,26.3791047 C1058.14069,31.7436894 1062.49519,36.0911727 1067.86842,36.096672 L1244.26593,36.1665108 L1244.28591,36.1764877 Z" id="Path" fill="#4285F4"></path>
                <path d="M983.317141,146.791137 L1133.46287,146.791137 C1130.8347,133.821078 1117.55392,123.84411 1101.54504,123.84411 C1097.78127,123.836984 1094.0381,124.398733 1090.44275,125.510264 C1086.81527,109.19792 1070.71645,96.896318 1051.38987,96.896318 C1044.70322,96.873931 1038.10212,98.396912 1032.10326,101.346046 C1023.5592,83.8264893 1005.122,71.1956471 983.317141,69.3000231 L983.317141,146.791137 Z" id="Path" fill="#D2E3FC"></path>
                <path d="M1139.8984,91.5885707 L1118.43331,70.1580424 L1118.43331,70.1580424 L1117.02429,68.7512899 L1115.60527,70.1580424 L1115.60527,70.1580424 L1094.14018,91.5885707 C1093.35924,92.3682538 1093.35924,93.6323698 1094.14018,94.4120528 C1094.92112,95.1917359 1096.18728,95.1917359 1096.96822,94.4120528 L1115.02568,76.3836708 L1115.02568,137.133432 C1115.02568,138.235457 1115.92049,139.128826 1117.02429,139.128826 C1118.12809,139.128826 1119.0229,138.235457 1119.0229,137.133432 L1119.0229,76.3836708 L1137.07037,94.4120528 C1137.85131,95.1917359 1139.11746,95.1917359 1139.8984,94.4120528 C1140.67934,93.6323698 1140.67934,92.3682538 1139.8984,91.5885707 Z" id="Path" fill="#4285F4"></path>
                <polygon id="Path" fill="#4285F4" points="120.086607 0.039907874 120.086607 0 0.999306037 0 0.999306037 39.3292098 40.551839 39.3292098 40.551839 39.3691177 40.7816794 39.3691177 40.7816794 79.8157479 119.846773 79.8456788 119.846773 39.3691177 159.629146 39.3691177 159.629146 0.039907874"></polygon>
            </g>
        </g>
    </g>
</svg>
