<svg xmlns="http://www.w3.org/2000/svg" width="488" height="344" viewBox="0 0 488 344" fill="none">
  <rect x="438.5" y="98.5" width="49" height="49" stroke="#3c4043"/>
  <rect x="438.5" y="147.5" width="49" height="49" stroke="#3c4043"/>
  <rect x="389.5" y="98.5" width="49" height="49" stroke="#3c4043"/>
  <rect x="389.5" y="147.5" width="49" height="49" stroke="#3c4043"/>
  <rect x="389.5" y="49.5" width="49" height="49" stroke="#3c4043"/>
  <rect x="340.5" y="49.5" width="49" height="49" stroke="#3c4043"/>
  <rect x="340.5" y="0.5" width="49" height="49" stroke="#3c4043"/>
  <rect x="291.5" y="0.5" width="49" height="49" stroke="#3c4043"/>
  <rect x="291.5" y="294.5" width="49" height="49" stroke="#3c4043"/>
  <rect x="340.5" y="245.5" width="49" height="49" stroke="#3c4043"/>
  <rect x="438.5" y="196.5" width="49" height="49" stroke="#3c4043"/>
  <rect x="389.5" y="196.5" width="49" height="49" stroke="#3c4043"/>
  <rect x="389.5" y="245.5" width="49" height="49" stroke="#3c4043"/>
  <rect x="340.5" y="294.5" width="49" height="49" stroke="#3c4043"/>
  <rect x="438.5" y="49.5" width="49" height="49" fill="#8ab4f8" stroke="#8ab4f8"/>
  <rect x="438.5" y="0.5" width="49" height="49" fill="#8ab4f8" stroke="#8ab4f8"/>
  <rect x="389.5" y="0.5" width="49" height="49" fill="#8ab4f8" stroke="#8ab4f8"/>
  <rect x="438.5" y="294.5" width="49" height="49" fill="#fdd663" stroke="#fdd663"/>
  <rect x="438.5" y="245.5" width="49" height="49" fill="#fdd663" stroke="#fdd663"/>
  <rect x="389.5" y="294.5" width="49" height="49" fill="#fdd663" stroke="#fdd663"/>
</svg>