<svg xmlns="http://www.w3.org/2000/svg" width="488" height="344" viewBox="0 0 488 344" fill="none">
  <rect x="438.5" y="98.5" width="49" height="49" stroke="#e8eaed"/>
  <rect x="438.5" y="147.5" width="49" height="49" stroke="#e8eaed"/>
  <rect x="389.5" y="98.5" width="49" height="49" stroke="#e8eaed"/>
  <rect x="389.5" y="147.5" width="49" height="49" stroke="#e8eaed"/>
  <rect x="389.5" y="49.5" width="49" height="49" stroke="#e8eaed"/>
  <rect x="340.5" y="49.5" width="49" height="49" stroke="#e8eaed"/>
  <rect x="340.5" y="0.5" width="49" height="49" stroke="#e8eaed"/>
  <rect x="291.5" y="0.5" width="49" height="49" stroke="#e8eaed"/>
  <rect x="438.5" y="49.5" width="49" height="49" fill="#4285f4" stroke="#4285f4"/>
  <rect x="438.5" y="0.5" width="49" height="49" fill="#4285f4" stroke="#4285f4"/>
  <rect x="389.5" y="0.5" width="49" height="49" fill="#4285f4" stroke="#4285f4"/>
  <rect x="291.5" y="294.5" width="49" height="49" stroke="#e8eaed"/>
  <rect x="438.5" y="245.5" width="49" height="49" fill="#fbbc04" stroke="#fbbc04"/>
  <rect x="340.5" y="245.5" width="49" height="49" stroke="#e8eaed"/>
  <rect x="438.5" y="196.5" width="49" height="49" stroke="#e8eaed"/>
  <rect x="389.5" y="196.5" width="49" height="49" stroke="#e8eaed"/>
  <rect x="389.5" y="245.5" width="49" height="49" stroke="#e8eaed"/>
  <rect x="438.5" y="294.5" width="49" height="49" fill="#fbbc04" stroke="#fbbc04"/>
  <rect x="389.5" y="294.5" width="49" height="49" fill="#fbbc04" stroke="#fbbc04"/>
  <rect x="340.5" y="294.5" width="49" height="49" stroke="#e8eaed"/>
  <rect x="49.5" y="49.5" width="49" height="49" transform="rotate(-180 49.5 49.5)" stroke="#e8eaed"/>
  <rect x="98.5" y="49.5" width="49" height="49" transform="rotate(-180 98.5 49.5)" stroke="#e8eaed"/>
  <rect x="147.5" y="49.5" width="49" height="49" transform="rotate(-180 147.5 49.5)" stroke="#e8eaed"/>
  <rect x="0.5" y="294.5" width="49" height="49" fill="#d2e3fc" stroke="#d2e3fc"/>
  <rect x="98.5" y="294.5" width="49" height="49" fill="#d2e3fc" stroke="#d2e3fc"/>
  <rect x="49.5" y="294.5" width="49" height="49" fill="#d2e3fc" stroke="#d2e3fc"/>
</svg>