<?xml version="1.0" encoding="UTF-8"?><svg id="Illos" xmlns="http://www.w3.org/2000/svg" xmlns:xlink="http://www.w3.org/1999/xlink" viewBox="0 0 1520 74"><defs><style>.cls-1,.cls-2,.cls-3,.cls-4,.cls-5,.cls-6,.cls-7,.cls-8{fill:none;}.cls-2,.cls-3{stroke-width:3px;}.cls-2,.cls-3,.cls-4,.cls-5,.cls-6,.cls-7,.cls-8{stroke-miterlimit:10;}.cls-2,.cls-4{stroke:#34a753;}.cls-3{stroke:#cde9d5;}.cls-9{clip-path:url(#clippath);}.cls-10{fill:#e7e9ec;}.cls-11{fill:#cde9d5;}.cls-12{fill:#a7d9b4;}.cls-13{fill:#34a753;}.cls-4{stroke-width:5px;}.cls-5{stroke-width:1.4px;}.cls-5,.cls-6,.cls-7,.cls-8{stroke:#e7e9ec;}.cls-14{clip-path:url(#clippath-1);}.cls-15{clip-path:url(#clippath-4);}.cls-16{clip-path:url(#clippath-3);}.cls-17{clip-path:url(#clippath-2);}.cls-6{stroke-width:2px;}.cls-8{stroke-width:1.2px;}</style><clipPath id="clippath"><rect class="cls-1" x="327.33" y="0" width="1153.34" height="73"/></clipPath><clipPath id="clippath-1"><polygon class="cls-1" points="1219.68 -2.5 1038.21 -2.5 1038.21 35.23 1038.21 72.97 1219.68 72.97 1401.15 72.97 1401.15 35.23 1401.15 -2.5 1219.68 -2.5"/></clipPath><clipPath id="clippath-2"><polygon class="cls-1" points="1038.21 -.43 1038.21 36.27 1038.21 72.97 1129.9 72.97 1129.9 36.27 1129.9 -.43 1038.21 -.43"/></clipPath><clipPath id="clippath-3"><circle class="cls-1" cx="1084.05" cy="36.85" r="43.03"/></clipPath><clipPath id="clippath-4"><polygon class="cls-1" points="940.23 -3.47 1012.28 -3.47 1012.28 34.26 1012.28 72 940.23 72 868.17 72 868.17 34.26 868.17 -3.47 940.23 -3.47"/></clipPath></defs><g class="cls-9"><g><g><g><path class="cls-10" d="M471.5,1V36h-35V1h35m.5-.5h-36V36.5h36V.5h0Z"/><path class="cls-10" d="M507.5,1V36h-35V1h35m.5-.5h-36V36.5h36V.5h0Z"/><path class="cls-10" d="M543.5,1V36h-35V1h35m.5-.5h-36V36.5h36V.5h0Z"/><path class="cls-10" d="M399.5,1V36h-35V1h35m.5-.5h-36V36.5h36V.5h0Z"/><path class="cls-10" d="M435.5,1V36h-35V1h35m.5-.5h-36V36.5h36V.5h0Z"/><path class="cls-10" d="M399.5,37v35h-35V37h35m.5-.5h-36v36h36V36.5h0Z"/><path class="cls-10" d="M435.5,37v35h-35V37h35m.5-.5h-36v36h36V36.5h0Z"/><path class="cls-10" d="M363.5,1V36h-35V1h35m.5-.5h-36V36.5h36V.5h0Z"/></g><path class="cls-10" d="M544,.5V36.5h-108v36h-72V36.5h-36V.5h216M544.5,0h-217V37h36v36h73V37h108V0h0Z"/></g><path class="cls-10" d="M1480.17,.5V36.5h-36v36H796.17V36.5h-72V.5h756m.5-.5H723.67V37h72v36h649V37h36V0h0Z"/><path class="cls-10" d="M939.67,1V36h-35V1h35m.5-.5h-36V36.5h36V.5h0Z"/><path class="cls-10" d="M903.67,1V36h-35V1h35m.5-.5h-36V36.5h36V.5h0Z"/><path class="cls-10" d="M867.67,1V36h-35V1h35m.5-.5h-36V36.5h36V.5h0Z"/><path class="cls-10" d="M831.67,1V36h-35V1h35m.5-.5h-36V36.5h36V.5h0Z"/><path class="cls-10" d="M795.67,1V36h-35V1h35m.5-.5h-36V36.5h36V.5h0Z"/><path class="cls-10" d="M759.67,1V36h-35V1h35m.5-.5h-36V36.5h36V.5h0Z"/><path class="cls-10" d="M975.67,1V36h-35V1h35m.5-.5h-36V36.5h36V.5h0Z"/><path class="cls-10" d="M1479.67,1V36h-35V1h35m.5-.5h-36V36.5h36V.5h0Z"/><path class="cls-10" d="M1443.67,1V36h-35V1h35m.5-.5h-36V36.5h36V.5h0Z"/><path class="cls-10" d="M1407.67,1V36h-35V1h35m.5-.5h-36V36.5h36V.5h0Z"/><path class="cls-10" d="M1371.67,1V36h-35V1h35m.5-.5h-36V36.5h36V.5h0Z"/><path class="cls-10" d="M1335.67,1V36h-35V1h35m.5-.5h-36V36.5h36V.5h0Z"/><path class="cls-10" d="M1299.67,1V36h-35V1h35m.5-.5h-36V36.5h36V.5h0Z"/><path class="cls-10" d="M1263.67,1V36h-35V1h35m.5-.5h-36V36.5h36V.5h0Z"/><path class="cls-10" d="M1227.67,1V36h-35V1h35m.5-.5h-36V36.5h36V.5h0Z"/><path class="cls-10" d="M1191.67,1V36h-35V1h35m.5-.5h-36V36.5h36V.5h0Z"/><path class="cls-10" d="M1155.67,1V36h-35V1h35m.5-.5h-36V36.5h36V.5h0Z"/><path class="cls-10" d="M1119.67,1V36h-35V1h35m.5-.5h-36V36.5h36V.5h0Z"/><path class="cls-10" d="M1083.67,1V36h-35V1h35m.5-.5h-36V36.5h36V.5h0Z"/><path class="cls-10" d="M1047.67,1V36h-35V1h35m.5-.5h-36V36.5h36V.5h0Z"/><path class="cls-10" d="M1011.67,1V36h-35V1h35m.5-.5h-36V36.5h36V.5h0Z"/><polygon class="cls-10" points="904.67 37.14 904.67 37 939.67 37 939.67 37.14 940.17 37.14 940.17 36.5 904.17 36.5 904.17 37.14 904.67 37.14"/><polygon class="cls-10" points="939.67 72 904.67 72 904.67 71.38 904.17 71.38 904.17 72.5 940.17 72.5 939.67 72"/><polygon class="cls-10" points="903.67 71.38 903.67 72 868.67 72 868.67 37 903.67 37 903.67 37.14 904.17 37.14 904.17 36.5 868.17 36.5 868.17 72.5 904.17 72.5 904.17 71.38 903.67 71.38"/><path class="cls-10" d="M867.67,37v35h-35V37h35m.5-.5h-36v36h36V36.5h0Z"/><path class="cls-10" d="M831.67,37v35h-35V37h35m.5-.5h-36v36h36V36.5h0Z"/><polygon class="cls-10" points="940.67 37.14 940.67 37 975.67 37 975.67 37.14 976.17 37.14 976.17 36.5 940.17 36.5 940.17 37.14 940.67 37.14"/><polygon class="cls-10" points="975.67 71.38 975.67 72 940.67 72 940.17 72.5 976.17 72.5 976.17 71.38 975.67 71.38"/><path class="cls-10" d="M1443.67,37v35h-35V37h35m.5-.5h-36v36h36V36.5h0Z"/><path class="cls-10" d="M1407.67,37v35h-35V37h35m.5-.5h-36v36h36V36.5h0Z"/><path class="cls-10" d="M1371.67,37v35h-35V37h35m.5-.5h-36v36h36V36.5h0Z"/><path class="cls-10" d="M1335.67,37v35h-35V37h35m.5-.5h-36v36h36V36.5h0Z"/><path class="cls-10" d="M1299.67,37v35h-35V37h35m.5-.5h-36v36h36V36.5h0Z"/><path class="cls-10" d="M1263.67,37v35h-35V37h35m.5-.5h-36v36h36V36.5h0Z"/><path class="cls-10" d="M1227.67,37v35h-35V37h35m.5-.5h-36v36h36V36.5h0Z"/><path class="cls-10" d="M1191.67,37v35h-35V37h35m.5-.5h-36v36h36V36.5h0Z"/><path class="cls-10" d="M1155.67,37v35h-35V37h35m.5-.5h-36v36h36V36.5h0Z"/><path class="cls-10" d="M1119.67,37v35h-35V37h35m.5-.5h-36v36h36V36.5h0Z"/><path class="cls-10" d="M1083.67,37v35h-35V37h35m.5-.5h-36v36h36V36.5h0Z"/><path class="cls-10" d="M1047.67,37v35h-35V37h35m.5-.5h-36v36h36V36.5h0Z"/><polygon class="cls-10" points="976.17 36.5 976.17 37.14 976.67 37.14 976.67 37 1011.67 37 1011.67 72 976.67 72 976.67 71.38 976.17 71.38 976.17 72.5 1012.17 72.5 1012.17 36.5 976.17 36.5"/><rect class="cls-13" x="1441.2" y="-2.49" width="39.5" height="39.44" transform="translate(1478.18 -1443.72) rotate(90)"/><rect class="cls-13" x="1406.18" y="-2.63" width="37.97" height="39.13" transform="translate(2850.32 33.87) rotate(180)"/><rect class="cls-13" x="1406.18" y="31.08" width="38.49" height="41.92" transform="translate(2850.85 104.09) rotate(180)"/><polygon class="cls-12" points="1084.38 -2.13 1084.38 -2.13 1084.38 47.96 1084.38 73 1408.17 73 1408.17 -2.13 1084.38 -2.13"/><g><circle class="cls-10" cx="706.22" cy="18.5" r="3"/><circle class="cls-10" cx="742.2" cy="18.5" r="3"/><circle class="cls-10" cx="742.2" cy="54.48" r="3"/><circle class="cls-10" cx="778.17" cy="18.5" r="3"/><circle class="cls-10" cx="778.17" cy="54.48" r="3"/><circle class="cls-10" cx="814.15" cy="54.48" r="3"/></g><line class="cls-8" x1="880.09" y1="72.42" x2="1000.6" y2="72.42"/><g class="cls-14"><g><line class="cls-4" x1="1293.56" y1="79.1" x2="1383.41" y2="-10.75"/><line class="cls-4" x1="1336.17" y1="36.5" x2="1379.15" y2="79.42"/><path class="cls-4" d="M1283.04-24.31V24.49c0,6.63-5.21,12-11.63,12h-151.25"/><line class="cls-4" x1="1228.17" y1="36.5" x2="1228.17" y2="82.5"/><g><g><path class="cls-11" d="M1192.17,55.29c-.28,0-.49-.07-.68-.22-.21-.17-.37-.39-.48-.68-.59-1.75-1.36-3.44-2.26-4.99-.9-1.54-2.16-3.36-3.75-5.43-1.55-2.01-2.82-3.94-3.77-5.76-.92-1.75-1.38-3.91-1.38-6.42,0-3.42,1.21-6.36,3.59-8.74,2.38-2.38,5.32-3.59,8.74-3.59s6.36,1.21,8.74,3.59c2.38,2.38,3.59,5.32,3.59,8.74,0,2.69-.51,4.94-1.51,6.7-1.05,1.84-2.27,3.68-3.65,5.48-1.69,2.25-2.98,4.14-3.84,5.63-.87,1.51-1.6,3.12-2.18,4.8-.1,.29-.26,.51-.46,.65-.21,.15-.43,.22-.69,.22Z"/><path class="cls-13" d="M1192.17,20.16c3.27,0,5.97,1.11,8.25,3.38,2.28,2.28,3.38,4.98,3.38,8.25,0,2.56-.48,4.7-1.42,6.36-1.04,1.82-2.25,3.63-3.6,5.42-1.7,2.27-3.01,4.18-3.88,5.7-.9,1.55-1.65,3.2-2.23,4.91-.08,.24-.18,.31-.22,.33-.09,.06-.17,.09-.28,.09-.16,0-.21-.04-.24-.07-.11-.09-.19-.2-.26-.36-.61-1.81-1.39-3.53-2.31-5.11-.91-1.57-2.19-3.42-3.8-5.5-1.53-1.97-2.77-3.88-3.71-5.66-.87-1.65-1.3-3.7-1.3-6.1,0-3.27,1.11-5.97,3.38-8.25,2.28-2.28,4.97-3.38,8.25-3.38m0-1.4c-3.63,0-6.71,1.26-9.24,3.79-2.53,2.53-3.79,5.61-3.79,9.24,0,2.64,.49,4.89,1.46,6.75,.98,1.86,2.26,3.82,3.84,5.86,1.58,2.05,2.82,3.83,3.7,5.35,.88,1.52,1.62,3.15,2.21,4.89,.16,.4,.39,.73,.7,.98,.31,.25,.68,.37,1.12,.37,.4,0,.77-.12,1.09-.35,.33-.23,.57-.57,.72-1,.56-1.64,1.26-3.2,2.12-4.68,.85-1.47,2.12-3.33,3.79-5.56,1.4-1.83,2.63-3.68,3.7-5.56,1.07-1.88,1.6-4.23,1.6-7.05,0-3.63-1.26-6.71-3.79-9.24-2.53-2.53-5.61-3.79-9.24-3.79h0Z"/></g><path class="cls-13" d="M1192.17,36.45c1.3,0,2.4-.45,3.3-1.35,.9-.9,1.35-2,1.35-3.3s-.45-2.4-1.35-3.3c-.9-.9-2-1.35-3.3-1.35s-2.4,.45-3.3,1.35c-.9,.9-1.35,2-1.35,3.3s.45,2.4,1.35,3.3c.9,.9,2,1.35,3.3,1.35Z"/></g><g><g><path class="cls-11" d="M1282.17,83.42c-.28,0-.49-.07-.68-.22-.21-.17-.37-.39-.48-.68-.59-1.75-1.36-3.44-2.26-4.99-.9-1.54-2.16-3.37-3.75-5.43-1.55-2.01-2.82-3.94-3.77-5.76-.92-1.75-1.38-3.91-1.38-6.42,0-3.42,1.21-6.36,3.59-8.74,2.38-2.38,5.32-3.59,8.74-3.59s6.36,1.21,8.74,3.59c2.38,2.38,3.59,5.32,3.59,8.74,0,2.69-.51,4.94-1.51,6.7-1.05,1.84-2.27,3.68-3.65,5.48-1.69,2.25-2.98,4.14-3.84,5.63-.87,1.51-1.61,3.12-2.18,4.8-.1,.29-.26,.51-.46,.65-.21,.15-.43,.22-.69,.22Z"/><path class="cls-13" d="M1282.17,48.29c3.27,0,5.97,1.11,8.25,3.38,2.28,2.28,3.38,4.98,3.38,8.25,0,2.56-.48,4.7-1.42,6.36-1.04,1.82-2.25,3.63-3.6,5.42-1.7,2.27-3.01,4.18-3.88,5.7-.9,1.55-1.65,3.2-2.23,4.91-.08,.24-.18,.31-.22,.33-.09,.06-.17,.09-.28,.09-.16,0-.21-.04-.24-.07-.11-.09-.19-.2-.26-.37-.61-1.81-1.39-3.53-2.31-5.11-.91-1.57-2.19-3.42-3.8-5.5-1.53-1.97-2.77-3.88-3.71-5.66-.87-1.65-1.3-3.7-1.3-6.1,0-3.27,1.11-5.97,3.38-8.25,2.28-2.28,4.97-3.38,8.25-3.38m0-1.4c-3.63,0-6.71,1.26-9.24,3.79-2.53,2.53-3.79,5.61-3.79,9.24,0,2.64,.49,4.89,1.46,6.75,.98,1.86,2.26,3.82,3.84,5.86,1.58,2.05,2.82,3.83,3.7,5.35,.88,1.52,1.62,3.15,2.21,4.89,.16,.4,.39,.73,.7,.98,.31,.25,.68,.37,1.12,.37,.4,0,.77-.12,1.09-.35,.33-.23,.57-.57,.72-1,.56-1.64,1.26-3.2,2.12-4.68,.85-1.47,2.12-3.33,3.79-5.56,1.4-1.83,2.63-3.68,3.7-5.56,1.07-1.88,1.6-4.23,1.6-7.05,0-3.63-1.26-6.71-3.79-9.24-2.53-2.53-5.61-3.79-9.24-3.79h0Z"/></g><path class="cls-13" d="M1282.17,64.58c1.3,0,2.4-.45,3.3-1.35,.9-.9,1.35-2,1.35-3.3s-.45-2.4-1.35-3.3c-.9-.9-2-1.35-3.3-1.35s-2.4,.45-3.3,1.35c-.9,.9-1.35,2-1.35,3.3s.45,2.4,1.35,3.3c.9,.9,2,1.35,3.3,1.35Z"/></g><g><g><path class="cls-11" d="M1372.17,24.01c-.28,0-.49-.07-.68-.22-.21-.17-.37-.39-.48-.68-.59-1.75-1.36-3.44-2.26-4.99-.9-1.54-2.16-3.37-3.75-5.43-1.55-2.01-2.82-3.94-3.77-5.76-.92-1.75-1.38-3.91-1.38-6.42,0-3.42,1.21-6.36,3.59-8.74,2.38-2.38,5.32-3.59,8.74-3.59s6.36,1.21,8.74,3.59c2.38,2.38,3.59,5.32,3.59,8.74,0,2.69-.51,4.94-1.51,6.7-1.05,1.84-2.27,3.68-3.65,5.48-1.69,2.25-2.98,4.14-3.84,5.63-.87,1.51-1.6,3.12-2.18,4.8-.1,.29-.26,.51-.46,.66-.21,.15-.43,.22-.69,.22Z"/><path class="cls-13" d="M1372.17-11.12c3.27,0,5.97,1.11,8.25,3.38,2.28,2.28,3.38,4.97,3.38,8.25,0,2.56-.48,4.7-1.42,6.36-1.04,1.82-2.25,3.63-3.6,5.42-1.7,2.27-3.01,4.18-3.88,5.7-.9,1.55-1.65,3.21-2.23,4.91-.08,.24-.18,.31-.22,.33-.09,.06-.17,.09-.28,.09-.16,0-.21-.04-.24-.07-.11-.09-.19-.2-.26-.37-.61-1.81-1.39-3.53-2.31-5.11-.91-1.57-2.19-3.42-3.8-5.5-1.53-1.97-2.77-3.88-3.71-5.66-.87-1.65-1.3-3.7-1.3-6.1,0-3.27,1.11-5.97,3.38-8.25,2.28-2.28,4.97-3.38,8.25-3.38m0-1.4c-3.63,0-6.71,1.26-9.24,3.79-2.53,2.53-3.79,5.61-3.79,9.24,0,2.64,.49,4.89,1.46,6.75,.98,1.86,2.26,3.82,3.84,5.86,1.58,2.05,2.82,3.83,3.7,5.35,.88,1.52,1.62,3.15,2.21,4.89,.16,.4,.39,.73,.7,.98,.31,.25,.68,.37,1.12,.37,.4,0,.77-.12,1.09-.35,.33-.23,.57-.57,.72-1,.56-1.64,1.26-3.2,2.12-4.68,.85-1.47,2.12-3.33,3.79-5.56,1.4-1.83,2.63-3.68,3.7-5.56,1.07-1.88,1.6-4.23,1.6-7.05,0-3.63-1.26-6.71-3.79-9.24-2.53-2.53-5.61-3.79-9.24-3.79h0Z"/></g><path class="cls-13" d="M1372.17,5.17c1.3,0,2.4-.45,3.3-1.35,.9-.9,1.35-2,1.35-3.3s-.45-2.4-1.35-3.3c-.9-.9-2-1.35-3.3-1.35s-2.4,.45-3.3,1.35c-.9,.9-1.35,2-1.35,3.3s.45,2.4,1.35,3.3c.9,.9,2,1.35,3.3,1.35Z"/></g><g class="cls-17"><g><g><path class="cls-11" d="M1084.05,81.04c-24.37,0-44.19-19.82-44.19-44.19s19.83-44.19,44.19-44.19,44.19,19.82,44.19,44.19-19.83,44.19-44.19,44.19Z"/><path class="cls-13" d="M1084.05-6.24c23.76,0,43.09,19.33,43.09,43.09s-19.33,43.09-43.09,43.09-43.09-19.33-43.09-43.09,19.33-43.09,43.09-43.09m0-2.2c-25.01,0-45.29,20.28-45.29,45.29s20.28,45.29,45.29,45.29,45.29-20.28,45.29-45.29-20.28-45.29-45.29-45.29h0Z"/></g><g class="cls-16"><g><path class="cls-13" d="M1041.73,84.74V49.98c0-2.59,1.31-4.66,3.93-6.22,2.61-1.56,6.01-2.33,10.18-2.33,.76,0,1.5,.01,2.2,.04,.71,.03,1.38,.1,2.03,.22-.82,1.18-1.44,2.44-1.85,3.79-.41,1.35-.62,2.79-.62,4.32v34.94h-15.87Zm21.16,0V49.81c0-3.82,1.96-6.91,5.87-9.26,3.91-2.35,9.01-3.53,15.3-3.53s11.46,1.18,15.34,3.53c3.88,2.35,5.82,5.44,5.82,9.26v34.94h-42.32Zm47.62,0V49.81c0-1.53-.19-2.97-.57-4.32-.38-1.35-.95-2.62-1.72-3.79,.65-.12,1.31-.19,1.99-.22,.67-.03,1.36-.04,2.07-.04,4.23,0,7.64,.78,10.23,2.33,2.59,1.56,3.88,3.63,3.88,6.22v34.76h-15.87Zm-54.67-46.84c-1.94,0-3.6-.69-4.98-2.07-1.38-1.38-2.07-3.04-2.07-4.98s.69-3.67,2.07-5.03c1.38-1.35,3.04-2.03,4.98-2.03s3.67,.68,5.03,2.03c1.35,1.35,2.03,3.03,2.03,5.03s-.68,3.6-2.03,4.98c-1.35,1.38-3.03,2.07-5.03,2.07Zm56.43,0c-1.94,0-3.6-.69-4.98-2.07-1.38-1.38-2.07-3.04-2.07-4.98s.69-3.67,2.07-5.03c1.38-1.35,3.04-2.03,4.98-2.03s3.67,.68,5.03,2.03c1.35,1.35,2.03,3.03,2.03,5.03s-.68,3.6-2.03,4.98c-1.35,1.38-3.03,2.07-5.03,2.07Zm-28.22-5.13c-2.94,0-5.44-1.03-7.49-3.09-2.06-2.06-3.09-4.56-3.09-7.49s1.03-5.51,3.09-7.54c2.06-2.03,4.56-3.04,7.49-3.04s5.51,1.01,7.54,3.04c2.03,2.03,3.04,4.54,3.04,7.54s-1.01,5.44-3.04,7.49c-2.03,2.06-4.54,3.09-7.54,3.09Zm0,15.71h0Zm0-24.69h0Z"/><path class="cls-2" d="M1062.89,84.74V49.81c0-3.82,1.96-6.91,5.87-9.26,3.91-2.35,9.01-3.53,15.3-3.53s11.46,1.18,15.34,3.53c3.88,2.35,5.82,5.44,5.82,9.26v34.94h-42.32Z"/><g><polyline class="cls-3" points="1079.66 61.89 1072.36 55.2 1079.66 48.51"/><polyline class="cls-3" points="1088.45 48.51 1095.74 55.2 1088.45 61.89"/></g></g></g></g></g></g></g></g></g><g class="cls-15"><g><path class="cls-10" d="M993.9,15.74c2.59,0,4.69,2.11,4.69,4.69V117.75c0,2.59-2.11,4.69-4.69,4.69h-107.11c-2.59,0-4.69-2.11-4.69-4.69V20.43c0-2.59,2.11-4.69,4.69-4.69h107.11m0-2h-107.11c-3.7,0-6.69,3-6.69,6.69V117.75c0,3.7,3,6.69,6.69,6.69h107.11c3.7,0,6.69-3,6.69-6.69V20.43c0-3.7-3-6.69-6.69-6.69h0Z"/><line class="cls-6" x1="880.09" y1="35.74" x2="1000.6" y2="35.74"/><line class="cls-5" x1="880.09" y1="57.92" x2="1000.6" y2="57.92"/><line class="cls-7" x1="880.14" y1="36.55" x2="1000.64" y2="36.55"/><line class="cls-5" x1="976.49" y1="24.14" x2="976.49" y2="124.2"/><line class="cls-5" x1="928.29" y1="24.14" x2="928.29" y2="124.2"/><line class="cls-5" x1="952.39" y1="24.14" x2="952.39" y2="124.2"/><line class="cls-5" x1="904.19" y1="24.14" x2="904.19" y2="124.2"/><path class="cls-10" d="M880.09,35.74v-15.31c0-3.7,3-6.69,6.69-6.69h107.11c3.7,0,6.69,3,6.69,6.69v15.31h-120.5Z"/><rect class="cls-10" x="973.85" y="7.17" width="4.69" height="11.81"/><rect class="cls-10" x="901.55" y="7.17" width="5.28" height="11.81"/><circle class="cls-10" cx="964.44" cy="47.36" r="4.65"/><circle class="cls-10" cx="916.24" cy="69.01" r="4.65"/></g></g></svg>