<svg xmlns="http://www.w3.org/2000/svg" viewBox="0 0 630 377.62"><defs><style>.cls-1{isolation:isolate;}.cls-2{fill:#fff;}.cls-3{fill:#bdc1c6;}.cls-13,.cls-4{fill:#f1f3f4;}.cls-14,.cls-4{mix-blend-mode:multiply;}.cls-5{fill:#dadce0;}.cls-6{fill:#ea4335;}.cls-7{fill:#4285f4;}.cls-8{fill:#fbbc04;}.cls-9{fill:#0f9d58;}.cls-10,.cls-14{fill:#f8f9fa;}.cls-11{fill:none;}.cls-12{fill:#ffc927;}.cls-15{fill:#669df6;}.cls-16{fill:#1a73e8;}.cls-17{fill:#d2e3fc;}</style></defs><title>page not found</title><g class="cls-1"><g id="Layer_1" data-name="Layer 1"><path class="cls-2" d="M349.29,66.51l7.41-8.16c1.27-1.4.82-3.12-1.12-4.24L287.26,14.66A10,10,0,0,0,279.9,14l-14.12,4.28a9.92,9.92,0,0,1-7.35-.65l-6.19-3.57L1.19,159,377.76,376.43l251-145L350.42,70.75C348.47,69.63,348,67.91,349.29,66.51Z"/><polygon class="cls-3" points="249.37 31.55 249.37 30.36 240.25 30.36 240.25 35.87 241.44 35.87 241.44 31.98 248.97 36.33 249.56 35.3 243.06 31.55 249.37 31.55"/><polygon class="cls-3" points="263.92 43.59 256.39 39.24 255.8 40.27 262.3 44.02 255.99 44.02 255.99 45.21 265.11 45.21 265.11 39.7 263.92 39.7 263.92 43.59"/><path class="cls-3" d="M277.88,50.91l3.64,1.16,2.07-2.17-.86-.82-1.09,1.14a3.69,3.69,0,0,0-1.73-1.91,8.94,8.94,0,0,0-8.18,0,2.89,2.89,0,0,0,0,5.4,8.35,8.35,0,0,0,4.1,1,9.55,9.55,0,0,0,2.14-.24l-.27-1.16a7.75,7.75,0,0,1-5.37-.62A2.1,2.1,0,0,1,271.06,51a2.11,2.11,0,0,1,1.27-1.67,7.79,7.79,0,0,1,7,0,2.67,2.67,0,0,1,1.15,1.14l-2.22-.71Z"/><path class="cls-4" d="M580.79,236.51,290.45,68.88c-4.67-2.7-4.67-7.07,0-9.77h0c4.68-2.7,12.26-2.7,16.93,0L597.72,226.73c4.67,2.7,4.67,7.08,0,9.78h0C593,239.21,585.46,239.21,580.79,236.51Z"/><path class="cls-5" d="M377.76,377.62a1.24,1.24,0,0,1-.59-.16L.59,160A1.19,1.19,0,0,1,0,159a1.22,1.22,0,0,1,.59-1L251.64,13a1.2,1.2,0,0,1,1.19,0L259,16.61a8.75,8.75,0,0,0,6.41.54l14.13-4.27a11.14,11.14,0,0,1,8.29.75l68.32,39.45a4.46,4.46,0,0,1,2.39,3.08,3.57,3.57,0,0,1-1,3l-7.41,8.16h0a1.22,1.22,0,0,0-.39,1A2.24,2.24,0,0,0,351,69.72l278.4,160.74a1.19,1.19,0,0,1,0,2l-251,145A1.28,1.28,0,0,1,377.76,377.62ZM3.56,159l374.2,216.05L626.44,231.48,349.82,71.78a4.51,4.51,0,0,1-2.39-3.08,3.6,3.6,0,0,1,1-3l7.4-8.16a1.23,1.23,0,0,0,.4-1A2.29,2.29,0,0,0,355,55.14L286.66,15.69a8.75,8.75,0,0,0-6.41-.54l-14.13,4.28a11.19,11.19,0,0,1-8.29-.76l-5.59-3.23Zm345.73-92.5h0Z"/><ellipse class="cls-2" cx="506.9" cy="291.31" rx="77.18" ry="44.56"/><path class="cls-5" d="M506.9,337c-20,0-40-4.39-55.17-13.17-15-8.64-23.2-20.2-23.2-32.54s8.24-23.9,23.2-32.54c30.42-17.56,79.92-17.56,110.34,0,15,8.64,23.2,20.19,23.2,32.54s-8.24,23.9-23.2,32.54C546.86,332.63,526.88,337,506.9,337Zm0-89.08c-19.55,0-39.1,4.29-54,12.89-14.2,8.19-22,19-22,30.48s7.81,22.29,22,30.48c29.76,17.19,78.2,17.19,108,0,14.2-8.19,22-19,22-30.48s-7.82-22.29-22-30.48C546,252.23,526.45,247.94,506.9,247.94Z"/><path class="cls-6" d="M484.21,278.3l22.11,3.42c5.2.81,10.55-1,11.94-4s-1.69-6.09-6.89-6.89l-38.2-5.91Z"/><path class="cls-7" d="M474,296.41a15,15,0,0,0,9.42,1.46c5.21-.8,8.29-3.89,6.9-6.9l-10.24-22.05c-1.39-3-6.74-4.79-11.94-4s-8.29,3.89-6.9,6.89l10.24,22.06A6,6,0,0,0,474,296.41Z"/><path class="cls-8" d="M498.07,310.32a12.64,12.64,0,0,0,4.36,1.45l38.2,5.91-10.7-13.31-22.45-3.48c-5.2-.8-10.55,1-11.94,4C494.6,306.89,495.68,308.94,498.07,310.32Z"/><path class="cls-9" d="M536.25,316.22a15,15,0,0,0,9.43,1.46c5.21-.8,8.29-3.89,6.9-6.89l-10.24-22.06c-1.39-3-6.74-4.79-11.94-4s-8.29,3.89-6.9,6.89l10.24,22.06A5.9,5.9,0,0,0,536.25,316.22Z"/><polygon class="cls-10" points="82.77 113.06 159.32 68.86 201.32 93.19 124.78 137.38 82.77 113.06"/><polygon class="cls-5" points="22.97 44.2 99.52 0 201.59 58.93 125.04 103.12 22.97 44.2"/><polygon class="cls-2" points="130.22 62.54 106.42 62.54 106.42 27.01 52.74 27.01 48.63 29.38 104.05 29.38 104.05 62.54 54.75 62.54 58.86 64.92 127.84 64.92 127.84 101.51 130.22 100.14 130.22 62.54"/><path class="cls-2" d="M161.67,69a24.57,24.57,0,0,1-12-2.86c-3.43-2-5.31-4.69-5.31-7.62s1.88-5.63,5.31-7.61c6.62-3.82,17.39-3.83,24,0,3.43,2,5.32,4.68,5.32,7.61s-1.89,5.64-5.32,7.62A24.56,24.56,0,0,1,161.67,69Zm0-18.62A22.14,22.14,0,0,0,150.85,53c-2.66,1.54-4.13,3.51-4.13,5.56s1.47,4,4.13,5.56c6,3.44,15.67,3.44,21.63,0,2.67-1.54,4.13-3.51,4.13-5.56s-1.46-4-4.13-5.56A22.13,22.13,0,0,0,161.67,50.38Z"/><polygon class="cls-11" points="22.97 44.2 99.52 0 201.59 58.93 125.04 103.12 22.97 44.2"/><polygon class="cls-12" points="126.07 169.94 91.53 150 96.49 147.13 131.03 167.07 126.07 169.94"/><polygon class="cls-12" points="125.76 180.72 82.04 155.47 87 152.61 130.72 177.85 125.76 180.72"/><polygon class="cls-12" points="101.2 177.5 72.55 160.96 77.51 158.09 106.16 174.63 101.2 177.5"/><ellipse class="cls-12" cx="88.17" cy="145.19" rx="4.29" ry="2.47"/><ellipse class="cls-12" cx="78.68" cy="150.67" rx="4.29" ry="2.47"/><ellipse class="cls-12" cx="69.19" cy="156.15" rx="4.29" ry="2.47"/><polygon class="cls-13" points="286.95 88.08 323.73 77.51 411.2 128.07 412.6 161.56 286.95 88.08"/><path class="cls-14" d="M415.78,227.27v-.07c0-.41,0-.82,0-1.24,0-.16,0-.33,0-.5s0-.4,0-.61v-.3h0a36.64,36.64,0,0,0-.42-4.29h0c-.07-.43-.15-.86-.23-1.29a1.16,1.16,0,0,1,0-.18c-.07-.38-.16-.77-.25-1.16,0-.1-.05-.2-.07-.3l-.27-1-.12-.41c-.09-.32-.18-.63-.28-1-.06-.17-.11-.34-.16-.51l-.3-.86-.21-.6-.3-.78-.27-.68-.3-.69c-.11-.26-.22-.51-.34-.76s-.19-.41-.29-.62-.27-.55-.41-.83l-.28-.55c-.16-.29-.31-.59-.48-.89l-.27-.48c-.18-.32-.36-.64-.55-1-.09-.13-.17-.27-.25-.41-.21-.34-.43-.68-.65-1-.07-.11-.14-.23-.22-.34l-.73-1.08-.2-.28c-.27-.38-.54-.76-.83-1.14l-.15-.21L406,200a1.34,1.34,0,0,0-.11-.14q-.51-.63-1.05-1.26l-.05-.07a77.37,77.37,0,0,0-20.23-16.26c-20.87-12-48.21-18.07-75.56-18.07s-54.69,6-75.56,18.07c-20.27,11.7-30.69,26.93-31.27,42.26h0v.71c0,.44,0,.87,0,1.3v23.16h0v.06c0,.79,0,1.57,0,2.35v.3h0a40.73,40.73,0,0,0,8,22.19l-4.34,2.55,43.47,25.1c41.55,16.17,98.43,13.65,135.2-7.58,20.26-11.7,30.67-26.93,31.25-42.26h0V227.27Z"/><path class="cls-7" d="M213.29,132.42l.17-.21.72-.8.37-.42.72-.75.43-.45c.23-.25.48-.49.72-.74l.47-.46.74-.71.5-.48.76-.7.54-.47.78-.69.57-.48,1.39-1.14.75-.6.7-.54.79-.6.71-.52.85-.61.71-.5.9-.62.7-.47,1-.64.67-.44,1.13-.7.58-.36,1.76-1c41.73-24.09,109.38-24.09,151.11,0l1.76,1,.58.36,1.13.7.68.44,1,.64.71.48.89.61.72.5.83.61.72.52.78.6.71.54c.25.19.48.39.72.58.5.39,1,.79,1.45,1.19l.54.45.79.69.53.47.76.71.5.46.74.72.47.46.73.74.42.44.72.77.36.4.73.81.16.2c7.09,8.22,10.8,17.16,11.14,26.13h0V136c0-.78,0-1.57,0-2.35v-.3h0c-.58-15.33-11-30.56-31.25-42.26C342.79,67,275.14,67,233.41,91.12c-20.26,11.7-30.67,26.93-31.25,42.26h0v25.16h0C202.5,149.57,206.21,140.64,213.29,132.42Z"/><path class="cls-15" d="M384.5,91.12C342.78,67,275.13,67,233.4,91.12s-41.73,63.15,0,87.24,109.38,24.09,151.11,0S426.23,115.21,384.5,91.12Zm-8.58,82.28c-37,21.36-96.95,21.36-133.93,0s-37-56,0-77.32,96.94-21.35,133.93,0S412.9,152.05,375.92,173.4Z"/><path class="cls-16" d="M404.63,162.22l-.18.21q-.34.4-.72.81l-.37.41-.71.76-.43.45-.72.73-.47.47-.74.71-.51.47-.75.7-.54.48-.78.68-.57.48c-.46.39-.92.77-1.39,1.14l-.75.6-.7.54-.8.6c-.23.18-.47.35-.71.52s-.55.41-.84.61l-.71.5-.9.62-.71.47c-.32.22-.65.43-1,.64l-.67.44-1.13.7-.58.36-1.76,1c-41.73,24.09-109.38,24.09-151.11,0-.6-.34-1.18-.69-1.76-1l-.58-.36c-.38-.23-.76-.46-1.13-.7l-.68-.44-1-.64-.71-.47-.89-.62-.72-.5-.83-.6c-.24-.18-.49-.35-.72-.53l-.78-.59c-.24-.18-.48-.36-.71-.55l-.73-.57-1.45-1.2-.53-.45-.79-.69-.53-.47-.76-.7-.5-.47-.75-.72-.46-.46-.73-.73-.42-.45-.72-.76-.36-.41-.73-.81-.17-.19c-7.08-8.22-10.79-17.16-11.13-26.14h0v22.51c0,.79,0,1.57,0,2.35v.3h0c.58,15.33,11,30.56,31.25,42.26,41.73,24.09,109.38,24.09,151.11,0,20.26-11.7,30.67-26.93,31.25-42.26h0V136.1h0C415.42,145.07,411.71,154,404.63,162.22Z"/><path class="cls-17" d="M234,190.79a16.84,16.84,0,0,0-7.62-13.2c-2.17-1.26-4.13-1.33-5.52-.44h0l-15.7,9.25-.63,10,11.22,8.35,15.89-9h0C233.11,195,234,193.29,234,190.79Z"/><path class="cls-15" d="M216.43,207.84c0-8.38-5.88-18.56-13.13-22.75-3.7-2.13-7-2.29-9.42-.84h0l-128,74.11,16.9,32.5,129.64-74.45.24-.14h0C215,214.86,216.43,212,216.43,207.84Z"/><ellipse class="cls-16" cx="74.58" cy="274.57" rx="10.72" ry="18.57" transform="translate(-127.3 74.08) rotate(-30)"/></g></g></svg>