<svg width="1240" height="316" viewBox="0 0 1240 316" fill="none" xmlns="http://www.w3.org/2000/svg">
<g clip-path="url(#clip0)">
<path d="M1379.44 0H-140V348H1379.44V0Z" fill="#F5F5F7"/>
<path d="M465.934 84.1954V41.8329H423.625V0L422.567 0V41.8329H381.315V0L380.258 0V41.8329H339.006V0L337.948 0V41.8329H296.696V0L295.638 0V41.8329H254.386V0L253.329 0V41.8329H212.077V0L211.019 0V41.8329H169.767V0L168.71 0V41.8329H127.458V0L126.4 0V41.8329H85.1481V0L84.0903 0V41.8329H42.8385V0L41.7807 0V41.8329H0.52887V0L0 0L0 42.892H41.8865V85.2544H84.0903V169.979H211.019V212.342H508.244V84.1954H465.934ZM84.0903 84.1954H42.9442V42.892H84.0903V84.1954ZM126.4 168.92H85.1481V127.617H126.4V168.92ZM126.4 126.558H85.1481V85.2544H126.4V126.558ZM126.4 84.1954H85.2538V42.892H126.4V84.1954ZM168.71 168.92H127.458V127.617H168.71V168.92ZM168.71 126.558H127.458V85.2544H168.71V126.558ZM168.71 84.1954H127.458V42.892H168.71V84.1954ZM211.019 168.92H169.767V127.617H211.019V168.92ZM211.019 126.558H169.767V85.2544H211.019V126.558ZM211.019 84.1954H169.767V42.892H211.019V84.1954ZM253.329 211.283H212.077V169.979H253.329V211.283ZM253.329 168.92H212.077V127.617H253.329V168.92ZM253.329 126.558H212.077V85.2544H253.329V126.558ZM253.329 84.1954H212.077V42.892H253.329V84.1954ZM295.638 211.283H254.386V169.979H295.638V211.283ZM295.638 168.92H254.386V127.617H295.638V168.92ZM295.638 126.558H254.386V85.2544H295.638V126.558ZM295.638 84.1954H254.386V42.892H295.638V84.1954ZM337.948 211.283H296.696V169.979H337.948V211.283ZM337.948 168.92H296.696V127.617H337.948V168.92ZM337.948 126.558H296.696V85.2544H337.948V126.558ZM337.948 84.1954H296.696V42.892H337.948V84.1954ZM380.258 211.283H339.006V169.979H380.258V211.283ZM380.258 168.92H339.006V127.617H380.258V168.92ZM380.258 126.558H339.006V85.2544H380.258V126.558ZM380.258 84.1954H339.006V42.892H380.258V84.1954ZM422.567 211.283H381.315V169.979H422.567V211.283ZM422.567 168.92H381.315V127.617H422.567V168.92ZM422.567 126.558H381.315V85.2544H422.567V126.558ZM422.567 84.1954H381.315V42.892H422.567V84.1954ZM464.877 211.283H423.625V169.979H464.877V211.283ZM464.877 168.92H423.625V127.617H464.877V168.92ZM464.877 126.558H423.625V85.2544H464.877V126.558ZM464.877 84.1954H423.625V42.892H464.877V84.1954ZM507.186 211.283H465.934V169.979H507.186V211.283ZM507.186 168.92H465.934V127.617H507.186V168.92ZM507.186 126.558H465.934V85.2544H507.186V126.558Z" fill="white"/>
<rect width="1" height="42" fill="white"/>
<path d="M1111.93 234.146V276.509H1069.62V318.342H1068.57V276.509H1027.32V318.342H1026.26V276.509H985.006V318.342H983.948V276.509H942.696V318.342H941.638V276.509L900.386 276.509V318.342H899.329V276.509H858.077V318.342H857.019V276.509H815.767V318.342H814.71V276.509H773.458V318.342H772.4V276.509H731.148V318.342H730.09V276.509H688.838V318.342H687.781V276.509H646.529V318.342H646V275.45H687.886V233.087H730.09V148.362L857.019 148.362V106L1154.24 106V234.146H1111.93ZM730.09 234.146H688.944V275.45H730.09V234.146ZM772.4 149.422L731.148 149.422V190.725H772.4V149.422ZM772.4 191.784H731.148V233.087H772.4V191.784ZM772.4 234.146H731.254V275.45H772.4V234.146ZM814.71 149.422H773.458V190.725H814.71V149.422ZM814.71 191.784H773.458V233.087H814.71V191.784ZM814.71 234.146H773.458V275.45H814.71V234.146ZM857.019 149.422H815.767V190.725L857.019 190.725V149.422ZM857.019 191.784L815.767 191.784V233.087L857.019 233.087V191.784ZM857.019 234.146L815.767 234.146V275.45H857.019V234.146ZM899.329 107.059H858.077V148.362H899.329V107.059ZM899.329 149.422H858.077V190.725H899.329V149.422ZM899.329 191.784H858.077V233.087H899.329V191.784ZM899.329 234.146H858.077V275.45H899.329V234.146ZM941.638 107.059H900.386V148.362H941.638V107.059ZM941.638 149.422H900.386V190.725L941.638 190.725V149.422ZM941.638 191.784L900.386 191.784V233.087L941.638 233.087V191.784ZM941.638 234.146L900.386 234.146V275.45L941.638 275.45V234.146ZM983.948 107.059H942.696V148.362H983.948V107.059ZM983.948 149.422H942.696V190.725H983.948V149.422ZM983.948 191.784H942.696V233.087H983.948V191.784ZM983.948 234.146H942.696V275.45H983.948V234.146ZM1026.26 107.059L985.006 107.059V148.362L1026.26 148.362V107.059ZM1026.26 149.422L985.006 149.422V190.725H1026.26V149.422ZM1026.26 191.784H985.006V233.087H1026.26V191.784ZM1026.26 234.146H985.006V275.45H1026.26V234.146ZM1068.57 107.059H1027.32V148.362H1068.57V107.059ZM1068.57 149.422H1027.32V190.725H1068.57V149.422ZM1068.57 191.784H1027.32V233.087H1068.57V191.784ZM1068.57 234.146H1027.32V275.45H1068.57V234.146ZM1110.88 107.059H1069.62V148.362H1110.88V107.059ZM1110.88 149.422H1069.62V190.725H1110.88V149.422ZM1110.88 191.784H1069.62V233.087H1110.88V191.784ZM1110.88 234.146H1069.62V275.45H1110.88V234.146ZM1153.19 107.059H1111.93V148.362H1153.19V107.059ZM1153.19 149.422H1111.93V190.725H1153.19V149.422ZM1153.19 191.784H1111.93V233.087H1153.19V191.784Z" fill="white"/>
<path d="M1043.16 150.576L1052.53 150.576L1052.53 181.185L1043.16 181.185L1043.16 150.576ZM1060.65 137.458L1069.39 137.458L1069.39 181.185L1060.65 181.185L1060.65 137.458ZM1078.14 162.441L1086.89 162.441L1086.89 181.185L1078.14 181.185L1078.14 162.441Z" fill="#DBEFFD"/>
<path d="M135.662 162.544L145.034 162.544L145.034 193.153L135.662 193.153L135.662 162.544ZM153.153 149.426L161.899 149.426L161.898 193.153L153.153 193.153L153.153 149.426ZM170.644 174.409L179.389 174.409L179.389 193.153L170.644 193.153L170.644 174.409Z" fill="#DBEFFD"/>
<path d="M14.7461 60.4427C14.7461 59.6755 15.3648 59.0536 16.1281 59.0536C16.2386 58.8961 17.4179 59.0536 17.6298 59.0536C18.122 59.147 18.5953 59.3222 19.0302 59.5722C19.9972 60.1538 20.8171 60.9526 21.4255 61.906C23.0686 64.5681 24.2726 67.4797 24.991 70.5281C25.1937 71.2413 25.3871 71.9636 25.5714 72.686C26.1979 75.1032 26.7875 77.6778 27.414 80.2894C29.3579 88.8282 31.7902 99.46 35.3095 99.46C38.8289 99.46 41.2611 88.8282 43.2051 80.2894C45.711 69.3242 48.0787 58.9887 53.8 58.9887C59.5213 58.9887 61.889 69.352 64.3857 80.2894C66.3389 88.8282 68.7619 99.46 72.2812 99.46C75.8006 99.46 78.2328 88.8282 80.186 80.2894C82.6827 69.3242 85.0505 58.9887 90.7717 58.9887C96.493 58.9887 98.8607 69.352 101.367 80.2894C103.32 88.8282 105.743 99.4601 109.262 99.4601L109.704 99.4601C110.468 99.4601 111.086 100.082 111.086 100.849C111.086 101.616 110.468 102.238 109.704 102.238L109.262 102.238C103.541 102.238 101.173 91.8844 98.6765 80.9377C96.7233 72.3989 94.3003 61.7671 90.7717 61.7671C87.2431 61.7671 84.8293 72.3989 82.8762 80.9377C80.3703 91.9122 78.0117 102.238 72.2812 102.238C66.5508 102.238 64.2015 91.8844 61.6955 80.9377C59.7424 72.3989 57.3194 61.7671 53.8 61.7671C50.2806 61.7671 47.8484 72.3989 45.9045 80.9377C43.3985 91.9122 41.0308 102.238 35.3095 102.238C29.5882 102.238 27.2205 91.8844 24.7146 80.9377C24.7146 80.9377 23.5077 76.5849 22.9549 74.3993C21.2873 67.7961 19.2697 61.7949 16.6164 61.7949L16.1741 61.7949C15.806 61.8073 15.4482 61.6716 15.1801 61.4177C14.9119 61.1638 14.7557 60.8129 14.7461 60.4427Z" fill="#3DDC84"/>
<path d="M1136.55 216.579C1136.55 215.812 1137.17 215.19 1137.93 215.19C1138.04 215.033 1139.22 215.19 1139.43 215.19C1139.93 215.284 1140.4 215.459 1140.83 215.709C1141.8 216.29 1142.62 217.089 1143.23 218.043C1144.87 220.705 1146.08 223.616 1146.8 226.665C1147 227.378 1147.19 228.1 1147.38 228.823C1148 231.24 1148.59 233.814 1149.22 236.426C1151.16 244.965 1153.59 255.597 1157.11 255.597C1160.63 255.597 1163.07 244.965 1165.01 236.426C1167.52 225.461 1169.88 215.125 1175.6 215.125C1181.33 215.125 1183.69 225.489 1186.19 236.426C1188.14 244.965 1190.57 255.597 1194.09 255.597C1197.6 255.597 1200.04 244.965 1201.99 236.426C1204.49 225.461 1206.85 215.125 1212.58 215.125C1218.3 215.125 1220.66 225.489 1223.17 236.426C1225.12 244.965 1227.55 255.597 1231.07 255.597L1231.51 255.597C1232.27 255.597 1232.89 256.219 1232.89 256.986C1232.89 257.753 1232.27 258.375 1231.51 258.375L1231.07 258.375C1225.35 258.375 1222.98 248.021 1220.48 237.074C1218.53 228.536 1216.1 217.904 1212.58 217.904C1209.05 217.904 1206.63 228.536 1204.68 237.074C1202.17 248.049 1199.82 258.375 1194.09 258.375C1188.36 258.375 1186.01 248.021 1183.5 237.074C1181.55 228.536 1179.12 217.904 1175.6 217.904C1172.08 217.904 1169.65 228.536 1167.71 237.074C1165.2 248.049 1162.84 258.375 1157.11 258.375C1151.39 258.375 1149.02 248.021 1146.52 237.074C1146.52 237.074 1145.31 232.722 1144.76 230.536C1143.09 223.933 1141.07 217.931 1138.42 217.931L1137.98 217.931C1137.61 217.944 1137.25 217.808 1136.98 217.554C1136.72 217.3 1136.56 216.949 1136.55 216.579Z" fill="#3DDC84"/>
</g>
<defs>
<clipPath id="clip0">
<rect width="1240" height="316" fill="white"/>
</clipPath>
</defs>
</svg>
