<svg id="Layer_1" data-name="Layer 1" xmlns="http://www.w3.org/2000/svg" viewBox="0 0 517 216"><defs><style>.cls-1{fill:#f1f9fe;fill-opacity:0.17;}</style></defs><path class="cls-1" d="M517,0H86.08V42.55H43v43.1H0V216H302.35V172.91H431.46V86.72h42.93V43.63H517V0ZM388.42,43.63h41.86v42H388.42ZM173.23,172.91h42v42h-42Zm0-1.08v-42h42v42Zm0-43.09v-42h42v42Zm0-43.09v-42h42v42Zm0-43.1V1.07h42V42.55Zm43,130.36h42v42h-42Zm0-1.08v-42h42v42Zm0-43.09v-42h42v42Zm0-43.09v-42h42v42Zm0-43.1V1.07h42V42.55Zm43,130.36h42v42h-42Zm0-1.08v-42h42v42Zm0-43.09v-42h42v42Zm0-43.09v-42h42v42Zm0-43.1V1.07h42V42.55ZM172.15,1.07V42.55h-42V1.07Zm-42,171.84h42v42h-42Zm0-1.08v-42h42v42Zm0-43.09v-42h42v42Zm0-43.09v-42h42v42ZM129.12,1.07V42.55h-42V1.07Zm-42,170.76v-42h42v42Zm42,1.08v42h-42v-42Zm-42-44.17v-42h42v42Zm0-43.09v-42h42v42Zm-43-42h42v42h-42Zm0,43.09h42v42h-42Zm0,43.1h42v42h-42Zm0,43.09h42v42h-42Zm-43-86.19H43v42h-42Zm0,43.1H43v42h-42Zm0,43.09H43v42h-42Zm343.23-1.08h-42v-42h42Zm0-43.09h-42v-42h42Zm0-43.09h-42v-42h42Zm-42-43.1V1.07h42V42.55Zm85,129.28h-42v-42h42Zm0-43.09h-42v-42h42Zm0-43.09h-42v-42h42Zm-42-43.1V1.07h42V42.55Zm85,129.28h-42v-42h42Zm0-43.09h-42v-42h42Zm-42-86.19V1.07h42V42.55Zm84.9,43.1H431.46v-42h41.86Zm-41.86-43.1V1.07h42V42.55Zm43,0V1.07h41.42V42.55Z" transform="translate(0 0)"/></svg>