<svg id="Illos" xmlns="http://www.w3.org/2000/svg" xmlns:xlink="http://www.w3.org/1999/xlink" viewBox="0 0 1225 73"><defs><style>.cls-1,.cls-5,.cls-8,.cls-9{fill:none;}.cls-2{fill:#e8eaed;}.cls-3{fill:#fce8e6;}.cls-4{fill:#ea4335;}.cls-5{stroke:#e8eaed;}.cls-5,.cls-8,.cls-9{stroke-miterlimit:10;}.cls-5,.cls-8{stroke-width:2.2px;}.cls-6{clip-path:url(#clip-path);}.cls-7{fill:#fad2cf;}.cls-8,.cls-9{stroke:#ea4335;}.cls-9{stroke-width:2px;}</style><clipPath id="clip-path"><polygon class="cls-1" points="1188.5 72.5 936.5 72.5 936.5 36.53 900.5 36.53 900.5 0.53 936.5 0.5 1188.5 0.5 1188.5 72.5"/></clipPath></defs><path class="cls-2" d="M1188,1V36h-35V1h35m.5-.5h-36v36h36V.5Z"/><path class="cls-2" d="M1152,1V36h-35V1h35m.5-.5h-36v36h36V.5Z"/><path class="cls-2" d="M1116,1V36h-35V1h35m.5-.5h-36v36h36V.5Z"/><path class="cls-2" d="M1080,1V36h-35V1h35m.5-.5h-36v36h36V.5Z"/><path class="cls-2" d="M1044,1V36h-35V1h35m.5-.5h-36v36h36V.5Z"/><path class="cls-2" d="M1008,1V36H973V1h35m.5-.5h-36v36h36V.5Z"/><path class="cls-2" d="M972,1V36H937V1h35m.5-.5h-36v36h36V.5Z"/><path class="cls-2" d="M936,1V36H901V1h35m.5-.5h-36v36h36V.5Z"/><path class="cls-2" d="M900,1V36H865V1h35m.5-.5h-36v36h36V.5Z"/><path class="cls-2" d="M864,1V36H829V1h35m.5-.5h-36v36h36V.5Z"/><path class="cls-2" d="M828,1V36H793V1h35m.5-.5h-36v36h36V.5Z"/><path class="cls-2" d="M792,1V36H757V1h35m.5-.5h-36v36h36V.5Z"/><path class="cls-2" d="M900,37V72H865V37h35m.5-.5h-36v36h36v-36Z"/><path class="cls-2" d="M864,37V72H829V37h35m.5-.5h-36v36h36v-36Z"/><path class="cls-2" d="M828,37V72H793V37h35m.5-.5h-36v36h36v-36Z"/><path class="cls-2" d="M792,37V72H757V37h35m.5-.5h-36v36h36v-36Z"/><path class="cls-2" d="M756,1V36H721V1h35m.5-.5h-36v36h36V.5Z"/><path class="cls-2" d="M1224,37V72h-35V37h35m.5-.5h-36v36h36v-36Z"/><path class="cls-2" d="M1188,37V72h-35V37h35m.5-.5h-36v36h36v-36Z"/><path class="cls-2" d="M1152,37V72h-35V37h35m.5-.5h-36v36h36v-36Z"/><path class="cls-2" d="M1116,37V72h-35V37h35m.5-.5h-36v36h36v-36Z"/><path class="cls-2" d="M1080,37V72h-35V37h35m.5-.5h-36v36h36v-36Z"/><path class="cls-2" d="M1044,37V72h-35V37h35m.5-.5h-36v36h36v-36Z"/><path class="cls-2" d="M1008,37V72H973V37h35m.5-.5h-36v36h36v-36Z"/><path class="cls-2" d="M972,37V72H937V37h35m.5-.5h-36v36h36v-36Z"/><path class="cls-2" d="M936,37V72H901V37h35m.5-.5h-36v36h36v-36Z"/><path class="cls-2" d="M1188.5.5v36h36v36h-468v-36h-36V.5h468m.5-.5H720V37h36V73h469V36h-36V0Z"/><rect class="cls-3" x="936.5" y="0.5" width="252" height="72"/><rect class="cls-3" x="900.5" y="0.53" width="36" height="36"/><rect class="cls-4" x="1152.5" y="36.5" width="36" height="36" transform="translate(1116 1225) rotate(-90)"/><rect class="cls-4" x="1188.5" y="36.5" width="36" height="36" transform="translate(1152 1261) rotate(-90)"/><rect class="cls-4" x="1152.5" y="0.5" width="36" height="36" transform="translate(1152 1189) rotate(-90)"/><path class="cls-2" d="M851.45.63V61.06l-10.94-11H776.08a6.73,6.73,0,0,1-6.73-6.73V.63h-2.2V43.38a8.94,8.94,0,0,0,8.93,8.93H839.6l10.3,10.3,3.75,3.76V.63Z"/><line class="cls-5" x1="835.89" y1="21.84" x2="784.91" y2="21.84"/><line class="cls-5" x1="821.4" y1="35.36" x2="784.91" y2="35.36"/><g class="cls-6"><rect class="cls-7" x="1016.25" y="15.9" width="100" height="66.2"/><path class="cls-4" d="M1114.05,18.1V79.9h-95.6V18.1h95.6m2.2-2.2h-100V82.1h100V15.9Z"/><polyline class="cls-8" points="1114.41 17.38 1066.25 56.05 1017.99 17.3"/><rect class="cls-7" x="1006.25" y="23.4" width="100" height="66.2"/><path class="cls-4" d="M1104.05,25.6V87.4h-95.6V25.6h95.6m2.2-2.2h-100V89.6h100V23.4Z"/><polyline class="cls-8" points="1104.41 24.88 1056.25 63.55 1007.99 24.8"/><rect class="cls-7" x="996.25" y="30.9" width="100" height="66.2"/><path class="cls-4" d="M1094.05,33.1V94.9h-95.6V33.1h95.6m2.2-2.2h-100V97.1h100V30.9Z"/><polyline class="cls-8" points="1094.41 32.38 1046.25 71.05 997.99 32.3"/></g><path class="cls-4" d="M936.5,15a21.57,21.57,0,1,1-21.57,21.57A21.6,21.6,0,0,1,936.5,15m0-2a23.57,23.57,0,1,0,23.57,23.57A23.57,23.57,0,0,0,936.5,13Z"/><line class="cls-9" x1="936.5" y1="26.56" x2="936.5" y2="46.5"/><line class="cls-9" x1="946.47" y1="36.53" x2="926.53" y2="36.53"/><path class="cls-2" d="M252,1V36H217V1h35m.5-.5h-36v36h36V.5Z"/><path class="cls-2" d="M216,1V36H181V1h35m.5-.5h-36v36h36V.5Z"/><path class="cls-2" d="M180,1V36H145V1h35m.5-.5h-36v36h36V.5Z"/><path class="cls-2" d="M144,1V36H109V1h35m.5-.5h-36v36h36V.5Z"/><path class="cls-2" d="M108,1V36H73V1h35m.5-.5h-36v36h36V.5Z"/><path class="cls-2" d="M72,1V36H37V1H72m.5-.5h-36v36h36V.5Z"/><path class="cls-2" d="M36,1V36H1V1H36m.5-.5H.5v36h36V.5Z"/><path class="cls-2" d="M108,37V72H73V37h35m.5-.5h-36v36h36v-36Z"/><path class="cls-2" d="M72,37V72H37V37H72m.5-.5h-36v36h36v-36Z"/><path class="cls-2" d="M252.5.5v36h-144v36h-72v-36H.5V.5h252M253,0H0V37H36V73h73V37H253V0Z"/></svg>