<svg xmlns="http://www.w3.org/2000/svg" viewBox="0 0 146.75 85.4"><defs><style>.cls-1{isolation:isolate;}.cls-2{fill:#fff;}.cls-3{fill:#bdc1c6;}.cls-11,.cls-4{fill:#f1f3f4;}.cls-12,.cls-4{mix-blend-mode:multiply;}.cls-5{fill:#dadce0;}.cls-6{fill:#ea4335;}.cls-7{fill:#4285f4;}.cls-8{fill:#fbbc04;}.cls-9{fill:#0f9d58;}.cls-10{fill:#ffc927;}.cls-12,.cls-16{fill:#f8f9fa;}.cls-13{fill:#669df6;}.cls-14{fill:#1a73e8;}.cls-15{fill:#d2e3fc;}.cls-17{opacity:0.7;}</style></defs><title>profile not found</title><g class="cls-1"><g id="Layer_1" data-name="Layer 1"><path class="cls-2" d="M81.35,12.93,83.07,11c.3-.33.2-.73-.26-1L66.92.87A2.27,2.27,0,0,0,65.21.72l-3.29,1a2.33,2.33,0,0,1-1.71-.15L58.77.73.37,34.45,88,85l58.4-33.72L81.61,13.91C81.16,13.65,81.06,13.25,81.35,12.93Z"/><polygon class="cls-3" points="56.25 5.8 56 5.8 56 4.53 58.11 4.53 58.11 4.78 56.25 4.78 56.25 5.8"/><rect class="cls-3" x="56.98" y="4.09" width="0.25" height="2.26" transform="translate(24.02 52.05) rotate(-59.98)"/><polygon class="cls-3" points="61.76 7.96 59.65 7.96 59.65 7.71 61.51 7.71 61.51 6.69 61.76 6.69 61.76 7.96"/><rect class="cls-3" x="60.53" y="6.14" width="0.25" height="2.26" transform="translate(24.03 56.16) rotate(-60)"/><path class="cls-3" d="M64.26,10.17a1.9,1.9,0,0,1-.94-.23.73.73,0,0,1-.43-.62.71.71,0,0,1,.43-.61,2,2,0,0,1,1.88,0,.72.72,0,0,1,.43.61h-.25a.51.51,0,0,0-.3-.4,1.82,1.82,0,0,0-1.64,0,.51.51,0,0,0-.3.4.5.5,0,0,0,.3.4,1.84,1.84,0,0,0,1.26.15l.06.24A2.07,2.07,0,0,1,64.26,10.17Z"/><polygon class="cls-3" points="65.58 9.55 64.74 9.29 64.82 9.05 65.51 9.27 65.88 8.88 66.06 9.06 65.58 9.55"/><path class="cls-4" d="M135.2,52.47l-67.54-39a1.2,1.2,0,0,1,0-2.27h0a4.34,4.34,0,0,1,3.94,0l67.54,39a1.2,1.2,0,0,1,0,2.27h0A4.34,4.34,0,0,1,135.2,52.47Z"/><path class="cls-5" d="M88,85.4a.37.37,0,0,1-.18-.05L.19,34.77A.37.37,0,0,1,0,34.45a.37.37,0,0,1,.19-.33L58.59.4A.4.4,0,0,1,59,.4l1.44.83a1.91,1.91,0,0,0,1.42.12l3.28-1a2.71,2.71,0,0,1,2,.18L83,9.72a1.17,1.17,0,0,1,.61.79.93.93,0,0,1-.26.77l-1.72,1.9c0,.06-.08.11-.07.16s.08.16.24.25L146.56,51a.37.37,0,0,1,.19.32.37.37,0,0,1-.19.33L88.16,85.35A.41.41,0,0,1,88,85.4ZM1.12,34.45,88,84.59,145.62,51.3,81.43,14.24a1.14,1.14,0,0,1-.61-.79.92.92,0,0,1,.26-.77h0l1.72-1.9a.25.25,0,0,0,.07-.16.51.51,0,0,0-.24-.25L66.73,1.19a1.88,1.88,0,0,0-1.41-.11L62,2.07a2.69,2.69,0,0,1-2-.18l-1.26-.73Z"/><ellipse class="cls-2" cx="118.02" cy="65.22" rx="17.95" ry="10.37"/><path class="cls-5" d="M118,76a26.36,26.36,0,0,1-12.89-3.07c-3.51-2-5.44-4.75-5.44-7.66s1.93-5.63,5.44-7.65h0c7.1-4.1,18.66-4.1,25.77,0,3.51,2,5.44,4.74,5.44,7.65s-1.93,5.63-5.44,7.66A26.35,26.35,0,0,1,118,76ZM105.51,58.22c-3.27,1.88-5.07,4.37-5.07,7s1.8,5.12,5.07,7c6.9,4,18.12,4,25,0,3.27-1.89,5.07-4.38,5.07-7s-1.8-5.12-5.07-7c-6.89-4-18.12-4-25,0Z"/><path class="cls-6" d="M112.74,62.2l5.14.79c1.21.19,2.45-.23,2.78-.92s-.4-1.42-1.61-1.61l-8.88-1.37Z"/><path class="cls-7" d="M110.36,66.41a3.52,3.52,0,0,0,2.19.34c1.21-.19,1.93-.91,1.6-1.61L111.77,60c-.32-.7-1.57-1.11-2.78-.92s-1.93.9-1.6,1.6l2.38,5.13A1.39,1.39,0,0,0,110.36,66.41Z"/><path class="cls-8" d="M116,69.64a2.85,2.85,0,0,0,1,.34l8.88,1.38-2.49-3.1-5.22-.81c-1.21-.19-2.45.23-2.78.93C115.15,68.85,115.41,69.32,116,69.64Z"/><path class="cls-9" d="M124.84,71a3.56,3.56,0,0,0,2.2.34c1.21-.19,1.93-.91,1.6-1.61l-2.38-5.13c-.32-.7-1.57-1.11-2.78-.93s-1.93.91-1.6,1.61l2.38,5.13A1.37,1.37,0,0,0,124.84,71Z"/><polygon class="cls-10" points="29.42 36.99 21.39 32.35 22.54 31.68 30.58 36.32 29.42 36.99"/><polygon class="cls-10" points="29.35 39.49 19.18 33.62 20.34 32.96 30.51 38.83 29.35 39.49"/><polygon class="cls-10" points="23.64 38.75 16.98 34.9 18.13 34.23 24.79 38.08 23.64 38.75"/><ellipse class="cls-10" cx="20.61" cy="31.23" rx="1" ry="0.58"/><ellipse class="cls-10" cx="18.4" cy="32.51" rx="1" ry="0.58"/><ellipse class="cls-10" cx="16.19" cy="33.78" rx="1" ry="0.58"/><polygon class="cls-11" points="66.85 17.94 75.41 15.49 95.75 27.25 96.08 35.04 66.85 17.94"/><path class="cls-12" d="M96.82,50.32h0v-.62h0c0-.33,0-.66-.1-1h0l-.06-.3v0l-.06-.27s0,0,0-.07l-.06-.24,0-.1a1.87,1.87,0,0,0-.07-.22l0-.12c0-.07,0-.13-.07-.2l0-.14-.07-.18-.06-.16a1.11,1.11,0,0,1-.07-.16L96,46.31l-.07-.14L95.83,46l-.07-.13-.11-.21-.06-.11a2.53,2.53,0,0,1-.13-.22l-.06-.1L95.25,45l0-.09a2.2,2.2,0,0,1-.17-.25l0-.06-.19-.27,0,0a3,3,0,0,0-.22-.28l0,0-.25-.29v0a18.25,18.25,0,0,0-4.7-3.78c-4.86-2.8-11.22-4.2-17.58-4.2s-12.72,1.4-17.58,4.2-7.14,6.27-7.27,9.83h0v.17a1.5,1.5,0,0,0,0,.3v5.39h0a5,5,0,0,0,0,.55v.07h0A9.48,9.48,0,0,0,49,61.34l-1,.59,10.11,5.84C67.76,71.53,81,71,89.54,66c4.72-2.72,7.14-6.27,7.27-9.83h0V50.32Z"/><path class="cls-7" d="M49.71,28.26l0-.05a1.54,1.54,0,0,0,.17-.19l.09-.09.16-.18.1-.1.17-.17.11-.11c.06-.06.12-.11.17-.17l.12-.11.18-.16.12-.11.18-.16.14-.11.32-.27.17-.14.17-.12.18-.14.17-.12.19-.14.17-.12.21-.14.16-.11.23-.15.16-.11.26-.16.14-.08.41-.24c9.7-5.61,25.44-5.61,35.15,0l.41.24.13.08.26.16.16.11.23.14.16.12.21.14.17.12.19.14.17.12.18.14.17.12.17.14.33.27.13.11.18.16.12.11.18.16.12.11.17.17a1.14,1.14,0,0,1,.11.11c.06.05.11.11.17.17l.1.1.16.18L94,28a1.54,1.54,0,0,0,.17.19l0,.05a9.93,9.93,0,0,1,2.59,6.08h0V28.48h0c-.14-3.56-2.56-7.11-7.27-9.83-9.71-5.6-25.45-5.6-35.15,0-4.72,2.72-7.14,6.27-7.27,9.83h0v5.86h0A9.86,9.86,0,0,1,49.71,28.26Z"/><path class="cls-13" d="M89.54,18.65c-9.7-5.6-25.44-5.6-35.15,0s-9.7,14.69,0,20.3,25.45,5.6,35.15,0S99.25,24.26,89.54,18.65Zm-2,19.14c-8.61,5-22.56,5-31.16,0s-8.6-13,0-18,22.55-5,31.16,0S96.15,32.83,87.55,37.79Z"/><path class="cls-14" d="M94.23,35.19l0,.05-.16.19-.09.09-.17.18-.1.11L93.5,36l-.11.1-.17.17-.12.11-.18.16-.12.11-.18.16-.14.12-.32.26-.18.14-.16.13-.18.14-.17.12-.19.14-.17.11-.21.15-.16.11-.23.15-.16.1-.26.16L90,38.7c-.13.09-.27.17-.41.25-9.7,5.6-25.44,5.6-35.15,0L54,38.7l-.13-.08-.26-.16-.16-.1-.23-.15L53,38.1l-.2-.15-.17-.11-.19-.14a1.09,1.09,0,0,1-.17-.13l-.18-.13L52,37.31l-.17-.13-.33-.28-.13-.11-.18-.16L51,36.52c-.07-.05-.12-.11-.18-.16l-.12-.11c-.06,0-.11-.11-.17-.17l-.11-.1-.17-.17-.1-.11L50,35.52l-.09-.09-.17-.19,0,0a10,10,0,0,1-2.59-6.08h0v5.23a5,5,0,0,0,0,.55V35h0c.14,3.57,2.56,7.11,7.27,9.83,9.71,5.6,25.45,5.6,35.15,0,4.72-2.72,7.14-6.26,7.27-9.83h0V29.12h0A9.91,9.91,0,0,1,94.23,35.19Z"/><path class="cls-15" d="M54.54,41.84a3.93,3.93,0,0,0-1.77-3.07,1.25,1.25,0,0,0-1.29-.11h0l-3.65,2.15-.15,2.34,2.61,1.94L54,43h0A1.22,1.22,0,0,0,54.54,41.84Z"/><path class="cls-13" d="M50.45,45.8a6.77,6.77,0,0,0-3.06-5.29,2.13,2.13,0,0,0-2.19-.19h0L15.43,57.56l3.93,7.56L49.52,47.8l.06,0h0A2.15,2.15,0,0,0,50.45,45.8Z"/><ellipse class="cls-14" cx="17.45" cy="61.33" rx="2.49" ry="4.32" transform="translate(-28.33 16.94) rotate(-30)"/><path class="cls-16" d="M37.47,13.73l-.33-.19-22.49,13,.31.18c6.22,3.59,16.3,3.59,22.51,0S43.69,17.32,37.47,13.73Z"/><ellipse class="cls-5" cx="26.22" cy="9.19" rx="15.92" ry="9.19"/><g class="cls-17"><path class="cls-2" d="M29.3,10.71a7.74,7.74,0,0,1-3.78-.9,2.88,2.88,0,0,1-1.67-2.4A2.87,2.87,0,0,1,25.52,5a8.33,8.33,0,0,1,7.56,0,2.88,2.88,0,0,1,1.68,2.4,2.9,2.9,0,0,1-1.68,2.4A7.74,7.74,0,0,1,29.3,10.71Zm0-5.86a7,7,0,0,0-3.4.81,2.16,2.16,0,0,0-1.3,1.75,2.19,2.19,0,0,0,1.3,1.75,7.56,7.56,0,0,0,6.81,0A2.19,2.19,0,0,0,34,7.41a2.16,2.16,0,0,0-1.3-1.75A7,7,0,0,0,29.3,4.85Z"/><path class="cls-2" d="M26,17.15a.37.37,0,0,1-.18,0L12.9,9.64a.36.36,0,0,1-.19-.32A.39.39,0,0,1,12.9,9l2.38-1.37a.68.68,0,0,1,.35,0A18.5,18.5,0,0,1,24.53,10c2.7,1.56,4.29,3.57,4.27,5.39a.35.35,0,0,1-.19.32L26.18,17.1A.41.41,0,0,1,26,17.15ZM13.83,9.32l12.16,7L28,15.16c-.1-1.5-1.54-3.18-3.89-4.53a17.76,17.76,0,0,0-8.52-2.31h-.06Z"/></g></g></g></svg>