<svg id="Illos" xmlns="http://www.w3.org/2000/svg" xmlns:xlink="http://www.w3.org/1999/xlink" viewBox="0 0 1153 73"><defs><style>.cls-1,.cls-6{fill:none;}.cls-2{fill:#e8eaed;}.cls-3{fill:#bdc1c6;opacity:0.5;isolation:isolate;}.cls-4{fill:#feefc3;}.cls-5,.cls-7{fill:#fcc934;}.cls-6{stroke:#e8eaed;stroke-linecap:round;stroke-width:2px;}.cls-6,.cls-7{stroke-miterlimit:10;}.cls-7{stroke:#fcc934;stroke-width:0.25px;}.cls-8{clip-path:url(#clip-path);}.cls-9{fill:#fde293;}.cls-10{fill:#fbbc04;}.cls-11{fill:#fdd663;}</style><clipPath id="clip-path"><polygon class="cls-1" points="864.67 0.5 864.67 0.69 828.67 0.69 828.67 72.5 1116.67 72.5 1116.67 36.5 1152.67 36.5 1152.67 0.5 864.67 0.5"/></clipPath></defs><path class="cls-2" d="M648.17,1V36h-35V1h35m.5-.5h-36v36h36V.5Z"/><path class="cls-2" d="M1152.17,1V36h-35V1h35m.5-.5h-36v36h36V.5Z"/><path class="cls-2" d="M1116.17,1V36h-35V1h35m.5-.5h-36v36h36V.5Z"/><path class="cls-2" d="M1080.17,1V36h-35V1h35m.5-.5h-36v36h36V.5Z"/><path class="cls-2" d="M1044.17,1V36h-35V1h35m.5-.5h-36v36h36V.5Z"/><path class="cls-2" d="M1008.17,1V36h-35V1h35m.5-.5h-36v36h36V.5Z"/><path class="cls-2" d="M972.17,1V36h-35V1h35m.5-.5h-36v36h36V.5Z"/><path class="cls-2" d="M936.17,1V36h-35V1h35m.5-.5h-36v36h36V.5Z"/><path class="cls-2" d="M900.17,1V36h-35V1h35m.5-.5h-36v36h36V.5Z"/><path class="cls-2" d="M864.17,1V36h-35V1h35m.5-.5h-36v36h36V.5Z"/><path class="cls-2" d="M828.17,1V36h-35V1h35m.5-.5h-36v36h36V.5Z"/><path class="cls-2" d="M792.17,1V36h-35V1h35m.5-.5h-36v36h36V.5Z"/><path class="cls-2" d="M756.17,1V36h-35V1h35m.5-.5h-36v36h36V.5Z"/><path class="cls-2" d="M720.17,1V36h-35V1h35m.5-.5h-36v36h36V.5Z"/><path class="cls-2" d="M684.17,1V36h-35V1h35m.5-.5h-36v36h36V.5Z"/><path class="cls-2" d="M1116.17,37V72h-35V37h35m.5-.5h-36v36h36v-36Z"/><path class="cls-2" d="M1080.17,37V72h-35V37h35m.5-.5h-36v36h36v-36Z"/><path class="cls-2" d="M1044.17,37V72h-35V37h35m.5-.5h-36v36h36v-36Z"/><path class="cls-2" d="M1008.17,37V72h-35V37h35m.5-.5h-36v36h36v-36Z"/><path class="cls-2" d="M972.17,37V72h-35V37h35m.5-.5h-36v36h36v-36Z"/><path class="cls-2" d="M936.17,37V72h-35V37h35m.5-.5h-36v36h36v-36Z"/><path class="cls-2" d="M900.17,37V72h-35V37h35m.5-.5h-36v36h36v-36Z"/><path class="cls-2" d="M864.17,37V72h-35V37h35m.5-.5h-36v36h36v-36Z"/><path class="cls-2" d="M828.17,37V72h-35V37h35m.5-.5h-36v36h36v-36Z"/><path class="cls-2" d="M792.17,37V72h-35V37h35m.5-.5h-36v36h36v-36Z"/><path class="cls-2" d="M756.17,37V72h-35V37h35m.5-.5h-36v36h36v-36Z"/><path class="cls-2" d="M720.17,37V72h-35V37h35m.5-.5h-36v36h36v-36Z"/><path class="cls-2" d="M684.17,37V72h-35V37h35m.5-.5h-36v36h36v-36Z"/><path class="cls-2" d="M1152.67.5v36h-36v36h-468v-36h-36V.5h540m.5-.5h-541V37h36V73h469V37h36V0Z"/><path class="cls-3" d="M626.39,18.31l.78-7.83h8v1.28h-6.9l-.56,5.37a5.25,5.25,0,0,1,1.37-.65,5.58,5.58,0,0,1,1.65-.23,4.86,4.86,0,0,1,2,.38,4.34,4.34,0,0,1,1.5,1.07,4.64,4.64,0,0,1,.94,1.64,6.3,6.3,0,0,1,.33,2.08,7.36,7.36,0,0,1-.28,2.08,4.77,4.77,0,0,1-.88,1.69,4.15,4.15,0,0,1-1.49,1.14,5,5,0,0,1-2.12.42,5.58,5.58,0,0,1-1.86-.3,4.53,4.53,0,0,1-1.49-.87,4.48,4.48,0,0,1-1-1.4,5.43,5.43,0,0,1-.51-1.87h1.27a4.87,4.87,0,0,0,.39,1.4,3.35,3.35,0,0,0,.75,1.05,3.23,3.23,0,0,0,1.09.65,4.17,4.17,0,0,0,1.41.23,3.45,3.45,0,0,0,1.53-.32,2.94,2.94,0,0,0,1.08-.89A3.82,3.82,0,0,0,634,23.1a6.74,6.74,0,0,0,.2-1.66,4.74,4.74,0,0,0-.25-1.57,3.62,3.62,0,0,0-.72-1.27,3.23,3.23,0,0,0-1.15-.84,3.59,3.59,0,0,0-1.54-.31,6.61,6.61,0,0,0-.93.06,3.82,3.82,0,0,0-.79.22,4.73,4.73,0,0,0-.71.36,7.33,7.33,0,0,0-.66.51Z"/><path class="cls-3" d="M673.93,26.53h-1.32V12.15l-4.44,1.9V12.81l5.58-2.33h.18Z"/><path class="cls-3" d="M689.67,20.18a10.92,10.92,0,0,1-.29,2.54,6.42,6.42,0,0,1-.92,2.09,4.52,4.52,0,0,1-1.56,1.42,5.17,5.17,0,0,1-4.52,0,4.55,4.55,0,0,1-1.57-1.42,6.23,6.23,0,0,1-.93-2.09,10.4,10.4,0,0,1-.31-2.54V16.84a10.91,10.91,0,0,1,.3-2.54,6.47,6.47,0,0,1,.92-2.1,4.61,4.61,0,0,1,1.58-1.43,4.55,4.55,0,0,1,2.24-.52,4.64,4.64,0,0,1,2.27.52,4.58,4.58,0,0,1,1.57,1.43,6.29,6.29,0,0,1,.92,2.1,10.4,10.4,0,0,1,.3,2.54Zm-8.78.2c0,.3,0,.59,0,.86l7.24-6.56a5.92,5.92,0,0,0-.43-1.31,3.67,3.67,0,0,0-.71-1,3.21,3.21,0,0,0-1-.69,3.47,3.47,0,0,0-1.38-.26A3.17,3.17,0,0,0,681.73,13a5.11,5.11,0,0,0-.64,1.68,9.11,9.11,0,0,0-.2,2Zm7.46-3.76q0-.36,0-.72l-7.21,6.55a6.14,6.14,0,0,0,.45,1.27,3.7,3.7,0,0,0,.72,1,3.05,3.05,0,0,0,1,.66,3.35,3.35,0,0,0,1.35.25,3.24,3.24,0,0,0,1.73-.44A3.36,3.36,0,0,0,687.52,24a5.33,5.33,0,0,0,.63-1.68,9.77,9.77,0,0,0,.2-2Z"/><path class="cls-3" d="M721.61,26.53h-1.32V12.15l-4.44,1.9V12.81l5.57-2.33h.19Z"/><path class="cls-3" d="M728.37,18.31l.78-7.83h8v1.28h-6.9l-.56,5.37a5.25,5.25,0,0,1,1.37-.65,5.58,5.58,0,0,1,1.65-.23,4.86,4.86,0,0,1,2,.38,4.25,4.25,0,0,1,1.5,1.07,4.64,4.64,0,0,1,.94,1.64,6.3,6.3,0,0,1,.33,2.08,7.36,7.36,0,0,1-.28,2.08,4.62,4.62,0,0,1-.88,1.69,4.15,4.15,0,0,1-1.49,1.14,4.92,4.92,0,0,1-2.12.42,5.58,5.58,0,0,1-1.86-.3,4.53,4.53,0,0,1-1.49-.87,4.48,4.48,0,0,1-1-1.4,5.43,5.43,0,0,1-.51-1.87h1.28a4.57,4.57,0,0,0,.38,1.4,3.35,3.35,0,0,0,.75,1.05,3.23,3.23,0,0,0,1.09.65,4.17,4.17,0,0,0,1.41.23,3.45,3.45,0,0,0,1.53-.32,2.94,2.94,0,0,0,1.08-.89A3.82,3.82,0,0,0,736,23.1a6.74,6.74,0,0,0,.2-1.66,4.74,4.74,0,0,0-.25-1.57,3.62,3.62,0,0,0-.72-1.27,3.23,3.23,0,0,0-1.15-.84,3.59,3.59,0,0,0-1.54-.31,6.61,6.61,0,0,0-.93.06,3.82,3.82,0,0,0-.79.22,4.73,4.73,0,0,0-.71.36,7.33,7.33,0,0,0-.66.51Z"/><path class="cls-3" d="M773,26.53H763v-1l5.26-6c.39-.44.74-.86,1.07-1.26a11.65,11.65,0,0,0,.85-1.2,6.1,6.1,0,0,0,.56-1.19,3.84,3.84,0,0,0,.19-1.22,3.58,3.58,0,0,0-.24-1.33,2.87,2.87,0,0,0-.69-1,3.07,3.07,0,0,0-1.06-.68,4.15,4.15,0,0,0-2.89,0,3.32,3.32,0,0,0-1.12.78,3.59,3.59,0,0,0-.7,1.18,4.38,4.38,0,0,0-.26,1.48h-1.32a4.9,4.9,0,0,1,.36-1.87,4.73,4.73,0,0,1,1-1.55,4.6,4.6,0,0,1,1.54-1,5,5,0,0,1,2-.39,5.52,5.52,0,0,1,1.92.32,4.06,4.06,0,0,1,1.49.89,3.87,3.87,0,0,1,.95,1.39,4.63,4.63,0,0,1,.06,3.33,8.38,8.38,0,0,1-.73,1.47,13,13,0,0,1-1,1.39c-.37.44-.75.88-1.13,1.31l-4.48,5.06H773Z"/><path class="cls-3" d="M786.72,20.18a10.4,10.4,0,0,1-.3,2.54,6.42,6.42,0,0,1-.92,2.09,4.52,4.52,0,0,1-1.56,1.42,5.17,5.17,0,0,1-4.52,0,4.55,4.55,0,0,1-1.57-1.42,6.23,6.23,0,0,1-.93-2.09,10.91,10.91,0,0,1-.31-2.54V16.84a10.91,10.91,0,0,1,.31-2.54,6.07,6.07,0,0,1,.92-2.1,4.86,4.86,0,0,1,6.08-1.43,4.49,4.49,0,0,1,1.57,1.43,6.29,6.29,0,0,1,.92,2.1,10.4,10.4,0,0,1,.31,2.54Zm-8.79.2c0,.3,0,.59,0,.86l7.25-6.56a7.19,7.19,0,0,0-.43-1.31,3.91,3.91,0,0,0-.72-1,3.21,3.21,0,0,0-1-.69,3.42,3.42,0,0,0-1.37-.26,3.35,3.35,0,0,0-1.74.43A3.45,3.45,0,0,0,778.77,13a5.11,5.11,0,0,0-.64,1.68,9.77,9.77,0,0,0-.2,2Zm7.46-3.76q0-.36,0-.72l-7.21,6.55a6.14,6.14,0,0,0,.45,1.27,3.7,3.7,0,0,0,.72,1,3.16,3.16,0,0,0,1,.66,3.35,3.35,0,0,0,1.35.25,3.24,3.24,0,0,0,1.73-.44A3.36,3.36,0,0,0,784.56,24a5.33,5.33,0,0,0,.63-1.68,9.11,9.11,0,0,0,.2-2Z"/><rect class="cls-4" x="864.67" y="0.5" width="252" height="72"/><rect class="cls-5" x="1116.67" y="0.5" width="36" height="36" transform="translate(1153.17 -1116.17) rotate(90)"/><rect class="cls-4" x="828.67" y="36.5" width="36" height="36" transform="translate(901.17 -792.17) rotate(90)"/><path class="cls-2" d="M787.26,53l-12.78-7.45a.78.78,0,0,0-1.1.34.88.88,0,0,0,.32,1.17l11.06,6.45.44,1.67-6.08,11.68a.87.87,0,0,0,.32,1.16.79.79,0,0,0,1.1-.33l7-13.52h0A.9.9,0,0,0,787.26,53Z"/><path class="cls-6" d="M627.33,32.32c-7.77,56.58,157.72,21.9,157.72,21.9"/><path class="cls-7" d="M840.5,34.83c10.07-4.18,12.18-14.4,12.62-18.65a2.2,2.2,0,0,0-2-2.41h-5.89v-2.3a1.43,1.43,0,0,0-1.44-1.4H812.71a1.41,1.41,0,0,0-1.44,1.37h0v2.31H805.6a2.19,2.19,0,0,0-2.21,2.19,1.85,1.85,0,0,0,0,.23c.43,4.25,2.54,14.49,12.62,18.65a22.06,22.06,0,0,0,8.66,9.24v6.28a9.4,9.4,0,0,1-1.7-.87.79.79,0,0,0-.85,1.32A11.18,11.18,0,0,0,824.67,52a6,6,0,0,1-5.19,5.8,3,3,0,0,0-2.49,3v1.69h-3.3a.79.79,0,1,0,0,1.57H842.8a.79.79,0,1,0,0-1.57h-3.3V60.8a3,3,0,0,0-2.47-3A6,6,0,0,1,831.84,52a11.84,11.84,0,0,0,2.54-1.21.79.79,0,0,0,.23-1.09.78.78,0,0,0-1.09-.23,9,9,0,0,1-1.69.86V44.09A22.25,22.25,0,0,0,840.5,34.83Zm4.71-19.5h5.72a.63.63,0,0,1,.61.66v0c-.38,3.72-2.09,12.34-10,16.57a50.77,50.77,0,0,0,3.65-17.26ZM805,16a.64.64,0,0,1,.16-.48.63.63,0,0,1,.48-.21h5.72a51,51,0,0,0,3.63,17.27C807.08,28.36,805.34,19.74,805,16Zm9.71,11a57.37,57.37,0,0,1-1.83-15.38h30.86A57.37,57.37,0,0,1,841.86,27c-2.36,8.62-6.7,14.23-12.86,16.69a2,2,0,0,1-1.48,0C821.35,41.24,817,35.63,814.67,27Zm22.12,32.37a1.44,1.44,0,0,1,1.16,1.42v1.69H818.56V60.8a1.45,1.45,0,0,1,1.17-1.42,7.48,7.48,0,0,0,6.45-6.94,11,11,0,0,0,4.13,0A7.5,7.5,0,0,0,836.78,59.38Zm-6.52-8.53a9.35,9.35,0,0,1-4,0v-6l.69.31a3.59,3.59,0,0,0,2.62,0l.68-.31Z"/><g class="cls-8"><circle class="cls-9" cx="979.8" cy="72.25" r="100.25"/><path class="cls-10" d="M979.8-25.8a98.05,98.05,0,1,1-98,98.05,98.16,98.16,0,0,1,98-98m0-2.2A100.25,100.25,0,1,0,1080.05,72.25,100.25,100.25,0,0,0,979.8-28Z"/><path class="cls-9" d="M927.84,61.05V26.48L980.59,1.26l52.76,25.22V61.05c0,32.53-22.66,62.87-52.76,71.11C950.5,123.92,927.84,93.58,927.84,61.05Z"/><path class="cls-11" d="M980.59,131c-29.46-8.23-51.65-38.25-51.65-70V27.17L980.59,2.48l51.66,24.69V61.05C1032.25,92.77,1010.06,122.79,980.59,131Z"/><path class="cls-10" d="M980.59,3.7l50.56,24.17V61.05c0,31.13-21.69,60.61-50.56,68.83C951.73,121.66,930,92.18,930,61.05V27.87L980.59,3.7m0-2.44L927.84,26.48V61.05c0,32.53,22.66,62.87,52.75,71.11,30.1-8.24,52.76-38.58,52.76-71.11V26.48L980.59,1.26Z"/><path class="cls-9" d="M971.19,63.75a6.74,6.74,0,0,1-3.32-.87L949,52a6.47,6.47,0,0,1,3.25-12.07h.16a.19.19,0,0,0,0-.08,1.1,1.1,0,0,1,.53-1.17l15.15-8.77a5.45,5.45,0,0,1,.51-.29,6.48,6.48,0,0,1,5.92,11.52l-9.11,5.26,9.15,5.29a6.48,6.48,0,0,1-3.24,12.08Zm18.91,0a6.47,6.47,0,0,1-3.26-12.07l9-5.23-9.27-5.36A6.47,6.47,0,0,1,989.87,29H990a6.69,6.69,0,0,1,3.32.87l18.53,10.77a1.46,1.46,0,0,1,.33.12,6.48,6.48,0,0,1-3,12.07.14.14,0,0,0,0,.07,1.1,1.1,0,0,1-.53,1.19l-15.14,8.76a6.69,6.69,0,0,1-3.31.88Z"/><path class="cls-10" d="M971.56,30A5.38,5.38,0,0,1,974,40.14l-9.29,5.38-8.82-5.07a6.09,6.09,0,0,0-2.41-.84l15.15-8.76a4.25,4.25,0,0,1,.46-.27,5.32,5.32,0,0,1,2.46-.6m18.31.14H990a5.56,5.56,0,0,1,2.76.73l18.73,10.89h.11a5.37,5.37,0,0,1-2.69,10h-.23A5.26,5.26,0,0,1,1006,51L987.17,40.14a5.37,5.37,0,0,1,2.7-10M952.5,41a5.23,5.23,0,0,1,2.67.73L974,52.63a5.37,5.37,0,0,1-2.69,10h-.14a5.62,5.62,0,0,1-2.77-.73L949.57,51a5.37,5.37,0,0,1,2.7-10h.23m44.19,6.24,8.82,5.07a6.26,6.26,0,0,0,2.63.84L993,61.92a5.62,5.62,0,0,1-2.77.73h-.13a5.37,5.37,0,0,1-2.7-10l9.29-5.38M971.56,27.78a7.58,7.58,0,0,0-3.46.84c-.21.11-.41.22-.61.35l-15.1,8.73a2.2,2.2,0,0,0-1,1.15,7.58,7.58,0,0,0-3,14.08l18.84,10.9a7.88,7.88,0,0,0,3.87,1h.14a7.58,7.58,0,0,0,3.8-14.13l-7.51-4.34,7.46-4.31a7.58,7.58,0,0,0-3.51-14.29Zm18.31.14h0A7.57,7.57,0,0,0,986.07,42l7.62,4.41-7.39,4.27a7.58,7.58,0,0,0,3.8,14.13h.13a7.85,7.85,0,0,0,3.85-1l15.16-8.78a2.13,2.13,0,0,0,1-1.22,7.57,7.57,0,0,0,2.49-14,2.67,2.67,0,0,0-.46-.2L993.88,28.94a7.88,7.88,0,0,0-3.87-1h-.14Z"/></g><path class="cls-2" d="M216,1V36H181V1h35m.5-.5h-36v36h36V.5Z"/><path class="cls-2" d="M180,1V36H145V1h35m.5-.5h-36v36h36V.5Z"/><path class="cls-2" d="M144,1V36H109V1h35m.5-.5h-36v36h36V.5Z"/><path class="cls-2" d="M108,1V36H73V1h35m.5-.5h-36v36h36V.5Z"/><path class="cls-2" d="M72,1V36H37V1H72m.5-.5h-36v36h36V.5Z"/><path class="cls-2" d="M36,1V36H1V1H36m.5-.5H.5v36h36V.5Z"/><path class="cls-2" d="M180,37V72H145V37h35m.5-.5h-36v36h36v-36Z"/><path class="cls-2" d="M144,37V72H109V37h35m.5-.5h-36v36h36v-36Z"/><path class="cls-2" d="M216.5.5v36h-36v36h-72v-36H.5V.5h216M217,0H0V37H108V73h73V37h36V0Z"/></svg>