<svg width="341" height="246" viewBox="0 0 341 246" fill="none" xmlns="http://www.w3.org/2000/svg">
<mask id="mask0" mask-type="alpha" maskUnits="userSpaceOnUse" x="0" y="0" width="341" height="246">
<path d="M0 0H334C337.866 0 341 3.13401 341 7V239C341 242.866 337.866 246 334 246H0V0Z" fill="#F8F9FA"/>
</mask>
<g mask="url(#mask0)">
<path d="M0 0H334C337.866 0 341 3.13401 341 7V239C341 242.866 337.866 246 334 246H0V0Z" fill="#F8F9FA"/>
<path d="M281.614 319.23L59.4759 190.971C56.0378 188.936 53.1611 183.604 53.1611 178.973V-7.59234C53.1611 -12.2231 55.9677 -14.3281 59.4759 -12.3635L281.684 115.896C285.122 117.931 287.999 123.263 287.999 127.894V314.459C287.929 319.09 285.122 321.265 281.614 319.23Z" fill="#D2E3FC"/>
<path d="M52.8105 7.35269L53.5122 6.15991L287.508 141.225L287.578 142.909L52.8105 7.35269Z" fill="#4285F4"/>
<path d="M64.0369 -0.505662C64.3877 -0.505662 64.6683 -0.365334 64.949 -0.225007C66.6329 0.897612 67.6854 2.72187 67.8257 4.75661C67.8257 5.17759 67.7555 5.87923 67.2644 5.87923C66.9136 5.87923 66.6329 5.7389 66.3522 5.59857C64.6683 4.47596 63.6159 2.6517 63.4755 0.616955C63.4054 0.195973 63.4755 -0.505662 64.0369 -0.505662ZM64.0369 -1.90894C62.8441 -1.90894 62.0723 -0.996809 62.0723 0.616955C62.2126 3.14285 63.5457 5.45825 65.6506 6.79136C66.1418 7.07201 66.7031 7.2825 67.2644 7.2825C68.4572 7.2825 69.229 6.37038 69.229 4.75661C69.0886 2.23072 67.7555 -0.0145189 65.6506 -1.41779C65.0893 -1.69845 64.5982 -1.90894 64.0369 -1.90894Z" fill="#4285F4"/>
<path d="M75.3327 6.01949C75.6836 6.01949 75.9642 6.15981 76.2449 6.30014C77.9288 7.42276 78.9813 9.24702 79.1216 11.2818C79.1216 11.7027 79.0514 12.4044 78.5603 12.4044C78.2095 12.4044 77.9288 12.2641 77.6482 12.1237C75.9642 11.0011 74.9118 9.17686 74.7714 7.14211C74.7714 6.72113 74.8416 6.01949 75.3327 6.01949ZM75.3327 4.61621C74.14 4.61621 73.3682 5.52834 73.3682 7.14211C73.5085 9.668 74.8416 11.9132 76.9465 13.3165C77.4377 13.5972 77.999 13.8077 78.5603 13.8077C79.7531 13.8077 80.5249 12.8955 80.5249 11.2818C80.3845 8.75587 79.0514 6.44047 76.9465 5.10736C76.4554 4.82671 75.8941 4.61621 75.3327 4.61621Z" fill="#4285F4"/>
<path d="M86.6989 12.5446C87.0498 12.5446 87.3304 12.685 87.6111 12.8253C89.295 13.9479 90.3475 15.7722 90.4878 17.8069C90.4878 18.2279 90.4176 18.9295 89.9265 18.9295C89.5757 18.9295 89.295 18.7892 89.0144 18.6489C87.3304 17.5263 86.278 15.702 86.1376 13.6672C86.0675 13.3164 86.1376 12.5446 86.6989 12.5446ZM86.6989 11.1414C85.5062 11.1414 84.7344 12.0535 84.7344 13.6672C84.8747 16.1931 86.2078 18.5085 88.3127 19.8417C88.8039 20.1223 89.3652 20.3328 89.9265 20.3328C91.1193 20.3328 91.8911 19.4207 91.8911 17.8069C91.7507 15.281 90.4176 13.0358 88.3127 11.6325C87.7514 11.3518 87.2603 11.2115 86.6989 11.1414Z" fill="#4285F4"/>
<path opacity="0.3" d="M55.5469 183.885L285.614 141.646L287.298 142.839L55.8275 185.288L55.5469 183.885Z" fill="#4285F4"/>
<path opacity="0.3" d="M52.7402 6.8615L53.8629 6.01953L286.385 316.143L285.754 317.687L52.7402 6.8615Z" fill="#4285F4"/>
<path d="M56.95 -11.7321C57.5814 -11.7321 58.2129 -11.5216 58.7742 -11.1708L280.983 117.089C284 118.843 286.596 123.754 286.596 127.894V314.459C286.596 316.353 285.964 318.529 284.21 318.529C283.579 318.529 282.947 318.318 282.456 317.967L60.1775 189.708C57.1605 187.954 54.5644 183.042 54.5644 178.903V-7.59241C54.5644 -9.48683 55.1959 -11.6619 56.95 -11.7321ZM56.95 -13.0652C54.7047 -13.0652 53.1611 -11.0304 53.1611 -7.59241V178.903C53.1611 183.534 55.9677 188.936 59.4759 190.901L281.684 319.16C282.456 319.651 283.298 319.862 284.14 319.932C286.385 319.932 287.929 317.897 287.929 314.459V127.964C287.929 123.333 285.122 117.93 281.614 115.966L59.4759 -12.3635C58.7041 -12.7845 57.8621 -13.0652 56.95 -13.0652Z" fill="#4285F4"/>
<path d="M89.9279 202.197V27.2086L53.1621 5.94897C53.1621 5.94897 54.5654 176.236 54.5654 179.043C54.5654 181.92 56.2493 185.287 56.2493 185.287L89.9279 202.197Z" fill="#D2E3FC"/>
<path d="M54.5654 177.64V8.4047L89.9279 28.8223V27.2086L53.1621 5.94897V177.64H54.5654Z" fill="#4285F4"/>
<path d="M61.0918 94.6361L61.7934 93.4434L81.5094 104.81L80.8078 106.003L61.0918 94.6361Z" fill="#AECBFA"/>
<path d="M61.0918 103.757L61.7934 102.564L81.5094 113.931L80.8078 115.124L61.0918 103.757Z" fill="#AECBFA"/>
<path d="M61.0918 85.5148L61.7934 84.322L81.5094 95.6885L80.8078 96.8813L61.0918 85.5148Z" fill="#AECBFA"/>
<path d="M61.0918 76.3935L61.7934 75.2007L81.5094 86.5672L80.8078 87.76L61.0918 76.3935Z" fill="#AECBFA"/>
<path d="M61.0918 67.2724L61.7934 66.0796L81.5094 77.4461L80.8078 78.6389L61.0918 67.2724Z" fill="#AECBFA"/>
<path d="M61.0918 58.1508L61.7934 56.958L81.5094 68.3245L80.8078 69.5173L61.0918 58.1508Z" fill="#AECBFA"/>
<path d="M61.0918 49.0297L61.7934 47.8369L81.5094 59.2034L80.8078 60.3962L61.0918 49.0297Z" fill="#AECBFA"/>
<path d="M61.0918 39.9084L61.7934 38.7156L81.5094 50.0821L80.8078 51.2749L61.0918 39.9084Z" fill="#AECBFA"/>
<path d="M61.0918 30.787L61.7934 29.5942L81.5094 40.9608L80.8078 42.1535L61.0918 30.787Z" fill="#AECBFA"/>
<path d="M61.0918 112.458L61.7934 111.265L81.5094 122.631L80.8078 123.824L61.0918 112.458Z" fill="#AECBFA"/>
<path d="M61.0918 120.386L61.7934 119.193L81.5094 130.56L80.8078 131.753L61.0918 120.386Z" fill="#AECBFA"/>
<path d="M61.0918 128.385L61.7934 127.192L81.5094 138.559L80.8078 139.751L61.0918 128.385Z" fill="#AECBFA"/>
<path d="M61.0918 137.506L61.7934 136.313L81.5094 147.68L80.8078 148.873L61.0918 137.506Z" fill="#AECBFA"/>
<path d="M61.0918 146.136L61.7934 144.943L81.5094 156.31L80.8078 157.503L61.0918 146.136Z" fill="#AECBFA"/>
<path d="M61.0918 156.099L61.7934 154.906L81.5094 166.273L80.8078 167.466L61.0918 156.099Z" fill="#AECBFA"/>
<path d="M90.1386 207.459V27.2788L88.7354 26.5771V207.459H90.1386Z" fill="#4285F4"/>
<path d="M254.741 123.964V213.283L286.525 232.578L286.666 142.417L254.741 123.964Z" fill="#D2E3FC"/>
<path d="M258.881 199.952L259.582 198.759L279.299 210.125L278.597 211.318L258.881 199.952Z" fill="#AECBFA"/>
<path d="M258.881 190.83L259.582 189.637L279.299 201.004L278.597 202.197L258.881 190.83Z" fill="#AECBFA"/>
<path d="M258.881 181.709L259.582 180.516L279.299 191.883L278.597 193.076L258.881 181.709Z" fill="#AECBFA"/>
<path d="M258.881 172.588L259.582 171.395L279.299 182.762L278.597 183.954L258.881 172.588Z" fill="#AECBFA"/>
<path d="M258.881 163.466L259.582 162.274L279.299 173.64L278.597 174.833L258.881 163.466Z" fill="#AECBFA"/>
<path d="M258.881 154.345L259.582 153.153L279.299 164.519L278.597 165.712L258.881 154.345Z" fill="#AECBFA"/>
<path d="M258.881 145.224L259.582 144.031L279.299 155.398L278.597 156.59L258.881 145.224Z" fill="#AECBFA"/>
<path d="M254.11 134.77V207.74L255.514 208.582V135.612L254.11 134.77Z" fill="#4285F4"/>
<path opacity="0.5" d="M105.994 53.7305V219.247L231.938 292.287V125.017L105.994 53.7305Z" fill="#AECBFA"/>
<path d="M80.2451 58.8525V247.874L211.802 323.861V134.84L80.2451 58.8525Z" fill="#D2E3FC"/>
<path d="M80.2451 58.8525V60.4663L210.399 135.682V321.405L80.2451 246.26V247.874L211.802 323.861V134.84L80.2451 58.8525Z" fill="#4285F4"/>
<path d="M148.163 164.87L88.5234 130.419V121.298L148.163 155.749V164.87Z" fill="#AECBFA"/>
<path d="M148.163 189.638L88.5234 155.187V146.066L148.163 180.517V189.638Z" fill="#AECBFA"/>
<path d="M148.163 214.476L88.5234 180.025V170.904L148.163 205.354V214.476Z" fill="#AECBFA"/>
<path d="M199.031 270.747L88.5234 206.968V197.847L199.031 261.626V270.747Z" fill="#AECBFA"/>
<path d="M199.031 166.414L88.5234 102.635V93.5137L199.031 157.292V166.414Z" fill="#AECBFA"/>
<path d="M199.031 295.445L88.5234 231.666V222.544L199.031 286.323V295.445Z" fill="#AECBFA"/>
<path d="M194.19 233.771L164.02 216.37C161.354 214.826 159.179 211.388 159.179 208.722V165.501C159.179 162.835 161.354 161.923 164.02 163.467L194.12 180.867C196.786 182.411 198.962 185.849 198.962 188.515V231.736C199.032 234.402 196.857 235.314 194.19 233.771Z" fill="#AFCCFA"/>
<path d="M80.2441 59.2734V247.593H81.5773V60.3259L80.2441 59.2734Z" fill="#4285F4"/>
<path d="M167.389 174.763C165.635 173.711 164.161 174.553 164.161 176.587C164.161 178.622 165.564 181.148 167.389 182.13C169.143 183.183 170.616 182.341 170.616 180.306C170.616 178.342 169.213 175.816 167.389 174.763Z" fill="#4285F4"/>
<path d="M191.103 188.445L176.369 179.955C174.755 179.043 173.422 179.745 173.422 181.639V182.27C173.422 184.165 174.755 186.41 176.369 187.392L191.103 195.882C192.717 196.794 194.05 196.093 194.05 194.198V193.567C194.05 191.672 192.717 189.427 191.103 188.445Z" fill="#4285F4"/>
<path d="M193.909 201.496L164.16 184.305L164.09 206.617L193.839 223.808L193.909 201.496Z" fill="#4285F4"/>
</g>
</svg>
