<svg id="Illos" xmlns="http://www.w3.org/2000/svg" xmlns:xlink="http://www.w3.org/1999/xlink" viewBox="0 0 1189 73"><defs><style>.cls-1{fill:none;}.cls-2{fill:#e8eaed;}.cls-3{fill:#34a853;}.cls-4{fill:#e6f4ea;}.cls-5{clip-path:url(#clip-path);}.cls-6{fill:#ceead6;}.cls-7{fill:#a8dab5;stroke:#34a853;stroke-miterlimit:10;stroke-width:2.2px;}.cls-8{fill:#dadce0;opacity:0.5;isolation:isolate;}</style><clipPath id="clip-path"><polygon class="cls-1" points="756.67 0.5 756.67 0.5 756.67 48.5 756.67 72.5 1116.67 72.5 1116.67 0.5 756.67 0.5"/></clipPath></defs><path class="cls-2" d="M648.17,1V36h-35V1h35m.5-.5h-36v36h36V.5Z"/><path class="cls-2" d="M612.17,1V36h-35V1h35m.5-.5h-36v36h36V.5Z"/><path class="cls-2" d="M576.17,1V36h-35V1h35m.5-.5h-36v36h36V.5Z"/><path class="cls-2" d="M540.17,1V36h-35V1h35m.5-.5h-36v36h36V.5Z"/><path class="cls-2" d="M504.17,1V36h-35V1h35m.5-.5h-36v36h36V.5Z"/><path class="cls-2" d="M468.17,1V36h-35V1h35m.5-.5h-36v36h36V.5Z"/><path class="cls-2" d="M684.17,1V36h-35V1h35m.5-.5h-36v36h36V.5Z"/><path class="cls-2" d="M1188.17,1V36h-35V1h35m.5-.5h-36v36h36V.5Z"/><path class="cls-2" d="M1152.17,1V36h-35V1h35m.5-.5h-36v36h36V.5Z"/><path class="cls-2" d="M1116.17,1V36h-35V1h35m.5-.5h-36v36h36V.5Z"/><path class="cls-2" d="M1080.17,1V36h-35V1h35m.5-.5h-36v36h36V.5Z"/><path class="cls-2" d="M1044.17,1V36h-35V1h35m.5-.5h-36v36h36V.5Z"/><path class="cls-2" d="M1008.17,1V36h-35V1h35m.5-.5h-36v36h36V.5Z"/><path class="cls-2" d="M972.17,1V36h-35V1h35m.5-.5h-36v36h36V.5Z"/><path class="cls-2" d="M936.17,1V36h-35V1h35m.5-.5h-36v36h36V.5Z"/><path class="cls-2" d="M900.17,1V36h-35V1h35m.5-.5h-36v36h36V.5Z"/><path class="cls-2" d="M864.17,1V36h-35V1h35m.5-.5h-36v36h36V.5Z"/><path class="cls-2" d="M828.17,1V36h-35V1h35m.5-.5h-36v36h36V.5Z"/><path class="cls-2" d="M792.17,1V36h-35V1h35m.5-.5h-36v36h36V.5Z"/><path class="cls-2" d="M756.17,1V36h-35V1h35m.5-.5h-36v36h36V.5Z"/><path class="cls-2" d="M720.17,1V36h-35V1h35m.5-.5h-36v36h36V.5Z"/><path class="cls-2" d="M648.17,37V72h-35V37h35m.5-.5h-36v36h36v-36Z"/><path class="cls-2" d="M612.17,37V72h-35V37h35m.5-.5h-36v36h36v-36Z"/><path class="cls-2" d="M576.17,37V72h-35V37h35m.5-.5h-36v36h36v-36Z"/><path class="cls-2" d="M540.17,37V72h-35V37h35m.5-.5h-36v36h36v-36Z"/><path class="cls-2" d="M684.17,37V72h-35V37h35m.5-.5h-36v36h36v-36Z"/><path class="cls-2" d="M1152.17,37V72h-35V37h35m.5-.5h-36v36h36v-36Z"/><path class="cls-2" d="M1116.17,37V72h-35V37h35m.5-.5h-36v36h36v-36Z"/><path class="cls-2" d="M1080.17,37V72h-35V37h35m.5-.5h-36v36h36v-36Z"/><path class="cls-2" d="M1044.17,37V72h-35V37h35m.5-.5h-36v36h36v-36Z"/><path class="cls-2" d="M1008.17,37V72h-35V37h35m.5-.5h-36v36h36v-36Z"/><path class="cls-2" d="M972.17,37V72h-35V37h35m.5-.5h-36v36h36v-36Z"/><path class="cls-2" d="M936.17,37V72h-35V37h35m.5-.5h-36v36h36v-36Z"/><path class="cls-2" d="M900.17,37V72h-35V37h35m.5-.5h-36v36h36v-36Z"/><path class="cls-2" d="M864.17,37V72h-35V37h35m.5-.5h-36v36h36v-36Z"/><path class="cls-2" d="M828.17,37V72h-35V37h35m.5-.5h-36v36h36v-36Z"/><path class="cls-2" d="M792.17,37V72h-35V37h35m.5-.5h-36v36h36v-36Z"/><path class="cls-2" d="M756.17,37V72h-35V37h35m.5-.5h-36v36h36v-36Z"/><path class="cls-2" d="M720.17,37V72h-35V37h35m.5-.5h-36v36h36v-36Z"/><path class="cls-2" d="M1188.67.5v36h-36v36h-648v-36h-72V.5h756m.5-.5h-757V37h72V73h649V37h36V0Z"/><rect class="cls-3" x="1152.67" y="0.5" width="36" height="36" transform="translate(1189.17 -1152.17) rotate(90)"/><rect class="cls-3" x="1116.67" y="0.5" width="36" height="36" transform="translate(2269.34 37) rotate(180)"/><rect class="cls-3" x="1116.67" y="36.5" width="36" height="36" transform="translate(2269.34 109) rotate(180)"/><polygon class="cls-4" points="756.67 0.5 756.67 0.5 756.67 48.5 756.67 72.5 1116.67 72.5 1116.67 0.5 756.67 0.5"/><path class="cls-3" d="M775.5,16.75h-.42c-5.35,0-7.64,9.61-10.07,19.78a103.93,103.93,0,0,1-3.64,12.94c-1.39,3.51-2.89,5.32-4.43,5.32s-3-1.79-4.43-5.32a101.53,101.53,0,0,1-3.64-12.94c-2.43-10.17-4.72-19.78-10.07-19.78s-7.63,9.62-10.06,19.78a103.93,103.93,0,0,1-3.64,12.94c-1.39,3.51-2.89,5.32-4.43,5.32s-3-1.79-4.43-5.32a101.53,101.53,0,0,1-3.64-12.94c-2.43-10.16-4.72-19.78-10.07-19.78h0c-5.35,0-7.64,9.62-10.07,19.78a101.53,101.53,0,0,1-3.64,12.94c-1.4,3.53-2.89,5.32-4.43,5.32s-3-1.81-4.43-5.32a103.93,103.93,0,0,1-3.64-12.94c-2.43-10.16-4.71-19.78-10.06-19.78s-7.64,9.61-10.07,19.78a101.53,101.53,0,0,1-3.64,12.94c-1.4,3.53-2.89,5.32-4.43,5.32s-3-1.81-4.43-5.32A103.93,103.93,0,0,1,640,36.53C637.6,26.36,635.32,16.75,630,16.75h-.43a1,1,0,1,0,0,2H630c1.54,0,3,1.81,4.43,5.31A102.24,102.24,0,0,1,638,37c2.43,10.17,4.72,19.78,10.07,19.78s7.63-9.61,10.06-19.78A103.2,103.2,0,0,1,661.81,24c1.4-3.53,2.89-5.31,4.43-5.31s3,1.81,4.43,5.31A100.6,100.6,0,0,1,674.31,37c2.43,10.17,4.72,19.78,10.07,19.78,3.51,0,5.7-4.14,7.48-9.87h0c.93-3,1.74-6.41,2.58-9.91A100.6,100.6,0,0,1,698.1,24c1.39-3.5,2.88-5.31,4.42-5.31s3,1.81,4.42,5.31A100.6,100.6,0,0,1,710.58,37c.84,3.5,1.65,6.92,2.58,9.91h0c1.78,5.73,4,9.87,7.48,9.87,5.35,0,7.64-9.61,10.07-19.78A100.6,100.6,0,0,1,734.37,24c1.39-3.5,2.89-5.31,4.43-5.31s3,1.78,4.43,5.31A103.2,103.2,0,0,1,746.87,37c2.43,10.17,4.72,19.78,10.06,19.78S764.57,47.14,767,37A102.24,102.24,0,0,1,770.64,24c1.4-3.5,2.89-5.31,4.43-5.31h.43a1,1,0,1,0,0-2Z"/><g class="cls-5"><path class="cls-6" d="M1116.67-6.19v90.3H811.81v-78A12.33,12.33,0,0,1,824.14-6.19Z"/><path class="cls-3" d="M813,6.05V35.8h303.71v2.28H813V87.5h-2.29V6A13.47,13.47,0,0,1,824.14-7.44h292.53v2.28H824.14A11.2,11.2,0,0,0,813,6.05Z"/><path class="cls-3" d="M856.78,10.33h0A8.24,8.24,0,1,0,865,18.57,8.25,8.25,0,0,0,856.77,10.33Zm0,14.18a5.95,5.95,0,0,1,0-11.89h0a5.95,5.95,0,0,1,0,11.89Z"/><path class="cls-3" d="M877.65,10.33h0a8.24,8.24,0,1,0,8.23,8.24A8.24,8.24,0,0,0,877.64,10.33Zm0,14.18a5.95,5.95,0,0,1,0-11.89h0a5.95,5.95,0,0,1,0,11.89Z"/><path class="cls-3" d="M835.92,10.33h0a8.24,8.24,0,1,0,8.24,8.24A8.23,8.23,0,0,0,835.9,10.33Zm0,14.18a5.95,5.95,0,1,1,0-11.89h0a5.95,5.95,0,1,1,0,11.89Z"/><path class="cls-7" d="M1044.35,94.5V60a12,12,0,0,1,12-12h71.92V85.22Z"/><rect class="cls-7" x="892.91" y="66" width="99.6" height="11.73"/><circle class="cls-7" cx="864.3" cy="71.87" r="15.76"/></g><path class="cls-8" d="M580.78,70.59a4.09,4.09,0,0,0-1.8-1.38v-.09a4.09,4.09,0,0,0,1.44-1.24A3.16,3.16,0,0,0,581,66a3.77,3.77,0,0,0-.59-2.06,4,4,0,0,0-1.64-1.43,5,5,0,0,0-2.31-.52,4.24,4.24,0,0,0-2.84.94A4.56,4.56,0,0,0,572.13,65l1.64.71a3.27,3.27,0,0,1,.92-1.42,2.44,2.44,0,0,1,1.74-.57,2.84,2.84,0,0,1,1.9.62,2,2,0,0,1,.78,1.65,2.26,2.26,0,0,1-.83,1.79,2.94,2.94,0,0,1-2,.68h-1.14v1.64h1.27a3.57,3.57,0,0,1,1.57.36,2.89,2.89,0,0,1,1.14,1,2.18,2.18,0,0,1,.29.64h1.95A3.47,3.47,0,0,0,580.78,70.59Z"/><path class="cls-8" d="M578,33.81V18A35.56,35.56,0,0,0,607.22.67h-2.87a33,33,0,0,1-27.58,14.87A33,33,0,0,1,549.14.67h-2.88A35.51,35.51,0,0,0,575.51,18V33.81A35.54,35.54,0,0,0,541.2,69.33c0,.92,0,1.83.12,2.74h2.47c-.08-.91-.13-1.82-.13-2.74a33.06,33.06,0,1,1,66.11,0c0,.92,0,1.83-.12,2.74h2.47c.07-.91.12-1.82.12-2.74A35.54,35.54,0,0,0,578,33.81Z"/><path class="cls-2" d="M252,1V36H217V1h35m.5-.5h-36v36h36V.5Z"/><path class="cls-2" d="M216,1V36H181V1h35m.5-.5h-36v36h36V.5Z"/><path class="cls-2" d="M180,1V36H145V1h35m.5-.5h-36v36h36V.5Z"/><path class="cls-2" d="M144,1V36H109V1h35m.5-.5h-36v36h36V.5Z"/><path class="cls-2" d="M108,1V36H73V1h35m.5-.5h-36v36h36V.5Z"/><path class="cls-2" d="M72,1V36H37V1H72m.5-.5h-36v36h36V.5Z"/><path class="cls-2" d="M36,1V36H1V1H36m.5-.5H.5v36h36V.5Z"/><path class="cls-2" d="M216,37V72H181V37h35m.5-.5h-36v36h36v-36Z"/><path class="cls-2" d="M252.5.5v36h-36v36h-36v-36H.5V.5h252M253,0H0V37H180V73h37V37h36V0Z"/></svg>