<?xml version="1.0" encoding="UTF-8"?>
<svg xmlns="http://www.w3.org/2000/svg" xmlns:xlink="http://www.w3.org/1999/xlink" viewBox="0 0 386 216">
  <defs>
    <style>.f,.g,.h{fill:none;}.f,.i,.j,.k,.l,.m,.n,.o,.p,.q,.r,.s{stroke-width:0px;}.g{stroke:#d9dbdf;}.g,.h{stroke-linecap:round;stroke-miterlimit:10;stroke-width:7px;}.h{stroke:#041e49;}.t{clip-path:url(#b);}.i{fill:#d6f5ff;}.j{fill:#a6ecff;}.k{fill:#90dffb;}.l{fill:#7fc691;}.m{fill:#ee675c;}.n{fill:#fff;}.o{fill:#ffb501;}.p{fill:#041e49;}.q{fill:url(#c);}.r{fill:url(#e);}.s{fill:url(#d);}</style>
    <clipPath id="b"><rect class="f" width="386" height="216"/></clipPath>
    <linearGradient id="c" x1="132.89" y1="-24.85" x2="414.86" y2="355.98" gradientUnits="userSpaceOnUse">
      <stop offset="0" stop-color="#caebfc" stop-opacity=".15"/><stop offset=".41" stop-color="#caebfc"/>
      <stop offset=".45" stop-color="#c7e7fb"/><stop offset=".47" stop-color="#bfdef9"/>
      <stop offset=".5" stop-color="#b1cdf6"/>
      <stop offset=".5" stop-color="#adc8f6"/>
      <stop offset=".66" stop-color="#adc8f6"/>
    </linearGradient>
    <linearGradient id="d" x1="-1579.44" y1="1892.69" x2="-1511.55" y2="1947.33" gradientTransform="translate(-1566.84 1937.19) rotate(80.36) scale(1 -1)" gradientUnits="userSpaceOnUse">
      <stop offset=".39" stop-color="#caebfc"/><stop offset="1" stop-color="#adc8f6"/>
    </linearGradient>
    <radialGradient id="e" cx="48.35" cy="96.36" fx="70.62" fy="206.64" r="116.12" gradientTransform="translate(135.14 114.95) rotate(152.83) scale(1 .73)" gradientUnits="userSpaceOnUse">
      <stop offset=".74" stop-color="#166be3" stop-opacity="0"/>
      <stop offset=".79" stop-color="#166be3" stop-opacity=".01"/>
      <stop offset=".82" stop-color="#166be3" stop-opacity=".05"/>
      <stop offset=".85" stop-color="#166be3" stop-opacity=".12"/>
      <stop offset=".87" stop-color="#166be3" stop-opacity=".22"/>
      <stop offset=".9" stop-color="#166be3" stop-opacity=".35"/>
      <stop offset=".92" stop-color="#166be3" stop-opacity=".5"/>
      <stop offset=".94" stop-color="#166be3" stop-opacity=".68"/>
      <stop offset=".96" stop-color="#166be3" stop-opacity=".89"/>
      <stop offset=".97" stop-color="#166be3"/>
    </radialGradient>
  </defs>
  <g class="t">
    <path class="q" d="m402,220.5V17.79H89c-6.63,0-12,5.37-12,12v190.71h325Z"/>
    <path class="i" d="m390.5,220.5V36.5H103.5c-4.42,0-8,3.58-8,8v176h295Z"/>
    <path class="p" d="m390.5,36.5v184H95.5V44.5c0-4.42,3.58-8,8-8h287m3-3H103.5c-6.07,0-11,4.93-11,11v179h301V33.5h0Z"/>
    <path class="n" d="m109,72v148.5h281.5V68H113c-2.21,0-4,1.79-4,4Z"/>
    <path class="j" d="m290.26,199c6.27,0,11.37,5.1,11.37,11.37s-5.1,11.37-11.37,11.37h-143.9c-6.27,0-11.37-5.1-11.37-11.37s5.1-11.37,11.37-11.37h143.9m0-1h-143.9c-6.83,0-12.37,5.54-12.37,12.37h0c0,6.83,5.54,12.37,12.37,12.37h143.9c6.83,0,12.37-5.54,12.37-12.37h0c0-6.83-5.54-12.37-12.37-12.37h0Z"/>
    <path class="j" d="m465.63,199c6.27,0,11.37,5.1,11.37,11.37s-5.1,11.37-11.37,11.37h-143.9c-6.27,0-11.37-5.1-11.37-11.37s5.1-11.37,11.37-11.37h143.9m0-1h-143.9c-6.83,0-12.37,5.54-12.37,12.37h0c0,6.83,5.54,12.37,12.37,12.37h143.9c6.83,0,12.37-5.54,12.37-12.37h0c0-6.83-5.54-12.37-12.37-12.37h0Z"/>
    <line class="g" x1="137" y1="176.2" x2="296.42" y2="176.2"/>
    <line class="g" x1="137" y1="156.4" x2="319.33" y2="156.4"/>
    <line class="g" x1="137" y1="136.6" x2="332.33" y2="136.6"/>
    <line class="g" x1="137" y1="116.8" x2="308.44" y2="116.8"/>
    <line class="g" x1="137" y1="97" x2="352" y2="97"/>
    <circle class="s" cx="84" cy="106.82" r="40"/>
    <circle class="r" cx="84" cy="106.82" r="40"/>
    <path class="p" d="m99.27,128.12l-14.29-14.31c-1.09.94-2.36,1.69-3.8,2.23-1.45.51-2.99.76-4.62.76-3.91,0-7.23-1.36-9.95-4.08s-4.1-6.24-4.08-9.94,1.38-7.06,4.08-9.76c2.72-2.72,6.01-4.08,9.89-4.08,1.3,0,2.55.18,3.75.54,1.23.36,2.37.85,3.42,1.47l-2.39,2.39c-.72-.36-1.49-.63-2.28-.82-1.08-.29-2.22-.39-3.43-.29-2.53.22-4.94,1.35-6.72,3.15-2.04,2.06-3.06,4.55-3.06,7.47s1.03,5.46,3.1,7.56c2.1,2.07,4.64,3.1,7.61,3.1,2.61,0,4.86-.8,6.74-2.39,1.92-1.63,3.13-3.66,3.64-6.1h3.32c-.18,1.16-.53,2.29-1.03,3.37-.47,1.05-1.09,2.07-1.85,3.05l14.35,14.26-2.39,2.39Zm-5.22-19.73c0-3.19-1.11-5.9-3.32-8.11-2.21-2.21-4.91-3.32-8.1-3.32,3.19,0,5.89-1.11,8.1-3.32,2.21-2.21,3.32-4.92,3.32-8.11,0,3.19,1.11,5.9,3.32,8.11,2.21,2.21,4.91,3.32,8.1,3.32-3.19,0-5.89,1.11-8.1,3.32-2.21,2.21-3.32,4.92-3.32,8.11Z"/>
    <line class="h" x1="137.41" y1="51.54" x2="220.41" y2="51.54"/>
    <polygon class="p" points="125 49.54 123 46.54 121 49.54 118 51.54 121 53.54 123 56.54 125 53.54 128 51.54 125 49.54"/>
    <polygon class="m" points="88.24 15.26 86.04 11.96 83.84 15.26 80.54 17.46 83.84 19.66 86.04 22.96 88.24 19.66 91.54 17.46 88.24 15.26"/>
    <polygon class="m" points="28.54 97.7 26.54 94.7 24.54 97.7 21.54 99.7 24.54 101.7 26.54 104.7 28.54 101.7 31.54 99.7 28.54 97.7"/>
    <polygon class="o" points="36.76 141.43 38.16 139.33 39.56 141.43 41.66 142.83 39.56 144.23 38.16 146.33 36.76 144.23 34.66 142.83 36.76 141.43"/>
    <circle class="k" cx="17.33" cy="126.33" r="1.67"/>
    <circle class="l" cx="51.96" cy="163.33" r="2"/>
    <circle class="k" cx="33.5" cy="179.5" r="1.5"/>
    <circle class="k" cx="53" cy="197" r="1"/>
    <circle class="k" cx="138.42" cy="25.83" r="2.17"/>
    <circle class="k" cx="35" cy="67" r="2"/>
    <circle class="l" cx="31" cy="22" r="2.5"/>
    <circle class="k" cx="192.81" cy="11.6" r="1.5"/>
    <polygon class="o" points="62.46 38.46 58.46 32.46 54.46 38.46 48.46 42.46 54.46 46.46 58.46 52.46 62.46 46.46 68.46 42.46 62.46 38.46"/>
  </g>
</svg>