<?xml version="1.0" encoding="UTF-8"?>
<svg width="24px" height="24px" viewBox="0 0 24 24" version="1.1" xmlns="http://www.w3.org/2000/svg" xmlns:xlink="http://www.w3.org/1999/xlink">
    <title>event_available_gm2_24px</title>
    <g id="Onboarding-and-Dashboard-Final-07.2020" stroke="none" stroke-width="1" fill="none" fill-rule="evenodd">
        <g id="GDev-Dashboard-1520px---10a" transform="translate(-64.000000, -968.000000)">
            <g id="Profile" transform="translate(40.000000, 142.000000)">
                <g id="Stats" transform="translate(24.000000, 692.000000)">
                    <g id="event_available_gm2_24px" transform="translate(0.000000, 134.000000)">
                        <path d="M19,4 L18,4 L18,2 L16,2 L16,4 L8,4 L8,2 L6,2 L6,4 L5,4 C3.89,4 3.01,4.9 3.01,6 L3,20 C3,21.1 3.89,22 5,22 L19,22 C20.1,22 21,21.1 21,20 L21,6 C21,4.9 20.1,4 19,4 Z M19,20 L5,20 L5,9 L19,9 L19,20 Z M15.6,10.6 L17,12 L11.01,18 L7.01,14 L8.41,12.6 L11.01,15.2 L15.6,10.6 Z" id="Shape" fill="#5F6368" fill-rule="nonzero"></path>
                        <polygon id="Path" points="0 0 24 0 24 24 0 24"></polygon>
                    </g>
                </g>
            </g>
        </g>
    </g>
</svg>