<?xml version="1.0" encoding="UTF-8"?>
<svg width="20px" height="20px" viewBox="0 0 20 20" version="1.1" xmlns="http://www.w3.org/2000/svg" xmlns:xlink="http://www.w3.org/1999/xlink">
    <title>Github icon</title>
    <g id="Onboarding-and-Dashboard-Final-07.2020" stroke="none" stroke-width="1" fill="none" fill-rule="evenodd">
        <g id="GDev-Dashboard-1520px---10a" transform="translate(-66.000000, -644.000000)">
            <g id="Profile" transform="translate(40.000000, 142.000000)">
                <g id="Group" transform="translate(24.000000, 500.000000)">
                    <g id="Github-icon" transform="translate(2.000000, 2.000000)" fill="#5F6368" fill-rule="nonzero">
                        <path d="M10,0 C4.47833333,0 0,4.4775 0,10 C0,14.4183333 2.865,18.1666667 6.83916667,19.4891667 C7.33833333,19.5816667 7.5,19.2716667 7.5,19.0083333 L7.5,17.1466667 C4.71833333,17.7516667 4.13916667,15.9666667 4.13916667,15.9666667 C3.68416667,14.8108333 3.02833333,14.5033333 3.02833333,14.5033333 C2.12083333,13.8825 3.0975,13.8958333 3.0975,13.8958333 C4.10166667,13.9658333 4.63,14.9266667 4.63,14.9266667 C5.52166667,16.455 6.96916667,16.0133333 7.54,15.7575 C7.62916667,15.1116667 7.88833333,14.67 8.175,14.4208333 C5.95416667,14.1666667 3.61916667,13.3091667 3.61916667,9.47833333 C3.61916667,8.38583333 4.01,7.49416667 4.64916667,6.79416667 C4.54583333,6.54166667 4.20333333,5.52416667 4.74666667,4.1475 C4.74666667,4.1475 5.58666667,3.87916667 7.4975,5.1725 C8.295,4.95083333 9.15,4.84 10,4.83583333 C10.85,4.84 11.7058333,4.95083333 12.505,5.1725 C14.4141667,3.87916667 15.2525,4.1475 15.2525,4.1475 C15.7966667,5.525 15.4541667,6.5425 15.3508333,6.79416667 C15.9925,7.49416667 16.38,8.38666667 16.38,9.47833333 C16.38,13.3191667 14.0408333,14.165 11.8141667,14.4125 C12.1725,14.7225 12.5,15.3308333 12.5,16.2641667 L12.5,19.0083333 C12.5,19.2741667 12.66,19.5866667 13.1675,19.4883333 C17.1383333,18.1641667 20,14.4166667 20,10 C20,4.4775 15.5225,0 10,0 Z" id="Path"></path>
                    </g>
                    <rect id="Bounding-box" x="0" y="0" width="24" height="24"></rect>
                </g>
            </g>
        </g>
    </g>
</svg>