<?xml version="1.0" encoding="UTF-8"?>
<svg width="20px" height="18px" viewBox="0 0 20 18" version="1.1" xmlns="http://www.w3.org/2000/svg" xmlns:xlink="http://www.w3.org/1999/xlink">
    <title>Twitter icon</title>
    <g id="Onboarding-and-Dashboard-Final-07.2020" stroke="none" stroke-width="1" fill="none" fill-rule="evenodd">
        <g id="GDev-Dashboard-1520px---10a" transform="translate(-66.000000, -681.000000)">
            <g id="Profile" transform="translate(40.000000, 142.000000)">
                <g id="Group" transform="translate(24.000000, 536.000000)">
                    <rect id="Bounding-box" x="0" y="0" width="24" height="24"></rect>
                    <path d="M21.3417143,13.0771429 L20.3257143,9.95542857 C20.3203284,9.92668331 20.3120975,9.89854487 20.3011429,9.87142857 L18.2628571,3.59714286 C18.1514736,3.26509758 17.8393638,3.04219493 17.4891429,3.04455261 C17.1396603,3.0424523 16.8296123,3.26838412 16.7245714,3.60171429 L14.7817143,9.58057143 L8.64971429,9.58057143 L6.704,3.60171429 C6.59933493,3.26959705 6.29107583,3.04395694 5.94285714,3.04455261 L5.93828571,3.04455261 C5.58776755,3.04455261 5.27679462,3.26945432 5.16685714,3.60228571 L3.12685714,9.884 C3.12685714,9.88971429 3.12228571,9.89428571 3.12057143,9.9 L2.08628571,13.0777143 C1.9303637,13.5558428 2.10045812,14.0799737 2.50742857,14.3754286 L11.4434286,20.8685714 C11.6048193,20.9853938 11.823283,20.9842379 11.9834286,20.8657143 L20.9211429,14.3754286 C21.3283045,14.0798519 21.4982241,13.5553174 21.3417143,13.0771429 M7.98457143,10.4982857 L10.4754286,18.1645714 L4.496,10.4982857 M12.956,18.1662857 L15.3445714,10.8165714 L15.4474286,10.4982857 L18.9388571,10.4982857 L13.5291429,17.4285714 M17.4971429,4.19028571 L19.2474286,9.58057143 L15.744,9.58057143 M14.4851429,10.4948571 L12.7497143,15.8354286 L11.7142857,19.016 L8.94742857,10.4948571 M5.93428571,4.19028571 L7.688,9.58057143 L4.18685714,9.58057143 M3.04514286,13.636 C2.95866323,13.5731071 2.9226474,13.4615965 2.956,13.36 L3.724,11 L9.35657143,18.2211429 M20.384,13.636 L14.072,18.2194286 L14.0931429,18.192 L19.7045714,11 L20.4725714,13.3588571 C20.5063228,13.4604994 20.4705181,13.5723024 20.384,13.6354286" id="Shape" fill="#5F6368" fill-rule="nonzero"></path>
                </g>
            </g>
        </g>
    </g>
</svg>