<svg width="20" height="20" viewBox="0 0 20 20" fill="none" xmlns="http://www.w3.org/2000/svg">
<path d="M18 0H2C0.9 0 0.00999999 0.9 0.00999999 2L0 18C0 19.1 0.9 20 2 20H18C19.1 20 20 19.1 20 18V2C20 0.9 19.1 0 18 0ZM6 17H3V8H6V17ZM4.5 6.31C3.5 6.31 2.69 5.5 2.69 4.5C2.69 3.5 3.5 2.69 4.5 2.69C5.5 2.69 6.31 3.5 6.31 4.5C6.31 5.5 5.5 6.31 4.5 6.31ZM17 17H14V11.7C14 10.87 13.33 10.2 12.5 10.2C11.67 10.2 11 10.87 11 11.7V17H8V8H11V9.2C11.52 8.36 12.59 7.8 13.5 7.8C15.43 7.8 17 9.37 17 11.3V17Z" fill="#5F6368"/>
</svg>
