<?xml version="1.0" encoding="UTF-8"?>
<svg width="24px" height="24px" viewBox="0 0 24 24" version="1.1" xmlns="http://www.w3.org/2000/svg" xmlns:xlink="http://www.w3.org/1999/xlink">
    <title>Group 3</title>
    <g id="Onboarding-and-Dashboard-Final-07.2020" stroke="none" stroke-width="1" fill="none" fill-rule="evenodd">
        <g id="GDev-Dashboard-1520px---10a" transform="translate(-64.000000, -458.000000)">
            <g id="Profile" transform="translate(40.000000, 142.000000)">
                <g id="Location" transform="translate(24.000000, 290.000000)">
                    <g id="Group-3" transform="translate(0.000000, 26.000000)">
                        <g id="ic_room_24px" transform="translate(5.000000, 2.000000)" fill="#5F6368" fill-rule="nonzero">
                            <path d="M7,0 C3.13,0 0,3.13 0,7 C0,12.25 7,20 7,20 C7,20 14,12.25 14,7 C14,3.13 10.87,0 7,0 Z M2,7 C2,4.24 4.24,2 7,2 C9.76,2 12,4.24 12,7 C12,9.88 9.12,14.19 7,16.88 C4.92,14.21 2,9.85 2,7 Z M7,9.5 C8.38071187,9.5 9.5,8.38071187 9.5,7 C9.5,5.61928813 8.38071187,4.5 7,4.5 C5.61928813,4.5 4.5,5.61928813 4.5,7 C4.5,8.38071187 5.61928813,9.5 7,9.5 Z"></path>
                        </g>
                        <rect id="Rectangle" x="0" y="0" width="24" height="24"></rect>
                    </g>
                </g>
            </g>
        </g>
    </g>
</svg>