<?xml version="1.0" encoding="UTF-8"?>
<svg width="24px" height="24px" viewBox="0 0 24 24" version="1.1" xmlns="http://www.w3.org/2000/svg" xmlns:xlink="http://www.w3.org/1999/xlink">
    <title>Group 15</title>
    <g id="Onboarding-and-Dashboard-Final-07.2020" stroke="none" stroke-width="1" fill="none" fill-rule="evenodd">
        <g id="GDev-Dashboard-1520px---10a" transform="translate(-64.000000, -896.000000)">
            <g id="Profile" transform="translate(40.000000, 142.000000)">
                <g id="Stats" transform="translate(24.000000, 692.000000)">
                    <g id="article_gm2_24px" transform="translate(0.000000, 62.000000)">
                        <path d="M18.6666667,4.66666667 L18.6666667,18.6666667 L4.66666667,18.6666667 L4.66666667,4.66666667 L18.6666667,4.66666667 M18.6666667,2.66666667 L4.66666667,2.66666667 C3.56666667,2.66666667 2.66666667,3.56666667 2.66666667,4.66666667 L2.66666667,18.6666667 C2.66666667,19.7666667 3.56666667,20.6666667 4.66666667,20.6666667 L18.6666667,20.6666667 C19.7666667,20.6666667 20.6666667,19.7666667 20.6666667,18.6666667 L20.6666667,4.66666667 C20.6666667,3.56666667 19.7666667,2.66666667 18.6666667,2.66666667 Z M13.6666667,16.6666667 L6.66666667,16.6666667 L6.66666667,14.6666667 L13.6666667,14.6666667 L13.6666667,16.6666667 Z M16.6666667,12.6666667 L6.66666667,12.6666667 L6.66666667,10.6666667 L16.6666667,10.6666667 L16.6666667,12.6666667 Z M16.6666667,8.66666667 L6.66666667,8.66666667 L6.66666667,6.66666667 L16.6666667,6.66666667 L16.6666667,8.66666667 Z" id="Shape" fill="#5F6368" fill-rule="nonzero"></path>
                        <polygon id="Path" points="0 0 24 0 24 24 0 24"></polygon>
                    </g>
                </g>
            </g>
        </g>
    </g>
</svg>