<?xml version="1.0" encoding="UTF-8"?>
<svg width="24px" height="24px" viewBox="0 0 24 24" version="1.1" xmlns="http://www.w3.org/2000/svg" xmlns:xlink="http://www.w3.org/1999/xlink">
    <title>Settings rest</title>
    <g id="Onboarding-and-Dashboard-Final-08.2020" stroke="none" stroke-width="1" fill="none" fill-rule="evenodd">
        <g id="GDev-Dashboard-320px---My-profile" transform="translate(-262.000000, -226.000000)">
            <g id="Information-collapsed" transform="translate(16.000000, 208.000000)">
                <g id="Settings" transform="translate(236.000000, 8.000000)">
                    <g id="settings_gm2_24px" transform="translate(10.000000, 10.000000)">
                        <path d="M13.85,22.25 L10.15,22.25 C9.41,22.25 8.79,21.71 8.7,20.98 L8.43,19.09 C8.16,18.95 7.9,18.8 7.64,18.63 L5.84,19.35 C5.14,19.61 4.37,19.32 4.03,18.7 L2.2,15.53 C1.85,14.87 2,14.09 2.56,13.65 L4.09,12.46 C4.08,12.31 4.07,12.16 4.07,12 C4.07,11.85 4.08,11.69 4.09,11.54 L2.57,10.35 C1.98,9.9 1.83,9.09 2.2,8.47 L4.05,5.28 C4.39,4.66 5.16,4.38 5.84,4.65 L7.65,5.38 C7.91,5.21 8.17,5.06 8.43,4.92 L8.7,3.01 C8.79,2.31 9.41,1.76 10.14,1.76 L13.84,1.76 C14.58,1.76 15.2,2.3 15.29,3.03 L15.56,4.92 C15.83,5.06 16.09,5.21 16.35,5.38 L18.15,4.66 C18.86,4.4 19.63,4.69 19.97,5.31 L21.81,8.49 C22.17,9.15 22.01,9.93 21.45,10.37 L19.93,11.56 C19.94,11.71 19.95,11.86 19.95,12.02 C19.95,12.18 19.94,12.33 19.93,12.48 L21.45,13.67 C22.01,14.12 22.17,14.9 21.82,15.53 L19.96,18.75 C19.62,19.37 18.85,19.65 18.16,19.38 L16.36,18.66 C16.1,18.83 15.84,18.98 15.58,19.12 L15.31,21.03 C15.21,21.71 14.59,22.25 13.85,22.25 Z M10.62,20.25 L13.38,20.25 L13.75,17.7 L14.28,17.48 C14.72,17.3 15.16,17.04 15.62,16.7 L16.07,16.36 L18.45,17.32 L19.83,14.92 L17.8,13.34 L17.87,12.78 C17.9,12.52 17.93,12.27 17.93,12 C17.93,11.73 17.9,11.47 17.87,11.22 L17.8,10.66 L19.83,9.08 L18.44,6.68 L16.05,7.64 L15.6,7.29 C15.18,6.97 14.73,6.71 14.27,6.52 L13.75,6.3 L13.38,3.75 L10.62,3.75 L10.25,6.3 L9.72,6.51 C9.28,6.7 8.84,6.95 8.38,7.3 L7.93,7.63 L5.55,6.68 L4.16,9.07 L6.19,10.65 L6.12,11.21 C6.09,11.47 6.06,11.74 6.06,12 C6.06,12.26 6.08,12.53 6.12,12.78 L6.19,13.34 L4.16,14.92 L5.54,17.32 L7.93,16.36 L8.38,16.71 C8.81,17.04 9.24,17.29 9.71,17.48 L10.24,17.7 L10.62,20.25 Z" id="Shape" fill="#1A73E8" fill-rule="nonzero"></path>
                        <circle id="Oval" fill="#1A73E8" fill-rule="nonzero" cx="12" cy="12" r="3.5"></circle>
                        <polygon id="Path" points="0 0 24 0 24 24 0 24"></polygon>
                    </g>
                </g>
            </g>
        </g>
    </g>
</svg>