<?xml version="1.0" encoding="UTF-8"?>
<svg width="24px" height="24px" viewBox="0 0 24 24" version="1.1" xmlns="http://www.w3.org/2000/svg" xmlns:xlink="http://www.w3.org/1999/xlink">
    <title>so-icon</title>
    <g id="Onboarding-and-Dashboard-Final-07.2020" stroke="none" stroke-width="1" fill="none" fill-rule="evenodd">
        <g id="GDev-Dashboard-1520px---10a" transform="translate(-64.000000, -750.000000)">
            <g id="Profile" transform="translate(40.000000, 142.000000)">
                <g id="so-icon" transform="translate(24.000000, 608.000000)">
                    <g id="Group" transform="translate(3.000000, 1.000000)" fill="#5F6368" fill-rule="nonzero">
                        <polygon id="Path" points="15.0324324 19.1918919 15.0324324 13.5486486 16.9054054 13.5486486 16.9054054 21.0648649 7.10542736e-15 21.0648649 7.10542736e-15 13.5486486 1.87297297 13.5486486 1.87297297 19.1918919"></polygon>
                        <path d="M3.94054054,13.0135135 L13.1351351,14.9351351 L13.5243243,13.0864865 L4.32972973,11.1648649 L3.94054054,13.0135135 L3.94054054,13.0135135 Z M5.15675676,8.63513514 L13.6702703,12.6 L14.4486486,10.8972973 L5.93513514,6.90810811 L5.15675676,8.63513514 Z M7.51621622,4.45135135 L14.7405405,10.4594595 L15.9324324,9.02432432 L8.70810811,3.01621622 L7.51621622,4.45135135 L7.51621622,4.45135135 Z M12.1864865,-3.19744231e-13 L10.6783784,1.11891892 L16.272973,8.65945946 L17.7810811,7.54054054 L12.1864865,-3.19744231e-13 Z M3.74594595,17.2945946 L13.1351351,17.2945946 L13.1351351,15.4216216 L3.74594595,15.4216216 L3.74594595,17.2945946 Z" id="Shape"></path>
                    </g>
                    <rect id="Bounding-box" x="0" y="0" width="24" height="24"></rect>
                </g>
            </g>
        </g>
    </g>
</svg>