<?xml version="1.0" encoding="UTF-8"?>
<svg width="24px" height="24px" viewBox="0 0 24 24" version="1.1" xmlns="http://www.w3.org/2000/svg" xmlns:xlink="http://www.w3.org/1999/xlink">
    <title>Group 16</title>
    <g id="Onboarding-and-Dashboard-Final-07.2020" stroke="none" stroke-width="1" fill="none" fill-rule="evenodd">
        <g id="GDev-Dashboard-1520px---10a" transform="translate(-64.000000, -860.000000)">
            <g id="Profile" transform="translate(40.000000, 142.000000)">
                <g id="Stats" transform="translate(24.000000, 692.000000)">
                    <g id="stars_gm2_24px-copy" transform="translate(0.000000, 26.000000)">
                        <path d="M11.99,2 C6.47,2 2,6.48 2,12 C2,17.52 6.47,22 11.99,22 C17.52,22 22,17.52 22,12 C22,6.48 17.52,2 11.99,2 Z M11.99,20 C7.58,20 4,16.41 4,12 C4,7.59 7.58,4 11.99,4 C16.41,4 20,7.59 20,12 C20,16.41 16.41,20 11.99,20 Z M13.68,9.77 L12,5.8 L10.32,9.78 L6,10.15 L9.27,12.98 L8.29,17.2 L12,14.96 L15.71,17.2 L14.73,12.97 L18,10.14 L13.68,9.77 Z" id="Shape" fill="#5F6368" fill-rule="nonzero"></path>
                        <polygon id="Path" points="0 0 24 0 24 24 0 24"></polygon>
                    </g>
                </g>
            </g>
        </g>
    </g>
</svg>